G04 #@! TF.FileFunction,Legend,Top*
%FSLAX46Y46*%
G04 Gerber Fmt 4.6, Leading zero omitted, Abs format (unit mm)*
G04 Created by KiCad (PCBNEW 4.0.6) date 07/26/17 22:49:38*
%MOMM*%
%LPD*%
G01*
G04 APERTURE LIST*
%ADD10C,0.100000*%
%ADD11C,0.150000*%
%ADD12C,0.120000*%
G04 APERTURE END LIST*
D10*
D11*
X101075714Y-99471429D02*
X100790000Y-99471429D01*
X100790000Y-98871429D01*
X101275714Y-99157143D02*
X101475714Y-99157143D01*
X101561428Y-99471429D02*
X101275714Y-99471429D01*
X101275714Y-98871429D01*
X101561428Y-98871429D01*
X101818571Y-99471429D02*
X101818571Y-98871429D01*
X101961428Y-98871429D01*
X102047143Y-98900000D01*
X102104285Y-98957143D01*
X102132857Y-99014286D01*
X102161428Y-99128571D01*
X102161428Y-99214286D01*
X102132857Y-99328571D01*
X102104285Y-99385714D01*
X102047143Y-99442857D01*
X101961428Y-99471429D01*
X101818571Y-99471429D01*
X102275714Y-99528571D02*
X102732857Y-99528571D01*
X102875714Y-99471429D02*
X102875714Y-98871429D01*
X103218571Y-99471429D02*
X102961428Y-99128571D01*
X103218571Y-98871429D02*
X102875714Y-99214286D01*
X101118571Y-93071429D02*
X100832857Y-93071429D01*
X100832857Y-92471429D01*
X101318571Y-92757143D02*
X101518571Y-92757143D01*
X101604285Y-93071429D02*
X101318571Y-93071429D01*
X101318571Y-92471429D01*
X101604285Y-92471429D01*
X101861428Y-93071429D02*
X101861428Y-92471429D01*
X102004285Y-92471429D01*
X102090000Y-92500000D01*
X102147142Y-92557143D01*
X102175714Y-92614286D01*
X102204285Y-92728571D01*
X102204285Y-92814286D01*
X102175714Y-92928571D01*
X102147142Y-92985714D01*
X102090000Y-93042857D01*
X102004285Y-93071429D01*
X101861428Y-93071429D01*
X102318571Y-93128571D02*
X102775714Y-93128571D01*
X102890000Y-92900000D02*
X103175714Y-92900000D01*
X102832857Y-93071429D02*
X103032857Y-92471429D01*
X103232857Y-93071429D01*
D12*
X100660000Y-98600000D02*
X103320000Y-98600000D01*
X100660000Y-96000000D02*
X100660000Y-98600000D01*
X103320000Y-96000000D02*
X103320000Y-98600000D01*
X100660000Y-96000000D02*
X103320000Y-96000000D01*
X100660000Y-94730000D02*
X100660000Y-93400000D01*
X100660000Y-93400000D02*
X101990000Y-93400000D01*
X103990000Y-95600000D02*
X104990000Y-95600000D01*
X104990000Y-95600000D02*
X104990000Y-93500000D01*
X103990000Y-95600000D02*
X103990000Y-93500000D01*
X105990000Y-95600000D02*
X106990000Y-95600000D01*
X106990000Y-95600000D02*
X106990000Y-93500000D01*
X105990000Y-95600000D02*
X105990000Y-93500000D01*
X107990000Y-95600000D02*
X108990000Y-95600000D01*
X108990000Y-95600000D02*
X108990000Y-93500000D01*
X107990000Y-95600000D02*
X107990000Y-93500000D01*
X109990000Y-95600000D02*
X110990000Y-95600000D01*
X110990000Y-95600000D02*
X110990000Y-93500000D01*
X109990000Y-95600000D02*
X109990000Y-93500000D01*
X103990000Y-99000000D02*
X104990000Y-99000000D01*
X104990000Y-99000000D02*
X104990000Y-96900000D01*
X103990000Y-99000000D02*
X103990000Y-96900000D01*
X105990000Y-99000000D02*
X106990000Y-99000000D01*
X106990000Y-99000000D02*
X106990000Y-96900000D01*
X105990000Y-99000000D02*
X105990000Y-96900000D01*
X107990000Y-99000000D02*
X108990000Y-99000000D01*
X108990000Y-99000000D02*
X108990000Y-96900000D01*
X107990000Y-99000000D02*
X107990000Y-96900000D01*
X109990000Y-99000000D02*
X110990000Y-99000000D01*
X110990000Y-99000000D02*
X110990000Y-96900000D01*
X109990000Y-99000000D02*
X109990000Y-96900000D01*
M02*
