G04 #@! TF.FileFunction,Copper,L1,Top,Signal*
%FSLAX46Y46*%
G04 Gerber Fmt 4.6, Leading zero omitted, Abs format (unit mm)*
G04 Created by KiCad (PCBNEW 4.0.6) date 07/26/17 22:49:38*
%MOMM*%
%LPD*%
G01*
G04 APERTURE LIST*
%ADD10C,0.100000*%
%ADD11R,1.700000X1.700000*%
%ADD12O,1.700000X1.700000*%
%ADD13R,0.800000X0.800000*%
%ADD14C,0.254000*%
G04 APERTURE END LIST*
D10*
D11*
X101990000Y-94730000D03*
D12*
X101990000Y-97270000D03*
D13*
X104490000Y-93500000D03*
X104490000Y-95100000D03*
X106490000Y-93500000D03*
X106490000Y-95100000D03*
X108490000Y-93500000D03*
X108490000Y-95100000D03*
X110490000Y-93500000D03*
X110490000Y-95100000D03*
X104490000Y-96900000D03*
X104490000Y-98500000D03*
X106490000Y-96900000D03*
X106490000Y-98500000D03*
X108490000Y-96900000D03*
X108490000Y-98500000D03*
X110490000Y-96900000D03*
X110490000Y-98500000D03*
D14*
X104490000Y-95100000D02*
X106090000Y-93500000D01*
X106090000Y-93500000D02*
X106490000Y-93500000D01*
X104490000Y-96900000D02*
X104150000Y-96900000D01*
X104150000Y-96900000D02*
X102290000Y-98760000D01*
X102290000Y-98760000D02*
X101190000Y-98760000D01*
X101190000Y-98760000D02*
X100460000Y-98030000D01*
X100460000Y-98030000D02*
X100460000Y-96260000D01*
X100460000Y-96260000D02*
X101990000Y-94730000D01*
X101990000Y-94730000D02*
X103220000Y-93500000D01*
X103220000Y-93500000D02*
X104490000Y-93500000D01*
X106490000Y-95100000D02*
X108090000Y-93500000D01*
X108090000Y-93500000D02*
X108490000Y-93500000D01*
X108490000Y-95100000D02*
X110090000Y-93500000D01*
X110090000Y-93500000D02*
X110490000Y-93500000D01*
X104490000Y-98500000D02*
X106090000Y-96900000D01*
X106090000Y-96900000D02*
X106490000Y-96900000D01*
X106490000Y-98500000D02*
X108090000Y-96900000D01*
X108090000Y-96900000D02*
X108490000Y-96900000D01*
X110490000Y-98500000D02*
X111080000Y-98500000D01*
X111040000Y-96000000D02*
X109680000Y-96000000D01*
X111500000Y-96460000D02*
X111040000Y-96000000D01*
X111500000Y-98080000D02*
X111500000Y-96460000D01*
X111080000Y-98500000D02*
X111500000Y-98080000D01*
X109680000Y-96000000D02*
X103260000Y-96000000D01*
X103260000Y-96000000D02*
X101990000Y-97270000D01*
X109590000Y-96000000D02*
X109680000Y-96000000D01*
X109590000Y-96000000D02*
X110490000Y-95100000D01*
X108490000Y-98500000D02*
X110090000Y-96900000D01*
X110090000Y-96900000D02*
X110490000Y-96900000D01*
G36*
X109701536Y-98100000D02*
X109701536Y-98900000D01*
X109728103Y-99041190D01*
X109811546Y-99170865D01*
X109938866Y-99257859D01*
X110090000Y-99288464D01*
X110890000Y-99288464D01*
X111031190Y-99261897D01*
X111160865Y-99178454D01*
X111247859Y-99051134D01*
X111264005Y-98971399D01*
X111274403Y-98969331D01*
X111439210Y-98859210D01*
X111519000Y-98779420D01*
X111519000Y-99152625D01*
X111486012Y-99318470D01*
X111418904Y-99418903D01*
X111318469Y-99486012D01*
X111152625Y-99519000D01*
X100847375Y-99519000D01*
X100681530Y-99486012D01*
X100581097Y-99418904D01*
X100513988Y-99318469D01*
X100481000Y-99152625D01*
X100481000Y-98769420D01*
X100830790Y-99119210D01*
X100995597Y-99229331D01*
X101190000Y-99268000D01*
X102290000Y-99268000D01*
X102484403Y-99229331D01*
X102649210Y-99119210D01*
X103709945Y-98058475D01*
X103701536Y-98100000D01*
X103701536Y-98900000D01*
X103728103Y-99041190D01*
X103811546Y-99170865D01*
X103938866Y-99257859D01*
X104090000Y-99288464D01*
X104890000Y-99288464D01*
X105031190Y-99261897D01*
X105160865Y-99178454D01*
X105247859Y-99051134D01*
X105278464Y-98900000D01*
X105278464Y-98429956D01*
X105725180Y-97983240D01*
X105701536Y-98100000D01*
X105701536Y-98900000D01*
X105728103Y-99041190D01*
X105811546Y-99170865D01*
X105938866Y-99257859D01*
X106090000Y-99288464D01*
X106890000Y-99288464D01*
X107031190Y-99261897D01*
X107160865Y-99178454D01*
X107247859Y-99051134D01*
X107278464Y-98900000D01*
X107278464Y-98429956D01*
X107725180Y-97983240D01*
X107701536Y-98100000D01*
X107701536Y-98900000D01*
X107728103Y-99041190D01*
X107811546Y-99170865D01*
X107938866Y-99257859D01*
X108090000Y-99288464D01*
X108890000Y-99288464D01*
X109031190Y-99261897D01*
X109160865Y-99178454D01*
X109247859Y-99051134D01*
X109278464Y-98900000D01*
X109278464Y-98429956D01*
X109725180Y-97983240D01*
X109701536Y-98100000D01*
X109701536Y-98100000D01*
G37*
X109701536Y-98100000D02*
X109701536Y-98900000D01*
X109728103Y-99041190D01*
X109811546Y-99170865D01*
X109938866Y-99257859D01*
X110090000Y-99288464D01*
X110890000Y-99288464D01*
X111031190Y-99261897D01*
X111160865Y-99178454D01*
X111247859Y-99051134D01*
X111264005Y-98971399D01*
X111274403Y-98969331D01*
X111439210Y-98859210D01*
X111519000Y-98779420D01*
X111519000Y-99152625D01*
X111486012Y-99318470D01*
X111418904Y-99418903D01*
X111318469Y-99486012D01*
X111152625Y-99519000D01*
X100847375Y-99519000D01*
X100681530Y-99486012D01*
X100581097Y-99418904D01*
X100513988Y-99318469D01*
X100481000Y-99152625D01*
X100481000Y-98769420D01*
X100830790Y-99119210D01*
X100995597Y-99229331D01*
X101190000Y-99268000D01*
X102290000Y-99268000D01*
X102484403Y-99229331D01*
X102649210Y-99119210D01*
X103709945Y-98058475D01*
X103701536Y-98100000D01*
X103701536Y-98900000D01*
X103728103Y-99041190D01*
X103811546Y-99170865D01*
X103938866Y-99257859D01*
X104090000Y-99288464D01*
X104890000Y-99288464D01*
X105031190Y-99261897D01*
X105160865Y-99178454D01*
X105247859Y-99051134D01*
X105278464Y-98900000D01*
X105278464Y-98429956D01*
X105725180Y-97983240D01*
X105701536Y-98100000D01*
X105701536Y-98900000D01*
X105728103Y-99041190D01*
X105811546Y-99170865D01*
X105938866Y-99257859D01*
X106090000Y-99288464D01*
X106890000Y-99288464D01*
X107031190Y-99261897D01*
X107160865Y-99178454D01*
X107247859Y-99051134D01*
X107278464Y-98900000D01*
X107278464Y-98429956D01*
X107725180Y-97983240D01*
X107701536Y-98100000D01*
X107701536Y-98900000D01*
X107728103Y-99041190D01*
X107811546Y-99170865D01*
X107938866Y-99257859D01*
X108090000Y-99288464D01*
X108890000Y-99288464D01*
X109031190Y-99261897D01*
X109160865Y-99178454D01*
X109247859Y-99051134D01*
X109278464Y-98900000D01*
X109278464Y-98429956D01*
X109725180Y-97983240D01*
X109701536Y-98100000D01*
G36*
X106090000Y-97688464D02*
X106583116Y-97688464D01*
X106560044Y-97711536D01*
X106090000Y-97711536D01*
X105975302Y-97733118D01*
X106031751Y-97676669D01*
X106090000Y-97688464D01*
X106090000Y-97688464D01*
G37*
X106090000Y-97688464D02*
X106583116Y-97688464D01*
X106560044Y-97711536D01*
X106090000Y-97711536D01*
X105975302Y-97733118D01*
X106031751Y-97676669D01*
X106090000Y-97688464D01*
G36*
X108090000Y-97688464D02*
X108583116Y-97688464D01*
X108560044Y-97711536D01*
X108090000Y-97711536D01*
X107975302Y-97733118D01*
X108031751Y-97676669D01*
X108090000Y-97688464D01*
X108090000Y-97688464D01*
G37*
X108090000Y-97688464D02*
X108583116Y-97688464D01*
X108560044Y-97711536D01*
X108090000Y-97711536D01*
X107975302Y-97733118D01*
X108031751Y-97676669D01*
X108090000Y-97688464D01*
G36*
X110992000Y-97732191D02*
X110890000Y-97711536D01*
X110090000Y-97711536D01*
X109975302Y-97733118D01*
X110031751Y-97676669D01*
X110090000Y-97688464D01*
X110890000Y-97688464D01*
X110992000Y-97669271D01*
X110992000Y-97732191D01*
X110992000Y-97732191D01*
G37*
X110992000Y-97732191D02*
X110890000Y-97711536D01*
X110090000Y-97711536D01*
X109975302Y-97733118D01*
X110031751Y-97676669D01*
X110090000Y-97688464D01*
X110890000Y-97688464D01*
X110992000Y-97669271D01*
X110992000Y-97732191D01*
G36*
X104090000Y-97688464D02*
X104583116Y-97688464D01*
X104560044Y-97711536D01*
X104090000Y-97711536D01*
X104049208Y-97719212D01*
X104081647Y-97686773D01*
X104090000Y-97688464D01*
X104090000Y-97688464D01*
G37*
X104090000Y-97688464D02*
X104583116Y-97688464D01*
X104560044Y-97711536D01*
X104090000Y-97711536D01*
X104049208Y-97719212D01*
X104081647Y-97686773D01*
X104090000Y-97688464D01*
G36*
X103701536Y-96630044D02*
X103214666Y-97116914D01*
X103156073Y-96822347D01*
X103470420Y-96508000D01*
X103701536Y-96508000D01*
X103701536Y-96630044D01*
X103701536Y-96630044D01*
G37*
X103701536Y-96630044D02*
X103214666Y-97116914D01*
X103156073Y-96822347D01*
X103470420Y-96508000D01*
X103701536Y-96508000D01*
X103701536Y-96630044D01*
G36*
X105701536Y-96570044D02*
X105278464Y-96993116D01*
X105278464Y-96508000D01*
X105701536Y-96508000D01*
X105701536Y-96570044D01*
X105701536Y-96570044D01*
G37*
X105701536Y-96570044D02*
X105278464Y-96993116D01*
X105278464Y-96508000D01*
X105701536Y-96508000D01*
X105701536Y-96570044D01*
G36*
X109701536Y-96570044D02*
X109278464Y-96993116D01*
X109278464Y-96508000D01*
X109701536Y-96508000D01*
X109701536Y-96570044D01*
X109701536Y-96570044D01*
G37*
X109701536Y-96570044D02*
X109278464Y-96993116D01*
X109278464Y-96508000D01*
X109701536Y-96508000D01*
X109701536Y-96570044D01*
G36*
X107701536Y-96570044D02*
X107278464Y-96993116D01*
X107278464Y-96508000D01*
X107701536Y-96508000D01*
X107701536Y-96570044D01*
X107701536Y-96570044D01*
G37*
X107701536Y-96570044D02*
X107278464Y-96993116D01*
X107278464Y-96508000D01*
X107701536Y-96508000D01*
X107701536Y-96570044D01*
G36*
X102421539Y-96120041D02*
X102014117Y-96039000D01*
X101965883Y-96039000D01*
X101494800Y-96132704D01*
X101095435Y-96399552D01*
X100968000Y-96590271D01*
X100968000Y-96470420D01*
X101469956Y-95968464D01*
X102573116Y-95968464D01*
X102421539Y-96120041D01*
X102421539Y-96120041D01*
G37*
X102421539Y-96120041D02*
X102014117Y-96039000D01*
X101965883Y-96039000D01*
X101494800Y-96132704D01*
X101095435Y-96399552D01*
X100968000Y-96590271D01*
X100968000Y-96470420D01*
X101469956Y-95968464D01*
X102573116Y-95968464D01*
X102421539Y-96120041D01*
G36*
X111318469Y-92513988D02*
X111418904Y-92581097D01*
X111486012Y-92681530D01*
X111519000Y-92847375D01*
X111519000Y-95760580D01*
X111399210Y-95640790D01*
X111267742Y-95552946D01*
X111278464Y-95500000D01*
X111278464Y-94700000D01*
X111251897Y-94558810D01*
X111168454Y-94429135D01*
X111041134Y-94342141D01*
X110890000Y-94311536D01*
X110090000Y-94311536D01*
X109975302Y-94333118D01*
X110031751Y-94276669D01*
X110090000Y-94288464D01*
X110890000Y-94288464D01*
X111031190Y-94261897D01*
X111160865Y-94178454D01*
X111247859Y-94051134D01*
X111278464Y-93900000D01*
X111278464Y-93100000D01*
X111251897Y-92958810D01*
X111168454Y-92829135D01*
X111041134Y-92742141D01*
X110890000Y-92711536D01*
X110090000Y-92711536D01*
X109948810Y-92738103D01*
X109819135Y-92821546D01*
X109732141Y-92948866D01*
X109701536Y-93100000D01*
X109701536Y-93170044D01*
X109278464Y-93593116D01*
X109278464Y-93100000D01*
X109251897Y-92958810D01*
X109168454Y-92829135D01*
X109041134Y-92742141D01*
X108890000Y-92711536D01*
X108090000Y-92711536D01*
X107948810Y-92738103D01*
X107819135Y-92821546D01*
X107732141Y-92948866D01*
X107701536Y-93100000D01*
X107701536Y-93170044D01*
X107278464Y-93593116D01*
X107278464Y-93100000D01*
X107251897Y-92958810D01*
X107168454Y-92829135D01*
X107041134Y-92742141D01*
X106890000Y-92711536D01*
X106090000Y-92711536D01*
X105948810Y-92738103D01*
X105819135Y-92821546D01*
X105732141Y-92948866D01*
X105701536Y-93100000D01*
X105701536Y-93170044D01*
X105278464Y-93593116D01*
X105278464Y-93100000D01*
X105251897Y-92958810D01*
X105168454Y-92829135D01*
X105041134Y-92742141D01*
X104890000Y-92711536D01*
X104090000Y-92711536D01*
X103948810Y-92738103D01*
X103819135Y-92821546D01*
X103732141Y-92948866D01*
X103723406Y-92992000D01*
X103220000Y-92992000D01*
X103025597Y-93030669D01*
X102860790Y-93140790D01*
X102510044Y-93491536D01*
X101140000Y-93491536D01*
X100998810Y-93518103D01*
X100869135Y-93601546D01*
X100782141Y-93728866D01*
X100751536Y-93880000D01*
X100751536Y-95250044D01*
X100481000Y-95520580D01*
X100481000Y-92847375D01*
X100513988Y-92681531D01*
X100581097Y-92581096D01*
X100681530Y-92513988D01*
X100847375Y-92481000D01*
X111152625Y-92481000D01*
X111318469Y-92513988D01*
X111318469Y-92513988D01*
G37*
X111318469Y-92513988D02*
X111418904Y-92581097D01*
X111486012Y-92681530D01*
X111519000Y-92847375D01*
X111519000Y-95760580D01*
X111399210Y-95640790D01*
X111267742Y-95552946D01*
X111278464Y-95500000D01*
X111278464Y-94700000D01*
X111251897Y-94558810D01*
X111168454Y-94429135D01*
X111041134Y-94342141D01*
X110890000Y-94311536D01*
X110090000Y-94311536D01*
X109975302Y-94333118D01*
X110031751Y-94276669D01*
X110090000Y-94288464D01*
X110890000Y-94288464D01*
X111031190Y-94261897D01*
X111160865Y-94178454D01*
X111247859Y-94051134D01*
X111278464Y-93900000D01*
X111278464Y-93100000D01*
X111251897Y-92958810D01*
X111168454Y-92829135D01*
X111041134Y-92742141D01*
X110890000Y-92711536D01*
X110090000Y-92711536D01*
X109948810Y-92738103D01*
X109819135Y-92821546D01*
X109732141Y-92948866D01*
X109701536Y-93100000D01*
X109701536Y-93170044D01*
X109278464Y-93593116D01*
X109278464Y-93100000D01*
X109251897Y-92958810D01*
X109168454Y-92829135D01*
X109041134Y-92742141D01*
X108890000Y-92711536D01*
X108090000Y-92711536D01*
X107948810Y-92738103D01*
X107819135Y-92821546D01*
X107732141Y-92948866D01*
X107701536Y-93100000D01*
X107701536Y-93170044D01*
X107278464Y-93593116D01*
X107278464Y-93100000D01*
X107251897Y-92958810D01*
X107168454Y-92829135D01*
X107041134Y-92742141D01*
X106890000Y-92711536D01*
X106090000Y-92711536D01*
X105948810Y-92738103D01*
X105819135Y-92821546D01*
X105732141Y-92948866D01*
X105701536Y-93100000D01*
X105701536Y-93170044D01*
X105278464Y-93593116D01*
X105278464Y-93100000D01*
X105251897Y-92958810D01*
X105168454Y-92829135D01*
X105041134Y-92742141D01*
X104890000Y-92711536D01*
X104090000Y-92711536D01*
X103948810Y-92738103D01*
X103819135Y-92821546D01*
X103732141Y-92948866D01*
X103723406Y-92992000D01*
X103220000Y-92992000D01*
X103025597Y-93030669D01*
X102860790Y-93140790D01*
X102510044Y-93491536D01*
X101140000Y-93491536D01*
X100998810Y-93518103D01*
X100869135Y-93601546D01*
X100782141Y-93728866D01*
X100751536Y-93880000D01*
X100751536Y-95250044D01*
X100481000Y-95520580D01*
X100481000Y-92847375D01*
X100513988Y-92681531D01*
X100581097Y-92581096D01*
X100681530Y-92513988D01*
X100847375Y-92481000D01*
X111152625Y-92481000D01*
X111318469Y-92513988D01*
G36*
X103728103Y-94041190D02*
X103811546Y-94170865D01*
X103938866Y-94257859D01*
X104090000Y-94288464D01*
X104583116Y-94288464D01*
X104560044Y-94311536D01*
X104090000Y-94311536D01*
X103948810Y-94338103D01*
X103819135Y-94421546D01*
X103732141Y-94548866D01*
X103701536Y-94700000D01*
X103701536Y-95492000D01*
X103260000Y-95492000D01*
X103228464Y-95498273D01*
X103228464Y-94209956D01*
X103430420Y-94008000D01*
X103721858Y-94008000D01*
X103728103Y-94041190D01*
X103728103Y-94041190D01*
G37*
X103728103Y-94041190D02*
X103811546Y-94170865D01*
X103938866Y-94257859D01*
X104090000Y-94288464D01*
X104583116Y-94288464D01*
X104560044Y-94311536D01*
X104090000Y-94311536D01*
X103948810Y-94338103D01*
X103819135Y-94421546D01*
X103732141Y-94548866D01*
X103701536Y-94700000D01*
X103701536Y-95492000D01*
X103260000Y-95492000D01*
X103228464Y-95498273D01*
X103228464Y-94209956D01*
X103430420Y-94008000D01*
X103721858Y-94008000D01*
X103728103Y-94041190D01*
G36*
X109701536Y-94700000D02*
X109701536Y-95170044D01*
X109379580Y-95492000D01*
X109278464Y-95492000D01*
X109278464Y-95029956D01*
X109725180Y-94583240D01*
X109701536Y-94700000D01*
X109701536Y-94700000D01*
G37*
X109701536Y-94700000D02*
X109701536Y-95170044D01*
X109379580Y-95492000D01*
X109278464Y-95492000D01*
X109278464Y-95029956D01*
X109725180Y-94583240D01*
X109701536Y-94700000D01*
G36*
X107701536Y-94700000D02*
X107701536Y-95492000D01*
X107278464Y-95492000D01*
X107278464Y-95029956D01*
X107725180Y-94583240D01*
X107701536Y-94700000D01*
X107701536Y-94700000D01*
G37*
X107701536Y-94700000D02*
X107701536Y-95492000D01*
X107278464Y-95492000D01*
X107278464Y-95029956D01*
X107725180Y-94583240D01*
X107701536Y-94700000D01*
G36*
X105701536Y-94700000D02*
X105701536Y-95492000D01*
X105278464Y-95492000D01*
X105278464Y-95029956D01*
X105725180Y-94583240D01*
X105701536Y-94700000D01*
X105701536Y-94700000D01*
G37*
X105701536Y-94700000D02*
X105701536Y-95492000D01*
X105278464Y-95492000D01*
X105278464Y-95029956D01*
X105725180Y-94583240D01*
X105701536Y-94700000D01*
G36*
X108090000Y-94288464D02*
X108583116Y-94288464D01*
X108560044Y-94311536D01*
X108090000Y-94311536D01*
X107975302Y-94333118D01*
X108031751Y-94276669D01*
X108090000Y-94288464D01*
X108090000Y-94288464D01*
G37*
X108090000Y-94288464D02*
X108583116Y-94288464D01*
X108560044Y-94311536D01*
X108090000Y-94311536D01*
X107975302Y-94333118D01*
X108031751Y-94276669D01*
X108090000Y-94288464D01*
G36*
X106090000Y-94288464D02*
X106583116Y-94288464D01*
X106560044Y-94311536D01*
X106090000Y-94311536D01*
X105975302Y-94333118D01*
X106031751Y-94276669D01*
X106090000Y-94288464D01*
X106090000Y-94288464D01*
G37*
X106090000Y-94288464D02*
X106583116Y-94288464D01*
X106560044Y-94311536D01*
X106090000Y-94311536D01*
X105975302Y-94333118D01*
X106031751Y-94276669D01*
X106090000Y-94288464D01*
M02*
