G04 #@! TF.FileFunction,Copper,L2,Bot,Signal*
%FSLAX46Y46*%
G04 Gerber Fmt 4.6, Leading zero omitted, Abs format (unit mm)*
G04 Created by KiCad (PCBNEW 4.0.6) date 07/26/17 22:27:42*
%MOMM*%
%LPD*%
G01*
G04 APERTURE LIST*
%ADD10C,0.100000*%
%ADD11C,0.010000*%
%ADD12R,1.700000X1.700000*%
%ADD13O,1.700000X1.700000*%
%ADD14C,0.254000*%
G04 APERTURE END LIST*
D10*
D11*
G36*
X112536640Y-96952468D02*
X112501408Y-96969874D01*
X112457960Y-97000206D01*
X112426294Y-97033283D01*
X112404606Y-97074817D01*
X112391097Y-97130522D01*
X112383962Y-97206111D01*
X112381400Y-97307296D01*
X112381250Y-97350797D01*
X112381688Y-97446135D01*
X112383504Y-97514271D01*
X112387455Y-97561418D01*
X112394298Y-97593790D01*
X112404789Y-97617600D01*
X112415704Y-97633843D01*
X112485381Y-97702952D01*
X112567434Y-97744521D01*
X112655950Y-97757023D01*
X112745019Y-97738934D01*
X112773237Y-97726142D01*
X112840790Y-97690931D01*
X112840790Y-98242700D01*
X112791488Y-98217205D01*
X112726527Y-98197480D01*
X112646680Y-98192427D01*
X112566948Y-98201756D01*
X112506735Y-98222714D01*
X112456792Y-98262627D01*
X112414119Y-98319741D01*
X112410910Y-98325605D01*
X112397378Y-98353227D01*
X112387495Y-98381068D01*
X112380691Y-98414794D01*
X112376399Y-98460071D01*
X112374049Y-98522562D01*
X112373072Y-98607935D01*
X112372895Y-98704010D01*
X112372895Y-99010526D01*
X112556711Y-99010526D01*
X112556711Y-98445339D01*
X112608125Y-98402077D01*
X112661534Y-98367472D01*
X112712112Y-98361180D01*
X112762970Y-98377372D01*
X112790075Y-98393227D01*
X112810249Y-98415810D01*
X112824597Y-98449940D01*
X112834224Y-98500434D01*
X112840237Y-98572111D01*
X112843740Y-98669788D01*
X112844974Y-98734802D01*
X112849145Y-99002171D01*
X112936875Y-99007222D01*
X113024606Y-99012273D01*
X113024606Y-97353101D01*
X112840790Y-97353101D01*
X112836104Y-97445600D01*
X112820312Y-97509809D01*
X112790817Y-97549759D01*
X112745020Y-97569480D01*
X112698750Y-97573421D01*
X112646372Y-97568892D01*
X112611610Y-97551069D01*
X112589872Y-97527519D01*
X112572760Y-97502189D01*
X112562573Y-97473969D01*
X112558040Y-97434431D01*
X112557891Y-97375142D01*
X112559416Y-97325498D01*
X112562919Y-97250710D01*
X112568133Y-97201611D01*
X112576913Y-97170467D01*
X112591114Y-97149545D01*
X112604516Y-97137452D01*
X112660513Y-97111081D01*
X112726789Y-97106822D01*
X112764844Y-97115906D01*
X112802523Y-97148196D01*
X112827481Y-97211006D01*
X112839578Y-97303894D01*
X112840790Y-97353101D01*
X113024606Y-97353101D01*
X113024606Y-96938421D01*
X112932698Y-96938421D01*
X112877517Y-96940603D01*
X112849048Y-96948351D01*
X112840794Y-96963468D01*
X112840790Y-96963916D01*
X112836960Y-96978720D01*
X112820067Y-96977039D01*
X112786481Y-96960772D01*
X112708222Y-96935887D01*
X112620173Y-96933271D01*
X112536640Y-96952468D01*
X112536640Y-96952468D01*
G37*
X112536640Y-96952468D02*
X112501408Y-96969874D01*
X112457960Y-97000206D01*
X112426294Y-97033283D01*
X112404606Y-97074817D01*
X112391097Y-97130522D01*
X112383962Y-97206111D01*
X112381400Y-97307296D01*
X112381250Y-97350797D01*
X112381688Y-97446135D01*
X112383504Y-97514271D01*
X112387455Y-97561418D01*
X112394298Y-97593790D01*
X112404789Y-97617600D01*
X112415704Y-97633843D01*
X112485381Y-97702952D01*
X112567434Y-97744521D01*
X112655950Y-97757023D01*
X112745019Y-97738934D01*
X112773237Y-97726142D01*
X112840790Y-97690931D01*
X112840790Y-98242700D01*
X112791488Y-98217205D01*
X112726527Y-98197480D01*
X112646680Y-98192427D01*
X112566948Y-98201756D01*
X112506735Y-98222714D01*
X112456792Y-98262627D01*
X112414119Y-98319741D01*
X112410910Y-98325605D01*
X112397378Y-98353227D01*
X112387495Y-98381068D01*
X112380691Y-98414794D01*
X112376399Y-98460071D01*
X112374049Y-98522562D01*
X112373072Y-98607935D01*
X112372895Y-98704010D01*
X112372895Y-99010526D01*
X112556711Y-99010526D01*
X112556711Y-98445339D01*
X112608125Y-98402077D01*
X112661534Y-98367472D01*
X112712112Y-98361180D01*
X112762970Y-98377372D01*
X112790075Y-98393227D01*
X112810249Y-98415810D01*
X112824597Y-98449940D01*
X112834224Y-98500434D01*
X112840237Y-98572111D01*
X112843740Y-98669788D01*
X112844974Y-98734802D01*
X112849145Y-99002171D01*
X112936875Y-99007222D01*
X113024606Y-99012273D01*
X113024606Y-97353101D01*
X112840790Y-97353101D01*
X112836104Y-97445600D01*
X112820312Y-97509809D01*
X112790817Y-97549759D01*
X112745020Y-97569480D01*
X112698750Y-97573421D01*
X112646372Y-97568892D01*
X112611610Y-97551069D01*
X112589872Y-97527519D01*
X112572760Y-97502189D01*
X112562573Y-97473969D01*
X112558040Y-97434431D01*
X112557891Y-97375142D01*
X112559416Y-97325498D01*
X112562919Y-97250710D01*
X112568133Y-97201611D01*
X112576913Y-97170467D01*
X112591114Y-97149545D01*
X112604516Y-97137452D01*
X112660513Y-97111081D01*
X112726789Y-97106822D01*
X112764844Y-97115906D01*
X112802523Y-97148196D01*
X112827481Y-97211006D01*
X112839578Y-97303894D01*
X112840790Y-97353101D01*
X113024606Y-97353101D01*
X113024606Y-96938421D01*
X112932698Y-96938421D01*
X112877517Y-96940603D01*
X112849048Y-96948351D01*
X112840794Y-96963468D01*
X112840790Y-96963916D01*
X112836960Y-96978720D01*
X112820067Y-96977039D01*
X112786481Y-96960772D01*
X112708222Y-96935887D01*
X112620173Y-96933271D01*
X112536640Y-96952468D01*
G36*
X111839543Y-98198184D02*
X111760930Y-98219160D01*
X111701084Y-98257180D01*
X111658853Y-98306978D01*
X111645725Y-98328230D01*
X111636032Y-98350492D01*
X111629256Y-98378970D01*
X111624877Y-98418871D01*
X111622376Y-98475401D01*
X111621232Y-98553767D01*
X111620928Y-98659176D01*
X111620922Y-98687142D01*
X111620922Y-99010526D01*
X111701132Y-99010526D01*
X111752294Y-99006943D01*
X111790123Y-98997866D01*
X111799601Y-98992268D01*
X111825512Y-98982606D01*
X111851976Y-98992268D01*
X111895548Y-99004330D01*
X111958840Y-99009185D01*
X112028990Y-99007078D01*
X112093140Y-98998256D01*
X112130593Y-98986937D01*
X112203067Y-98940412D01*
X112248360Y-98875846D01*
X112268722Y-98790000D01*
X112268912Y-98787796D01*
X112267125Y-98749713D01*
X112105527Y-98749713D01*
X112091399Y-98793030D01*
X112068388Y-98817408D01*
X112022196Y-98835845D01*
X111961225Y-98843205D01*
X111899051Y-98839583D01*
X111849249Y-98825074D01*
X111835297Y-98815765D01*
X111810915Y-98772753D01*
X111804737Y-98723857D01*
X111804737Y-98659605D01*
X111897182Y-98659605D01*
X111985005Y-98666366D01*
X112051582Y-98685520D01*
X112092998Y-98715376D01*
X112105527Y-98749713D01*
X112267125Y-98749713D01*
X112264510Y-98694004D01*
X112233576Y-98619847D01*
X112175419Y-98563767D01*
X112167380Y-98558665D01*
X112132837Y-98542055D01*
X112090082Y-98531996D01*
X112030314Y-98527107D01*
X111959310Y-98525983D01*
X111804737Y-98525921D01*
X111804737Y-98461125D01*
X111811294Y-98410850D01*
X111828025Y-98377169D01*
X111829984Y-98375376D01*
X111867217Y-98360642D01*
X111923420Y-98354931D01*
X111985533Y-98357737D01*
X112040490Y-98368556D01*
X112073101Y-98384782D01*
X112090772Y-98397780D01*
X112109431Y-98400262D01*
X112135181Y-98389613D01*
X112174127Y-98363218D01*
X112232370Y-98318465D01*
X112237716Y-98314273D01*
X112234977Y-98298760D01*
X112212124Y-98272960D01*
X112177391Y-98244289D01*
X112139010Y-98220166D01*
X112126952Y-98214470D01*
X112082966Y-98203103D01*
X112018513Y-98194995D01*
X111946503Y-98191743D01*
X111943136Y-98191736D01*
X111839543Y-98198184D01*
X111839543Y-98198184D01*
G37*
X111839543Y-98198184D02*
X111760930Y-98219160D01*
X111701084Y-98257180D01*
X111658853Y-98306978D01*
X111645725Y-98328230D01*
X111636032Y-98350492D01*
X111629256Y-98378970D01*
X111624877Y-98418871D01*
X111622376Y-98475401D01*
X111621232Y-98553767D01*
X111620928Y-98659176D01*
X111620922Y-98687142D01*
X111620922Y-99010526D01*
X111701132Y-99010526D01*
X111752294Y-99006943D01*
X111790123Y-98997866D01*
X111799601Y-98992268D01*
X111825512Y-98982606D01*
X111851976Y-98992268D01*
X111895548Y-99004330D01*
X111958840Y-99009185D01*
X112028990Y-99007078D01*
X112093140Y-98998256D01*
X112130593Y-98986937D01*
X112203067Y-98940412D01*
X112248360Y-98875846D01*
X112268722Y-98790000D01*
X112268912Y-98787796D01*
X112267125Y-98749713D01*
X112105527Y-98749713D01*
X112091399Y-98793030D01*
X112068388Y-98817408D01*
X112022196Y-98835845D01*
X111961225Y-98843205D01*
X111899051Y-98839583D01*
X111849249Y-98825074D01*
X111835297Y-98815765D01*
X111810915Y-98772753D01*
X111804737Y-98723857D01*
X111804737Y-98659605D01*
X111897182Y-98659605D01*
X111985005Y-98666366D01*
X112051582Y-98685520D01*
X112092998Y-98715376D01*
X112105527Y-98749713D01*
X112267125Y-98749713D01*
X112264510Y-98694004D01*
X112233576Y-98619847D01*
X112175419Y-98563767D01*
X112167380Y-98558665D01*
X112132837Y-98542055D01*
X112090082Y-98531996D01*
X112030314Y-98527107D01*
X111959310Y-98525983D01*
X111804737Y-98525921D01*
X111804737Y-98461125D01*
X111811294Y-98410850D01*
X111828025Y-98377169D01*
X111829984Y-98375376D01*
X111867217Y-98360642D01*
X111923420Y-98354931D01*
X111985533Y-98357737D01*
X112040490Y-98368556D01*
X112073101Y-98384782D01*
X112090772Y-98397780D01*
X112109431Y-98400262D01*
X112135181Y-98389613D01*
X112174127Y-98363218D01*
X112232370Y-98318465D01*
X112237716Y-98314273D01*
X112234977Y-98298760D01*
X112212124Y-98272960D01*
X112177391Y-98244289D01*
X112139010Y-98220166D01*
X112126952Y-98214470D01*
X112082966Y-98203103D01*
X112018513Y-98194995D01*
X111946503Y-98191743D01*
X111943136Y-98191736D01*
X111839543Y-98198184D01*
G36*
X111320119Y-98193486D02*
X111295112Y-98200982D01*
X111287050Y-98217451D01*
X111286711Y-98224886D01*
X111285264Y-98245594D01*
X111275302Y-98248845D01*
X111248388Y-98234648D01*
X111232402Y-98224948D01*
X111181967Y-98204175D01*
X111121728Y-98193904D01*
X111058566Y-98193114D01*
X110999363Y-98200786D01*
X110950998Y-98215898D01*
X110920354Y-98237432D01*
X110914311Y-98264366D01*
X110917361Y-98271660D01*
X110939594Y-98301937D01*
X110974070Y-98339175D01*
X110980306Y-98345195D01*
X111013167Y-98372875D01*
X111041520Y-98381818D01*
X111081173Y-98375576D01*
X111097058Y-98371429D01*
X111146491Y-98361467D01*
X111181248Y-98365947D01*
X111210600Y-98381746D01*
X111237487Y-98402949D01*
X111257290Y-98429614D01*
X111271052Y-98466827D01*
X111279816Y-98519673D01*
X111284626Y-98593237D01*
X111286526Y-98692605D01*
X111286711Y-98752601D01*
X111286711Y-99010526D01*
X111453816Y-99010526D01*
X111453816Y-98191710D01*
X111370264Y-98191710D01*
X111320119Y-98193486D01*
X111320119Y-98193486D01*
G37*
X111320119Y-98193486D02*
X111295112Y-98200982D01*
X111287050Y-98217451D01*
X111286711Y-98224886D01*
X111285264Y-98245594D01*
X111275302Y-98248845D01*
X111248388Y-98234648D01*
X111232402Y-98224948D01*
X111181967Y-98204175D01*
X111121728Y-98193904D01*
X111058566Y-98193114D01*
X110999363Y-98200786D01*
X110950998Y-98215898D01*
X110920354Y-98237432D01*
X110914311Y-98264366D01*
X110917361Y-98271660D01*
X110939594Y-98301937D01*
X110974070Y-98339175D01*
X110980306Y-98345195D01*
X111013167Y-98372875D01*
X111041520Y-98381818D01*
X111081173Y-98375576D01*
X111097058Y-98371429D01*
X111146491Y-98361467D01*
X111181248Y-98365947D01*
X111210600Y-98381746D01*
X111237487Y-98402949D01*
X111257290Y-98429614D01*
X111271052Y-98466827D01*
X111279816Y-98519673D01*
X111284626Y-98593237D01*
X111286526Y-98692605D01*
X111286711Y-98752601D01*
X111286711Y-99010526D01*
X111453816Y-99010526D01*
X111453816Y-98191710D01*
X111370264Y-98191710D01*
X111320119Y-98193486D01*
G36*
X110267369Y-99010526D02*
X110359277Y-99010526D01*
X110412623Y-99008962D01*
X110440407Y-99002485D01*
X110450410Y-98988418D01*
X110451185Y-98978906D01*
X110452872Y-98959832D01*
X110463510Y-98956174D01*
X110491465Y-98967932D01*
X110513205Y-98978906D01*
X110596668Y-99004911D01*
X110687396Y-99006416D01*
X110761158Y-98987021D01*
X110829846Y-98940165D01*
X110882206Y-98871004D01*
X110910878Y-98789427D01*
X110911608Y-98784866D01*
X110915868Y-98735101D01*
X110917986Y-98663659D01*
X110917816Y-98609626D01*
X110735280Y-98609626D01*
X110731051Y-98681441D01*
X110721432Y-98740634D01*
X110708410Y-98774060D01*
X110659144Y-98819740D01*
X110600650Y-98836115D01*
X110540329Y-98822873D01*
X110488783Y-98783373D01*
X110469262Y-98756807D01*
X110457848Y-98725106D01*
X110452502Y-98678832D01*
X110451185Y-98609328D01*
X110453542Y-98540499D01*
X110459767Y-98480026D01*
X110468592Y-98439556D01*
X110470063Y-98435929D01*
X110505653Y-98392802D01*
X110557600Y-98369124D01*
X110615722Y-98365301D01*
X110669840Y-98381738D01*
X110709774Y-98418840D01*
X110713917Y-98426222D01*
X110726884Y-98471239D01*
X110733948Y-98535967D01*
X110735280Y-98609626D01*
X110917816Y-98609626D01*
X110917729Y-98582230D01*
X110916528Y-98538405D01*
X110908355Y-98429988D01*
X110891370Y-98348588D01*
X110863113Y-98288412D01*
X110821128Y-98243666D01*
X110780368Y-98217400D01*
X110723419Y-98198935D01*
X110652589Y-98192602D01*
X110580059Y-98197760D01*
X110518014Y-98213769D01*
X110485232Y-98232920D01*
X110451185Y-98263732D01*
X110451185Y-97874210D01*
X110267369Y-97874210D01*
X110267369Y-99010526D01*
X110267369Y-99010526D01*
G37*
X110267369Y-99010526D02*
X110359277Y-99010526D01*
X110412623Y-99008962D01*
X110440407Y-99002485D01*
X110450410Y-98988418D01*
X110451185Y-98978906D01*
X110452872Y-98959832D01*
X110463510Y-98956174D01*
X110491465Y-98967932D01*
X110513205Y-98978906D01*
X110596668Y-99004911D01*
X110687396Y-99006416D01*
X110761158Y-98987021D01*
X110829846Y-98940165D01*
X110882206Y-98871004D01*
X110910878Y-98789427D01*
X110911608Y-98784866D01*
X110915868Y-98735101D01*
X110917986Y-98663659D01*
X110917816Y-98609626D01*
X110735280Y-98609626D01*
X110731051Y-98681441D01*
X110721432Y-98740634D01*
X110708410Y-98774060D01*
X110659144Y-98819740D01*
X110600650Y-98836115D01*
X110540329Y-98822873D01*
X110488783Y-98783373D01*
X110469262Y-98756807D01*
X110457848Y-98725106D01*
X110452502Y-98678832D01*
X110451185Y-98609328D01*
X110453542Y-98540499D01*
X110459767Y-98480026D01*
X110468592Y-98439556D01*
X110470063Y-98435929D01*
X110505653Y-98392802D01*
X110557600Y-98369124D01*
X110615722Y-98365301D01*
X110669840Y-98381738D01*
X110709774Y-98418840D01*
X110713917Y-98426222D01*
X110726884Y-98471239D01*
X110733948Y-98535967D01*
X110735280Y-98609626D01*
X110917816Y-98609626D01*
X110917729Y-98582230D01*
X110916528Y-98538405D01*
X110908355Y-98429988D01*
X110891370Y-98348588D01*
X110863113Y-98288412D01*
X110821128Y-98243666D01*
X110780368Y-98217400D01*
X110723419Y-98198935D01*
X110652589Y-98192602D01*
X110580059Y-98197760D01*
X110518014Y-98213769D01*
X110485232Y-98232920D01*
X110451185Y-98263732D01*
X110451185Y-97874210D01*
X110267369Y-97874210D01*
X110267369Y-99010526D01*
G36*
X109625870Y-98195104D02*
X109559780Y-98200066D01*
X109473374Y-98459079D01*
X109386969Y-98718092D01*
X109359876Y-98626184D01*
X109343572Y-98569384D01*
X109322125Y-98492625D01*
X109298965Y-98408251D01*
X109286720Y-98362993D01*
X109240656Y-98191710D01*
X109050613Y-98191710D01*
X109107418Y-98371349D01*
X109135393Y-98459704D01*
X109169187Y-98566281D01*
X109204480Y-98677454D01*
X109235987Y-98776579D01*
X109307750Y-99002171D01*
X109462714Y-99012253D01*
X109504730Y-98873528D01*
X109530641Y-98787351D01*
X109558917Y-98692347D01*
X109583631Y-98608441D01*
X109584606Y-98605102D01*
X109603065Y-98548248D01*
X109619351Y-98509456D01*
X109630758Y-98494787D01*
X109633102Y-98496483D01*
X109641329Y-98519225D01*
X109656962Y-98567940D01*
X109678096Y-98636502D01*
X109702830Y-98718785D01*
X109716213Y-98764046D01*
X109788689Y-99010526D01*
X109942505Y-99010526D01*
X110065469Y-98622006D01*
X110100012Y-98513022D01*
X110131479Y-98414048D01*
X110158384Y-98329736D01*
X110179241Y-98264734D01*
X110192562Y-98223692D01*
X110196612Y-98211701D01*
X110193406Y-98199423D01*
X110168235Y-98194046D01*
X110115854Y-98194584D01*
X110107655Y-98194990D01*
X110010518Y-98200066D01*
X109946900Y-98434013D01*
X109923516Y-98519333D01*
X109902619Y-98594335D01*
X109886049Y-98652507D01*
X109875646Y-98687337D01*
X109873724Y-98693016D01*
X109865759Y-98686486D01*
X109849696Y-98652654D01*
X109827379Y-98596127D01*
X109800655Y-98521510D01*
X109778063Y-98454107D01*
X109691959Y-98190143D01*
X109625870Y-98195104D01*
X109625870Y-98195104D01*
G37*
X109625870Y-98195104D02*
X109559780Y-98200066D01*
X109473374Y-98459079D01*
X109386969Y-98718092D01*
X109359876Y-98626184D01*
X109343572Y-98569384D01*
X109322125Y-98492625D01*
X109298965Y-98408251D01*
X109286720Y-98362993D01*
X109240656Y-98191710D01*
X109050613Y-98191710D01*
X109107418Y-98371349D01*
X109135393Y-98459704D01*
X109169187Y-98566281D01*
X109204480Y-98677454D01*
X109235987Y-98776579D01*
X109307750Y-99002171D01*
X109462714Y-99012253D01*
X109504730Y-98873528D01*
X109530641Y-98787351D01*
X109558917Y-98692347D01*
X109583631Y-98608441D01*
X109584606Y-98605102D01*
X109603065Y-98548248D01*
X109619351Y-98509456D01*
X109630758Y-98494787D01*
X109633102Y-98496483D01*
X109641329Y-98519225D01*
X109656962Y-98567940D01*
X109678096Y-98636502D01*
X109702830Y-98718785D01*
X109716213Y-98764046D01*
X109788689Y-99010526D01*
X109942505Y-99010526D01*
X110065469Y-98622006D01*
X110100012Y-98513022D01*
X110131479Y-98414048D01*
X110158384Y-98329736D01*
X110179241Y-98264734D01*
X110192562Y-98223692D01*
X110196612Y-98211701D01*
X110193406Y-98199423D01*
X110168235Y-98194046D01*
X110115854Y-98194584D01*
X110107655Y-98194990D01*
X110010518Y-98200066D01*
X109946900Y-98434013D01*
X109923516Y-98519333D01*
X109902619Y-98594335D01*
X109886049Y-98652507D01*
X109875646Y-98687337D01*
X109873724Y-98693016D01*
X109865759Y-98686486D01*
X109849696Y-98652654D01*
X109827379Y-98596127D01*
X109800655Y-98521510D01*
X109778063Y-98454107D01*
X109691959Y-98190143D01*
X109625870Y-98195104D01*
G36*
X108620008Y-98196673D02*
X108549573Y-98213780D01*
X108529213Y-98222844D01*
X108489747Y-98246583D01*
X108459459Y-98273321D01*
X108437048Y-98307699D01*
X108421214Y-98354360D01*
X108410657Y-98417946D01*
X108404076Y-98503099D01*
X108400172Y-98614462D01*
X108398690Y-98688849D01*
X108393235Y-99010526D01*
X108486420Y-99010526D01*
X108542953Y-99008156D01*
X108572078Y-99000055D01*
X108579606Y-98986451D01*
X108583580Y-98971741D01*
X108601348Y-98974554D01*
X108625560Y-98986348D01*
X108686172Y-99004427D01*
X108764071Y-99009299D01*
X108846005Y-99001330D01*
X108918719Y-98980889D01*
X108925241Y-98978051D01*
X108991698Y-98931365D01*
X109035509Y-98866464D01*
X109055668Y-98790600D01*
X109054128Y-98763344D01*
X108889655Y-98763344D01*
X108875163Y-98800024D01*
X108832195Y-98826309D01*
X108762871Y-98840417D01*
X108725823Y-98842290D01*
X108664081Y-98837494D01*
X108623040Y-98818858D01*
X108613027Y-98810000D01*
X108585900Y-98761806D01*
X108579606Y-98718092D01*
X108579606Y-98659605D01*
X108661070Y-98659605D01*
X108755766Y-98664432D01*
X108822187Y-98679613D01*
X108864154Y-98706200D01*
X108873551Y-98718052D01*
X108889655Y-98763344D01*
X109054128Y-98763344D01*
X109051171Y-98711026D01*
X109021015Y-98634995D01*
X108979869Y-98583612D01*
X108954948Y-98561397D01*
X108930552Y-98546798D01*
X108898809Y-98537897D01*
X108851848Y-98532775D01*
X108781796Y-98529515D01*
X108754010Y-98528577D01*
X108579606Y-98522879D01*
X108579862Y-98470091D01*
X108586616Y-98414603D01*
X108611036Y-98381052D01*
X108660370Y-98359618D01*
X108661694Y-98359236D01*
X108731640Y-98350808D01*
X108800086Y-98361816D01*
X108850953Y-98388585D01*
X108871363Y-98401803D01*
X108893346Y-98399974D01*
X108927174Y-98380824D01*
X108947039Y-98367308D01*
X108985894Y-98338432D01*
X109009962Y-98316786D01*
X109013824Y-98310589D01*
X108997921Y-98278519D01*
X108950935Y-98240219D01*
X108930527Y-98227297D01*
X108871857Y-98205041D01*
X108792788Y-98192432D01*
X108704959Y-98189600D01*
X108620008Y-98196673D01*
X108620008Y-98196673D01*
G37*
X108620008Y-98196673D02*
X108549573Y-98213780D01*
X108529213Y-98222844D01*
X108489747Y-98246583D01*
X108459459Y-98273321D01*
X108437048Y-98307699D01*
X108421214Y-98354360D01*
X108410657Y-98417946D01*
X108404076Y-98503099D01*
X108400172Y-98614462D01*
X108398690Y-98688849D01*
X108393235Y-99010526D01*
X108486420Y-99010526D01*
X108542953Y-99008156D01*
X108572078Y-99000055D01*
X108579606Y-98986451D01*
X108583580Y-98971741D01*
X108601348Y-98974554D01*
X108625560Y-98986348D01*
X108686172Y-99004427D01*
X108764071Y-99009299D01*
X108846005Y-99001330D01*
X108918719Y-98980889D01*
X108925241Y-98978051D01*
X108991698Y-98931365D01*
X109035509Y-98866464D01*
X109055668Y-98790600D01*
X109054128Y-98763344D01*
X108889655Y-98763344D01*
X108875163Y-98800024D01*
X108832195Y-98826309D01*
X108762871Y-98840417D01*
X108725823Y-98842290D01*
X108664081Y-98837494D01*
X108623040Y-98818858D01*
X108613027Y-98810000D01*
X108585900Y-98761806D01*
X108579606Y-98718092D01*
X108579606Y-98659605D01*
X108661070Y-98659605D01*
X108755766Y-98664432D01*
X108822187Y-98679613D01*
X108864154Y-98706200D01*
X108873551Y-98718052D01*
X108889655Y-98763344D01*
X109054128Y-98763344D01*
X109051171Y-98711026D01*
X109021015Y-98634995D01*
X108979869Y-98583612D01*
X108954948Y-98561397D01*
X108930552Y-98546798D01*
X108898809Y-98537897D01*
X108851848Y-98532775D01*
X108781796Y-98529515D01*
X108754010Y-98528577D01*
X108579606Y-98522879D01*
X108579862Y-98470091D01*
X108586616Y-98414603D01*
X108611036Y-98381052D01*
X108660370Y-98359618D01*
X108661694Y-98359236D01*
X108731640Y-98350808D01*
X108800086Y-98361816D01*
X108850953Y-98388585D01*
X108871363Y-98401803D01*
X108893346Y-98399974D01*
X108927174Y-98380824D01*
X108947039Y-98367308D01*
X108985894Y-98338432D01*
X109009962Y-98316786D01*
X109013824Y-98310589D01*
X108997921Y-98278519D01*
X108950935Y-98240219D01*
X108930527Y-98227297D01*
X108871857Y-98205041D01*
X108792788Y-98192432D01*
X108704959Y-98189600D01*
X108620008Y-98196673D01*
G36*
X107826833Y-98191447D02*
X107762592Y-98204112D01*
X107726020Y-98222864D01*
X107687547Y-98254017D01*
X107742283Y-98323127D01*
X107776031Y-98364979D01*
X107798947Y-98385398D01*
X107821721Y-98388517D01*
X107855044Y-98378472D01*
X107870686Y-98372789D01*
X107934458Y-98364404D01*
X107992860Y-98382378D01*
X108035736Y-98422982D01*
X108042701Y-98435929D01*
X108050287Y-98470224D01*
X108056141Y-98533427D01*
X108059989Y-98621060D01*
X108061557Y-98728640D01*
X108061579Y-98743944D01*
X108061579Y-99010526D01*
X108245395Y-99010526D01*
X108245395Y-98191710D01*
X108153487Y-98191710D01*
X108100493Y-98193094D01*
X108072885Y-98199252D01*
X108062676Y-98213194D01*
X108061579Y-98226344D01*
X108061579Y-98260978D01*
X108017550Y-98226344D01*
X107967063Y-98202716D01*
X107899240Y-98191033D01*
X107826833Y-98191447D01*
X107826833Y-98191447D01*
G37*
X107826833Y-98191447D02*
X107762592Y-98204112D01*
X107726020Y-98222864D01*
X107687547Y-98254017D01*
X107742283Y-98323127D01*
X107776031Y-98364979D01*
X107798947Y-98385398D01*
X107821721Y-98388517D01*
X107855044Y-98378472D01*
X107870686Y-98372789D01*
X107934458Y-98364404D01*
X107992860Y-98382378D01*
X108035736Y-98422982D01*
X108042701Y-98435929D01*
X108050287Y-98470224D01*
X108056141Y-98533427D01*
X108059989Y-98621060D01*
X108061557Y-98728640D01*
X108061579Y-98743944D01*
X108061579Y-99010526D01*
X108245395Y-99010526D01*
X108245395Y-98191710D01*
X108153487Y-98191710D01*
X108100493Y-98193094D01*
X108072885Y-98199252D01*
X108062676Y-98213194D01*
X108061579Y-98226344D01*
X108061579Y-98260978D01*
X108017550Y-98226344D01*
X107967063Y-98202716D01*
X107899240Y-98191033D01*
X107826833Y-98191447D01*
G36*
X107298807Y-98196078D02*
X107218932Y-98216845D01*
X107152038Y-98259705D01*
X107119649Y-98291723D01*
X107066555Y-98367413D01*
X107036127Y-98455216D01*
X107025673Y-98563150D01*
X107025620Y-98571875D01*
X107025527Y-98659605D01*
X107530466Y-98659605D01*
X107519702Y-98705559D01*
X107500268Y-98747178D01*
X107466255Y-98790544D01*
X107459140Y-98797467D01*
X107397997Y-98834935D01*
X107328271Y-98841289D01*
X107248013Y-98816638D01*
X107234408Y-98810000D01*
X107192681Y-98789819D01*
X107164732Y-98778321D01*
X107159855Y-98777258D01*
X107142832Y-98787583D01*
X107110367Y-98812845D01*
X107093886Y-98826650D01*
X107059736Y-98858361D01*
X107048522Y-98879299D01*
X107056305Y-98898560D01*
X107060465Y-98903827D01*
X107088643Y-98926878D01*
X107135138Y-98954892D01*
X107167566Y-98971246D01*
X107259615Y-99000059D01*
X107361524Y-99009395D01*
X107458037Y-98998332D01*
X107485066Y-98990412D01*
X107568724Y-98945581D01*
X107630734Y-98876598D01*
X107671455Y-98782794D01*
X107691245Y-98663498D01*
X107693418Y-98601118D01*
X107687074Y-98510298D01*
X107526843Y-98510298D01*
X107511345Y-98517012D01*
X107469688Y-98522280D01*
X107409124Y-98525389D01*
X107368093Y-98525921D01*
X107294289Y-98525408D01*
X107247707Y-98523006D01*
X107222152Y-98517422D01*
X107211431Y-98507361D01*
X107209343Y-98492763D01*
X107223669Y-98447796D01*
X107259738Y-98403353D01*
X107307185Y-98369242D01*
X107354651Y-98355288D01*
X107419121Y-98367666D01*
X107474930Y-98403452D01*
X107513626Y-98455033D01*
X107526843Y-98510298D01*
X107687074Y-98510298D01*
X107684179Y-98468866D01*
X107655664Y-98363498D01*
X107607271Y-98284178D01*
X107538396Y-98230071D01*
X107448435Y-98200343D01*
X107399700Y-98194618D01*
X107298807Y-98196078D01*
X107298807Y-98196078D01*
G37*
X107298807Y-98196078D02*
X107218932Y-98216845D01*
X107152038Y-98259705D01*
X107119649Y-98291723D01*
X107066555Y-98367413D01*
X107036127Y-98455216D01*
X107025673Y-98563150D01*
X107025620Y-98571875D01*
X107025527Y-98659605D01*
X107530466Y-98659605D01*
X107519702Y-98705559D01*
X107500268Y-98747178D01*
X107466255Y-98790544D01*
X107459140Y-98797467D01*
X107397997Y-98834935D01*
X107328271Y-98841289D01*
X107248013Y-98816638D01*
X107234408Y-98810000D01*
X107192681Y-98789819D01*
X107164732Y-98778321D01*
X107159855Y-98777258D01*
X107142832Y-98787583D01*
X107110367Y-98812845D01*
X107093886Y-98826650D01*
X107059736Y-98858361D01*
X107048522Y-98879299D01*
X107056305Y-98898560D01*
X107060465Y-98903827D01*
X107088643Y-98926878D01*
X107135138Y-98954892D01*
X107167566Y-98971246D01*
X107259615Y-99000059D01*
X107361524Y-99009395D01*
X107458037Y-98998332D01*
X107485066Y-98990412D01*
X107568724Y-98945581D01*
X107630734Y-98876598D01*
X107671455Y-98782794D01*
X107691245Y-98663498D01*
X107693418Y-98601118D01*
X107687074Y-98510298D01*
X107526843Y-98510298D01*
X107511345Y-98517012D01*
X107469688Y-98522280D01*
X107409124Y-98525389D01*
X107368093Y-98525921D01*
X107294289Y-98525408D01*
X107247707Y-98523006D01*
X107222152Y-98517422D01*
X107211431Y-98507361D01*
X107209343Y-98492763D01*
X107223669Y-98447796D01*
X107259738Y-98403353D01*
X107307185Y-98369242D01*
X107354651Y-98355288D01*
X107419121Y-98367666D01*
X107474930Y-98403452D01*
X107513626Y-98455033D01*
X107526843Y-98510298D01*
X107687074Y-98510298D01*
X107684179Y-98468866D01*
X107655664Y-98363498D01*
X107607271Y-98284178D01*
X107538396Y-98230071D01*
X107448435Y-98200343D01*
X107399700Y-98194618D01*
X107298807Y-98196078D01*
G36*
X113373216Y-96947104D02*
X113285795Y-96985754D01*
X113219430Y-97050290D01*
X113174024Y-97140812D01*
X113149482Y-97257418D01*
X113147723Y-97275624D01*
X113146344Y-97403984D01*
X113164216Y-97516496D01*
X113200250Y-97607688D01*
X113219545Y-97637022D01*
X113286755Y-97699106D01*
X113372350Y-97739316D01*
X113468110Y-97756003D01*
X113565813Y-97747517D01*
X113640083Y-97721380D01*
X113703953Y-97677335D01*
X113756154Y-97619587D01*
X113757057Y-97618236D01*
X113778256Y-97582593D01*
X113792033Y-97546752D01*
X113800376Y-97501519D01*
X113805273Y-97437701D01*
X113807431Y-97385368D01*
X113808329Y-97337910D01*
X113641257Y-97337910D01*
X113639624Y-97385154D01*
X113633696Y-97448046D01*
X113623239Y-97488407D01*
X113604381Y-97517122D01*
X113586719Y-97533896D01*
X113524106Y-97569016D01*
X113458592Y-97573710D01*
X113397579Y-97548440D01*
X113367072Y-97520124D01*
X113345089Y-97491589D01*
X113332231Y-97464284D01*
X113326588Y-97428750D01*
X113326249Y-97375524D01*
X113327988Y-97326506D01*
X113331729Y-97256482D01*
X113337659Y-97211064D01*
X113348347Y-97181440D01*
X113366361Y-97158797D01*
X113380637Y-97145855D01*
X113440349Y-97111860D01*
X113504766Y-97110165D01*
X113558781Y-97130301D01*
X113604860Y-97172352D01*
X113632311Y-97241428D01*
X113641257Y-97337910D01*
X113808329Y-97337910D01*
X113809401Y-97281299D01*
X113806036Y-97203468D01*
X113795955Y-97144930D01*
X113777774Y-97098737D01*
X113750110Y-97057942D01*
X113739854Y-97045828D01*
X113675722Y-96985474D01*
X113606934Y-96950220D01*
X113522811Y-96935450D01*
X113481791Y-96934243D01*
X113373216Y-96947104D01*
X113373216Y-96947104D01*
G37*
X113373216Y-96947104D02*
X113285795Y-96985754D01*
X113219430Y-97050290D01*
X113174024Y-97140812D01*
X113149482Y-97257418D01*
X113147723Y-97275624D01*
X113146344Y-97403984D01*
X113164216Y-97516496D01*
X113200250Y-97607688D01*
X113219545Y-97637022D01*
X113286755Y-97699106D01*
X113372350Y-97739316D01*
X113468110Y-97756003D01*
X113565813Y-97747517D01*
X113640083Y-97721380D01*
X113703953Y-97677335D01*
X113756154Y-97619587D01*
X113757057Y-97618236D01*
X113778256Y-97582593D01*
X113792033Y-97546752D01*
X113800376Y-97501519D01*
X113805273Y-97437701D01*
X113807431Y-97385368D01*
X113808329Y-97337910D01*
X113641257Y-97337910D01*
X113639624Y-97385154D01*
X113633696Y-97448046D01*
X113623239Y-97488407D01*
X113604381Y-97517122D01*
X113586719Y-97533896D01*
X113524106Y-97569016D01*
X113458592Y-97573710D01*
X113397579Y-97548440D01*
X113367072Y-97520124D01*
X113345089Y-97491589D01*
X113332231Y-97464284D01*
X113326588Y-97428750D01*
X113326249Y-97375524D01*
X113327988Y-97326506D01*
X113331729Y-97256482D01*
X113337659Y-97211064D01*
X113348347Y-97181440D01*
X113366361Y-97158797D01*
X113380637Y-97145855D01*
X113440349Y-97111860D01*
X113504766Y-97110165D01*
X113558781Y-97130301D01*
X113604860Y-97172352D01*
X113632311Y-97241428D01*
X113641257Y-97337910D01*
X113808329Y-97337910D01*
X113809401Y-97281299D01*
X113806036Y-97203468D01*
X113795955Y-97144930D01*
X113777774Y-97098737D01*
X113750110Y-97057942D01*
X113739854Y-97045828D01*
X113675722Y-96985474D01*
X113606934Y-96950220D01*
X113522811Y-96935450D01*
X113481791Y-96934243D01*
X113373216Y-96947104D01*
G36*
X111802982Y-96957027D02*
X111786330Y-96964866D01*
X111728695Y-97007086D01*
X111674195Y-97068700D01*
X111633501Y-97136543D01*
X111621926Y-97167734D01*
X111611366Y-97223449D01*
X111605069Y-97290781D01*
X111604304Y-97318585D01*
X111604211Y-97406316D01*
X112109150Y-97406316D01*
X112098387Y-97452270D01*
X112071967Y-97506620D01*
X112025778Y-97553591D01*
X111970828Y-97583848D01*
X111935811Y-97590131D01*
X111888323Y-97582506D01*
X111831665Y-97563383D01*
X111812418Y-97554584D01*
X111741241Y-97519036D01*
X111680498Y-97565367D01*
X111645448Y-97596703D01*
X111626798Y-97622567D01*
X111625853Y-97630158D01*
X111642515Y-97648556D01*
X111679030Y-97676515D01*
X111712172Y-97698327D01*
X111801607Y-97737537D01*
X111901871Y-97755285D01*
X112001246Y-97750670D01*
X112080461Y-97726551D01*
X112162120Y-97674884D01*
X112220151Y-97606856D01*
X112256454Y-97518843D01*
X112272928Y-97407216D01*
X112274389Y-97356138D01*
X112268543Y-97239091D01*
X112267825Y-97235686D01*
X112100511Y-97235686D01*
X112095903Y-97246662D01*
X112076964Y-97252715D01*
X112037902Y-97255310D01*
X111972923Y-97255910D01*
X111947903Y-97255921D01*
X111871779Y-97255014D01*
X111823504Y-97251720D01*
X111797540Y-97245181D01*
X111788352Y-97234537D01*
X111788027Y-97231119D01*
X111798513Y-97203956D01*
X111824758Y-97165903D01*
X111836041Y-97152579D01*
X111877928Y-97114896D01*
X111921591Y-97100080D01*
X111945115Y-97098842D01*
X112008757Y-97114329D01*
X112062127Y-97155930D01*
X112095981Y-97216353D01*
X112096581Y-97218322D01*
X112100511Y-97235686D01*
X112267825Y-97235686D01*
X112249101Y-97146928D01*
X112214078Y-97073190D01*
X112171244Y-97020848D01*
X112092052Y-96964092D01*
X111998960Y-96933762D01*
X111899945Y-96931021D01*
X111802982Y-96957027D01*
X111802982Y-96957027D01*
G37*
X111802982Y-96957027D02*
X111786330Y-96964866D01*
X111728695Y-97007086D01*
X111674195Y-97068700D01*
X111633501Y-97136543D01*
X111621926Y-97167734D01*
X111611366Y-97223449D01*
X111605069Y-97290781D01*
X111604304Y-97318585D01*
X111604211Y-97406316D01*
X112109150Y-97406316D01*
X112098387Y-97452270D01*
X112071967Y-97506620D01*
X112025778Y-97553591D01*
X111970828Y-97583848D01*
X111935811Y-97590131D01*
X111888323Y-97582506D01*
X111831665Y-97563383D01*
X111812418Y-97554584D01*
X111741241Y-97519036D01*
X111680498Y-97565367D01*
X111645448Y-97596703D01*
X111626798Y-97622567D01*
X111625853Y-97630158D01*
X111642515Y-97648556D01*
X111679030Y-97676515D01*
X111712172Y-97698327D01*
X111801607Y-97737537D01*
X111901871Y-97755285D01*
X112001246Y-97750670D01*
X112080461Y-97726551D01*
X112162120Y-97674884D01*
X112220151Y-97606856D01*
X112256454Y-97518843D01*
X112272928Y-97407216D01*
X112274389Y-97356138D01*
X112268543Y-97239091D01*
X112267825Y-97235686D01*
X112100511Y-97235686D01*
X112095903Y-97246662D01*
X112076964Y-97252715D01*
X112037902Y-97255310D01*
X111972923Y-97255910D01*
X111947903Y-97255921D01*
X111871779Y-97255014D01*
X111823504Y-97251720D01*
X111797540Y-97245181D01*
X111788352Y-97234537D01*
X111788027Y-97231119D01*
X111798513Y-97203956D01*
X111824758Y-97165903D01*
X111836041Y-97152579D01*
X111877928Y-97114896D01*
X111921591Y-97100080D01*
X111945115Y-97098842D01*
X112008757Y-97114329D01*
X112062127Y-97155930D01*
X112095981Y-97216353D01*
X112096581Y-97218322D01*
X112100511Y-97235686D01*
X112267825Y-97235686D01*
X112249101Y-97146928D01*
X112214078Y-97073190D01*
X112171244Y-97020848D01*
X112092052Y-96964092D01*
X111998960Y-96933762D01*
X111899945Y-96931021D01*
X111802982Y-96957027D01*
G36*
X109981372Y-96935547D02*
X109918092Y-96947548D01*
X109852443Y-96972648D01*
X109845428Y-96975848D01*
X109795644Y-97002026D01*
X109761166Y-97026353D01*
X109750022Y-97041937D01*
X109760634Y-97067353D01*
X109786412Y-97104853D01*
X109797854Y-97118852D01*
X109845008Y-97173954D01*
X109905799Y-97138086D01*
X109963653Y-97114192D01*
X110030500Y-97101420D01*
X110094606Y-97100613D01*
X110144236Y-97112615D01*
X110156146Y-97120105D01*
X110178828Y-97154450D01*
X110181584Y-97194013D01*
X110164612Y-97224920D01*
X110154573Y-97230913D01*
X110124490Y-97238357D01*
X110071611Y-97247106D01*
X110006425Y-97255467D01*
X109994400Y-97256778D01*
X109889703Y-97274888D01*
X109813768Y-97305651D01*
X109763408Y-97351907D01*
X109735436Y-97416497D01*
X109726722Y-97495387D01*
X109738760Y-97585065D01*
X109777849Y-97655486D01*
X109844145Y-97706777D01*
X109937806Y-97739067D01*
X110041777Y-97751807D01*
X110126562Y-97751654D01*
X110195335Y-97740083D01*
X110242303Y-97724109D01*
X110301650Y-97696275D01*
X110356494Y-97663973D01*
X110375987Y-97649755D01*
X110426119Y-97608835D01*
X110305197Y-97486477D01*
X110236457Y-97531967D01*
X110167512Y-97566133D01*
X110093889Y-97584004D01*
X110023117Y-97585889D01*
X109962726Y-97572101D01*
X109920243Y-97542949D01*
X109906526Y-97518352D01*
X109908583Y-97478904D01*
X109942670Y-97448737D01*
X110008692Y-97427906D01*
X110081026Y-97418279D01*
X110192348Y-97399910D01*
X110275048Y-97365254D01*
X110330235Y-97313297D01*
X110359012Y-97243023D01*
X110362999Y-97159707D01*
X110343307Y-97072681D01*
X110298411Y-97006902D01*
X110227909Y-96962068D01*
X110131399Y-96937879D01*
X110059900Y-96933137D01*
X109981372Y-96935547D01*
X109981372Y-96935547D01*
G37*
X109981372Y-96935547D02*
X109918092Y-96947548D01*
X109852443Y-96972648D01*
X109845428Y-96975848D01*
X109795644Y-97002026D01*
X109761166Y-97026353D01*
X109750022Y-97041937D01*
X109760634Y-97067353D01*
X109786412Y-97104853D01*
X109797854Y-97118852D01*
X109845008Y-97173954D01*
X109905799Y-97138086D01*
X109963653Y-97114192D01*
X110030500Y-97101420D01*
X110094606Y-97100613D01*
X110144236Y-97112615D01*
X110156146Y-97120105D01*
X110178828Y-97154450D01*
X110181584Y-97194013D01*
X110164612Y-97224920D01*
X110154573Y-97230913D01*
X110124490Y-97238357D01*
X110071611Y-97247106D01*
X110006425Y-97255467D01*
X109994400Y-97256778D01*
X109889703Y-97274888D01*
X109813768Y-97305651D01*
X109763408Y-97351907D01*
X109735436Y-97416497D01*
X109726722Y-97495387D01*
X109738760Y-97585065D01*
X109777849Y-97655486D01*
X109844145Y-97706777D01*
X109937806Y-97739067D01*
X110041777Y-97751807D01*
X110126562Y-97751654D01*
X110195335Y-97740083D01*
X110242303Y-97724109D01*
X110301650Y-97696275D01*
X110356494Y-97663973D01*
X110375987Y-97649755D01*
X110426119Y-97608835D01*
X110305197Y-97486477D01*
X110236457Y-97531967D01*
X110167512Y-97566133D01*
X110093889Y-97584004D01*
X110023117Y-97585889D01*
X109962726Y-97572101D01*
X109920243Y-97542949D01*
X109906526Y-97518352D01*
X109908583Y-97478904D01*
X109942670Y-97448737D01*
X110008692Y-97427906D01*
X110081026Y-97418279D01*
X110192348Y-97399910D01*
X110275048Y-97365254D01*
X110330235Y-97313297D01*
X110359012Y-97243023D01*
X110362999Y-97159707D01*
X110343307Y-97072681D01*
X110298411Y-97006902D01*
X110227909Y-96962068D01*
X110131399Y-96937879D01*
X110059900Y-96933137D01*
X109981372Y-96935547D01*
G36*
X109188331Y-96948310D02*
X109103808Y-96994340D01*
X109037679Y-97067006D01*
X109006522Y-97126106D01*
X108993145Y-97178305D01*
X108984478Y-97252719D01*
X108980763Y-97338442D01*
X108982246Y-97424569D01*
X108989169Y-97500193D01*
X108997255Y-97540584D01*
X109024535Y-97595840D01*
X109071780Y-97654530D01*
X109128718Y-97705852D01*
X109185076Y-97739005D01*
X109186450Y-97739531D01*
X109256384Y-97754018D01*
X109339263Y-97754377D01*
X109418023Y-97741188D01*
X109448434Y-97730617D01*
X109526761Y-97686201D01*
X109582857Y-97628007D01*
X109619714Y-97550965D01*
X109640320Y-97450001D01*
X109644982Y-97397116D01*
X109644387Y-97330663D01*
X109465264Y-97330663D01*
X109459230Y-97427630D01*
X109441862Y-97501523D01*
X109414260Y-97548736D01*
X109394596Y-97562237D01*
X109344213Y-97571651D01*
X109284327Y-97568864D01*
X109232551Y-97555316D01*
X109218973Y-97547862D01*
X109183151Y-97504451D01*
X109159507Y-97438014D01*
X109149442Y-97357161D01*
X109154358Y-97270502D01*
X109165345Y-97218349D01*
X109196891Y-97157951D01*
X109246689Y-97120197D01*
X109306663Y-97107143D01*
X109368736Y-97120849D01*
X109416418Y-97154372D01*
X109441475Y-97182031D01*
X109456100Y-97209294D01*
X109463071Y-97246190D01*
X109465167Y-97302750D01*
X109465264Y-97330663D01*
X109644387Y-97330663D01*
X109643718Y-97255994D01*
X109620735Y-97140271D01*
X109576028Y-97049941D01*
X109509595Y-96985000D01*
X109421435Y-96945445D01*
X109402505Y-96940858D01*
X109288734Y-96930090D01*
X109188331Y-96948310D01*
X109188331Y-96948310D01*
G37*
X109188331Y-96948310D02*
X109103808Y-96994340D01*
X109037679Y-97067006D01*
X109006522Y-97126106D01*
X108993145Y-97178305D01*
X108984478Y-97252719D01*
X108980763Y-97338442D01*
X108982246Y-97424569D01*
X108989169Y-97500193D01*
X108997255Y-97540584D01*
X109024535Y-97595840D01*
X109071780Y-97654530D01*
X109128718Y-97705852D01*
X109185076Y-97739005D01*
X109186450Y-97739531D01*
X109256384Y-97754018D01*
X109339263Y-97754377D01*
X109418023Y-97741188D01*
X109448434Y-97730617D01*
X109526761Y-97686201D01*
X109582857Y-97628007D01*
X109619714Y-97550965D01*
X109640320Y-97450001D01*
X109644982Y-97397116D01*
X109644387Y-97330663D01*
X109465264Y-97330663D01*
X109459230Y-97427630D01*
X109441862Y-97501523D01*
X109414260Y-97548736D01*
X109394596Y-97562237D01*
X109344213Y-97571651D01*
X109284327Y-97568864D01*
X109232551Y-97555316D01*
X109218973Y-97547862D01*
X109183151Y-97504451D01*
X109159507Y-97438014D01*
X109149442Y-97357161D01*
X109154358Y-97270502D01*
X109165345Y-97218349D01*
X109196891Y-97157951D01*
X109246689Y-97120197D01*
X109306663Y-97107143D01*
X109368736Y-97120849D01*
X109416418Y-97154372D01*
X109441475Y-97182031D01*
X109456100Y-97209294D01*
X109463071Y-97246190D01*
X109465167Y-97302750D01*
X109465264Y-97330663D01*
X109644387Y-97330663D01*
X109643718Y-97255994D01*
X109620735Y-97140271D01*
X109576028Y-97049941D01*
X109509595Y-96985000D01*
X109421435Y-96945445D01*
X109402505Y-96940858D01*
X109288734Y-96930090D01*
X109188331Y-96948310D01*
G36*
X108679869Y-97198533D02*
X108678290Y-97321089D01*
X108672519Y-97414179D01*
X108661009Y-97481651D01*
X108642210Y-97527355D01*
X108614574Y-97555139D01*
X108576552Y-97568854D01*
X108529474Y-97572358D01*
X108480168Y-97568432D01*
X108442717Y-97554089D01*
X108415572Y-97525478D01*
X108397185Y-97478751D01*
X108386007Y-97410058D01*
X108380489Y-97315550D01*
X108379079Y-97198533D01*
X108379079Y-96938421D01*
X108195264Y-96938421D01*
X108195264Y-97740526D01*
X108287172Y-97740526D01*
X108342578Y-97738281D01*
X108371109Y-97730396D01*
X108379079Y-97715428D01*
X108383880Y-97702097D01*
X108402986Y-97704917D01*
X108441496Y-97723783D01*
X108529761Y-97752887D01*
X108623377Y-97750825D01*
X108713079Y-97719221D01*
X108755796Y-97694257D01*
X108788379Y-97667226D01*
X108812183Y-97633405D01*
X108828561Y-97588068D01*
X108838869Y-97526489D01*
X108844459Y-97443943D01*
X108846688Y-97335705D01*
X108846974Y-97252004D01*
X108846974Y-96938421D01*
X108679869Y-96938421D01*
X108679869Y-97198533D01*
X108679869Y-97198533D01*
G37*
X108679869Y-97198533D02*
X108678290Y-97321089D01*
X108672519Y-97414179D01*
X108661009Y-97481651D01*
X108642210Y-97527355D01*
X108614574Y-97555139D01*
X108576552Y-97568854D01*
X108529474Y-97572358D01*
X108480168Y-97568432D01*
X108442717Y-97554089D01*
X108415572Y-97525478D01*
X108397185Y-97478751D01*
X108386007Y-97410058D01*
X108380489Y-97315550D01*
X108379079Y-97198533D01*
X108379079Y-96938421D01*
X108195264Y-96938421D01*
X108195264Y-97740526D01*
X108287172Y-97740526D01*
X108342578Y-97738281D01*
X108371109Y-97730396D01*
X108379079Y-97715428D01*
X108383880Y-97702097D01*
X108402986Y-97704917D01*
X108441496Y-97723783D01*
X108529761Y-97752887D01*
X108623377Y-97750825D01*
X108713079Y-97719221D01*
X108755796Y-97694257D01*
X108788379Y-97667226D01*
X108812183Y-97633405D01*
X108828561Y-97588068D01*
X108838869Y-97526489D01*
X108844459Y-97443943D01*
X108846688Y-97335705D01*
X108846974Y-97252004D01*
X108846974Y-96938421D01*
X108679869Y-96938421D01*
X108679869Y-97198533D01*
G36*
X107053424Y-96945419D02*
X106956605Y-96986549D01*
X106926110Y-97006571D01*
X106887135Y-97037340D01*
X106862669Y-97061533D01*
X106858422Y-97069413D01*
X106870416Y-97086899D01*
X106901113Y-97116570D01*
X106925688Y-97137279D01*
X106992954Y-97191336D01*
X107046070Y-97146642D01*
X107087116Y-97117789D01*
X107127137Y-97107829D01*
X107172941Y-97110261D01*
X107245676Y-97128345D01*
X107295744Y-97165881D01*
X107326171Y-97226562D01*
X107339983Y-97314081D01*
X107339987Y-97314136D01*
X107338792Y-97411958D01*
X107320228Y-97483730D01*
X107283196Y-97532595D01*
X107257950Y-97549143D01*
X107190903Y-97569749D01*
X107119291Y-97569762D01*
X107056985Y-97549768D01*
X107042237Y-97540000D01*
X107005250Y-97515047D01*
X106976332Y-97510958D01*
X106945144Y-97529530D01*
X106910664Y-97562887D01*
X106856088Y-97619196D01*
X106916682Y-97669142D01*
X107010302Y-97725513D01*
X107115875Y-97753293D01*
X107226202Y-97751282D01*
X107298657Y-97732862D01*
X107383344Y-97687310D01*
X107451073Y-97615650D01*
X107481843Y-97565066D01*
X107506764Y-97492488D01*
X107519234Y-97400569D01*
X107519330Y-97300948D01*
X107507130Y-97205267D01*
X107482710Y-97125169D01*
X107478864Y-97116956D01*
X107421907Y-97036413D01*
X107344791Y-96977771D01*
X107253610Y-96942247D01*
X107154457Y-96931057D01*
X107053424Y-96945419D01*
X107053424Y-96945419D01*
G37*
X107053424Y-96945419D02*
X106956605Y-96986549D01*
X106926110Y-97006571D01*
X106887135Y-97037340D01*
X106862669Y-97061533D01*
X106858422Y-97069413D01*
X106870416Y-97086899D01*
X106901113Y-97116570D01*
X106925688Y-97137279D01*
X106992954Y-97191336D01*
X107046070Y-97146642D01*
X107087116Y-97117789D01*
X107127137Y-97107829D01*
X107172941Y-97110261D01*
X107245676Y-97128345D01*
X107295744Y-97165881D01*
X107326171Y-97226562D01*
X107339983Y-97314081D01*
X107339987Y-97314136D01*
X107338792Y-97411958D01*
X107320228Y-97483730D01*
X107283196Y-97532595D01*
X107257950Y-97549143D01*
X107190903Y-97569749D01*
X107119291Y-97569762D01*
X107056985Y-97549768D01*
X107042237Y-97540000D01*
X107005250Y-97515047D01*
X106976332Y-97510958D01*
X106945144Y-97529530D01*
X106910664Y-97562887D01*
X106856088Y-97619196D01*
X106916682Y-97669142D01*
X107010302Y-97725513D01*
X107115875Y-97753293D01*
X107226202Y-97751282D01*
X107298657Y-97732862D01*
X107383344Y-97687310D01*
X107451073Y-97615650D01*
X107481843Y-97565066D01*
X107506764Y-97492488D01*
X107519234Y-97400569D01*
X107519330Y-97300948D01*
X107507130Y-97205267D01*
X107482710Y-97125169D01*
X107478864Y-97116956D01*
X107421907Y-97036413D01*
X107344791Y-96977771D01*
X107253610Y-96942247D01*
X107154457Y-96931057D01*
X107053424Y-96945419D01*
G36*
X106441216Y-96935554D02*
X106398426Y-96945949D01*
X106316391Y-96984013D01*
X106246243Y-97042149D01*
X106197695Y-97111852D01*
X106191025Y-97127502D01*
X106181876Y-97168496D01*
X106175471Y-97229138D01*
X106173290Y-97290430D01*
X106173290Y-97406316D01*
X106415593Y-97406316D01*
X106515529Y-97406693D01*
X106585931Y-97408987D01*
X106630687Y-97414938D01*
X106653685Y-97426285D01*
X106658811Y-97444771D01*
X106649952Y-97472136D01*
X106634083Y-97504155D01*
X106589816Y-97557592D01*
X106528301Y-97584215D01*
X106453115Y-97583347D01*
X106367947Y-97554371D01*
X106294341Y-97518611D01*
X106233266Y-97566904D01*
X106172190Y-97615197D01*
X106229649Y-97668285D01*
X106306359Y-97718445D01*
X106400698Y-97748688D01*
X106502173Y-97757151D01*
X106600289Y-97741974D01*
X106616119Y-97736824D01*
X106702353Y-97691791D01*
X106766499Y-97624652D01*
X106809909Y-97533405D01*
X106833936Y-97416044D01*
X106834216Y-97413529D01*
X106836367Y-97285627D01*
X106827671Y-97239997D01*
X106657895Y-97239997D01*
X106642303Y-97247013D01*
X106599971Y-97252388D01*
X106537566Y-97255457D01*
X106498019Y-97255921D01*
X106424272Y-97255630D01*
X106378160Y-97253783D01*
X106353900Y-97248912D01*
X106345706Y-97239555D01*
X106347794Y-97224245D01*
X106349545Y-97218322D01*
X106379440Y-97162668D01*
X106426458Y-97117815D01*
X106467951Y-97098105D01*
X106523074Y-97099295D01*
X106578932Y-97123875D01*
X106625788Y-97164570D01*
X106653906Y-97214108D01*
X106657895Y-97239997D01*
X106827671Y-97239997D01*
X106814926Y-97173133D01*
X106772389Y-97078727D01*
X106711253Y-97005088D01*
X106634015Y-96954893D01*
X106543170Y-96930822D01*
X106441216Y-96935554D01*
X106441216Y-96935554D01*
G37*
X106441216Y-96935554D02*
X106398426Y-96945949D01*
X106316391Y-96984013D01*
X106246243Y-97042149D01*
X106197695Y-97111852D01*
X106191025Y-97127502D01*
X106181876Y-97168496D01*
X106175471Y-97229138D01*
X106173290Y-97290430D01*
X106173290Y-97406316D01*
X106415593Y-97406316D01*
X106515529Y-97406693D01*
X106585931Y-97408987D01*
X106630687Y-97414938D01*
X106653685Y-97426285D01*
X106658811Y-97444771D01*
X106649952Y-97472136D01*
X106634083Y-97504155D01*
X106589816Y-97557592D01*
X106528301Y-97584215D01*
X106453115Y-97583347D01*
X106367947Y-97554371D01*
X106294341Y-97518611D01*
X106233266Y-97566904D01*
X106172190Y-97615197D01*
X106229649Y-97668285D01*
X106306359Y-97718445D01*
X106400698Y-97748688D01*
X106502173Y-97757151D01*
X106600289Y-97741974D01*
X106616119Y-97736824D01*
X106702353Y-97691791D01*
X106766499Y-97624652D01*
X106809909Y-97533405D01*
X106833936Y-97416044D01*
X106834216Y-97413529D01*
X106836367Y-97285627D01*
X106827671Y-97239997D01*
X106657895Y-97239997D01*
X106642303Y-97247013D01*
X106599971Y-97252388D01*
X106537566Y-97255457D01*
X106498019Y-97255921D01*
X106424272Y-97255630D01*
X106378160Y-97253783D01*
X106353900Y-97248912D01*
X106345706Y-97239555D01*
X106347794Y-97224245D01*
X106349545Y-97218322D01*
X106379440Y-97162668D01*
X106426458Y-97117815D01*
X106467951Y-97098105D01*
X106523074Y-97099295D01*
X106578932Y-97123875D01*
X106625788Y-97164570D01*
X106653906Y-97214108D01*
X106657895Y-97239997D01*
X106827671Y-97239997D01*
X106814926Y-97173133D01*
X106772389Y-97078727D01*
X106711253Y-97005088D01*
X106634015Y-96954893D01*
X106543170Y-96930822D01*
X106441216Y-96935554D01*
G36*
X111002043Y-96952226D02*
X110960454Y-96972090D01*
X110920175Y-97000784D01*
X110889490Y-97033809D01*
X110867139Y-97075931D01*
X110851864Y-97131915D01*
X110842408Y-97206528D01*
X110837513Y-97304535D01*
X110835919Y-97430702D01*
X110835894Y-97443914D01*
X110835527Y-97740526D01*
X111019343Y-97740526D01*
X111019343Y-97467081D01*
X111019473Y-97365777D01*
X111020379Y-97292353D01*
X111022827Y-97241271D01*
X111027586Y-97206990D01*
X111035426Y-97183971D01*
X111047115Y-97166673D01*
X111063398Y-97149581D01*
X111120366Y-97112857D01*
X111182555Y-97106042D01*
X111241801Y-97129261D01*
X111262405Y-97146543D01*
X111277530Y-97162791D01*
X111288390Y-97180191D01*
X111295690Y-97204212D01*
X111300137Y-97240322D01*
X111302436Y-97293988D01*
X111303296Y-97370680D01*
X111303422Y-97464043D01*
X111303422Y-97740526D01*
X111487237Y-97740526D01*
X111487237Y-96938421D01*
X111395329Y-96938421D01*
X111340149Y-96940603D01*
X111311680Y-96948351D01*
X111303425Y-96963468D01*
X111303422Y-96963916D01*
X111299592Y-96978720D01*
X111282699Y-96977040D01*
X111249112Y-96960773D01*
X111172937Y-96936840D01*
X111085800Y-96934178D01*
X111002043Y-96952226D01*
X111002043Y-96952226D01*
G37*
X111002043Y-96952226D02*
X110960454Y-96972090D01*
X110920175Y-97000784D01*
X110889490Y-97033809D01*
X110867139Y-97075931D01*
X110851864Y-97131915D01*
X110842408Y-97206528D01*
X110837513Y-97304535D01*
X110835919Y-97430702D01*
X110835894Y-97443914D01*
X110835527Y-97740526D01*
X111019343Y-97740526D01*
X111019343Y-97467081D01*
X111019473Y-97365777D01*
X111020379Y-97292353D01*
X111022827Y-97241271D01*
X111027586Y-97206990D01*
X111035426Y-97183971D01*
X111047115Y-97166673D01*
X111063398Y-97149581D01*
X111120366Y-97112857D01*
X111182555Y-97106042D01*
X111241801Y-97129261D01*
X111262405Y-97146543D01*
X111277530Y-97162791D01*
X111288390Y-97180191D01*
X111295690Y-97204212D01*
X111300137Y-97240322D01*
X111302436Y-97293988D01*
X111303296Y-97370680D01*
X111303422Y-97464043D01*
X111303422Y-97740526D01*
X111487237Y-97740526D01*
X111487237Y-96938421D01*
X111395329Y-96938421D01*
X111340149Y-96940603D01*
X111311680Y-96948351D01*
X111303425Y-96963468D01*
X111303422Y-96963916D01*
X111299592Y-96978720D01*
X111282699Y-96977040D01*
X111249112Y-96960773D01*
X111172937Y-96936840D01*
X111085800Y-96934178D01*
X111002043Y-96952226D01*
G36*
X107608612Y-96937645D02*
X107551135Y-96955206D01*
X107514128Y-96977395D01*
X107502073Y-96994942D01*
X107505391Y-97015742D01*
X107526921Y-97048419D01*
X107545126Y-97071562D01*
X107582656Y-97113402D01*
X107610852Y-97131005D01*
X107634889Y-97129856D01*
X107706192Y-97111710D01*
X107758558Y-97112534D01*
X107801082Y-97133098D01*
X107815358Y-97145134D01*
X107861053Y-97187483D01*
X107861053Y-97740526D01*
X108044869Y-97740526D01*
X108044869Y-96938421D01*
X107952961Y-96938421D01*
X107897781Y-96940603D01*
X107869312Y-96948351D01*
X107861057Y-96963468D01*
X107861053Y-96963916D01*
X107857155Y-96979749D01*
X107839526Y-96977684D01*
X107815099Y-96966261D01*
X107764650Y-96945005D01*
X107723684Y-96932216D01*
X107670972Y-96928938D01*
X107608612Y-96937645D01*
X107608612Y-96937645D01*
G37*
X107608612Y-96937645D02*
X107551135Y-96955206D01*
X107514128Y-96977395D01*
X107502073Y-96994942D01*
X107505391Y-97015742D01*
X107526921Y-97048419D01*
X107545126Y-97071562D01*
X107582656Y-97113402D01*
X107610852Y-97131005D01*
X107634889Y-97129856D01*
X107706192Y-97111710D01*
X107758558Y-97112534D01*
X107801082Y-97133098D01*
X107815358Y-97145134D01*
X107861053Y-97187483D01*
X107861053Y-97740526D01*
X108044869Y-97740526D01*
X108044869Y-96938421D01*
X107952961Y-96938421D01*
X107897781Y-96940603D01*
X107869312Y-96948351D01*
X107861057Y-96963468D01*
X107861053Y-96963916D01*
X107857155Y-96979749D01*
X107839526Y-96977684D01*
X107815099Y-96966261D01*
X107764650Y-96945005D01*
X107723684Y-96932216D01*
X107670972Y-96928938D01*
X107608612Y-96937645D01*
G36*
X109499036Y-91398576D02*
X109423487Y-91799322D01*
X108865959Y-92029154D01*
X108531535Y-91801748D01*
X108437878Y-91738431D01*
X108353218Y-91681896D01*
X108281505Y-91634727D01*
X108226689Y-91599502D01*
X108192720Y-91578805D01*
X108183470Y-91574342D01*
X108166805Y-91585820D01*
X108131194Y-91617551D01*
X108080629Y-91665483D01*
X108019100Y-91725562D01*
X107950601Y-91793733D01*
X107879121Y-91865945D01*
X107808653Y-91938142D01*
X107743189Y-92006273D01*
X107686720Y-92066283D01*
X107643237Y-92114119D01*
X107616732Y-92145727D01*
X107610395Y-92156305D01*
X107619514Y-92175806D01*
X107645080Y-92218531D01*
X107684403Y-92280298D01*
X107734797Y-92356931D01*
X107793573Y-92444248D01*
X107827632Y-92494052D01*
X107889711Y-92584993D01*
X107944874Y-92667059D01*
X107990446Y-92736163D01*
X108023750Y-92788222D01*
X108042110Y-92819150D01*
X108044869Y-92825650D01*
X108038615Y-92844121D01*
X108021566Y-92887172D01*
X107996297Y-92948749D01*
X107965378Y-93022799D01*
X107931382Y-93103270D01*
X107896882Y-93184107D01*
X107864449Y-93259258D01*
X107836657Y-93322671D01*
X107816077Y-93368293D01*
X107805281Y-93390069D01*
X107804644Y-93390926D01*
X107787693Y-93395084D01*
X107742549Y-93404361D01*
X107673890Y-93417844D01*
X107586398Y-93434621D01*
X107484750Y-93453781D01*
X107425444Y-93464830D01*
X107316828Y-93485510D01*
X107218723Y-93505189D01*
X107136091Y-93522789D01*
X107073896Y-93537233D01*
X107037101Y-93547446D01*
X107029704Y-93550686D01*
X107022460Y-93572617D01*
X107016615Y-93622147D01*
X107012165Y-93693485D01*
X107009107Y-93780839D01*
X107007435Y-93878417D01*
X107007147Y-93980426D01*
X107008239Y-94081075D01*
X107010706Y-94174572D01*
X107014544Y-94255125D01*
X107019750Y-94316942D01*
X107026319Y-94354230D01*
X107030259Y-94361993D01*
X107053812Y-94371298D01*
X107103718Y-94384600D01*
X107173377Y-94400337D01*
X107256187Y-94416946D01*
X107285095Y-94422319D01*
X107424469Y-94447848D01*
X107534564Y-94468408D01*
X107619018Y-94484815D01*
X107681470Y-94497887D01*
X107725556Y-94508441D01*
X107754915Y-94517294D01*
X107773185Y-94525263D01*
X107784002Y-94533165D01*
X107785515Y-94534727D01*
X107800623Y-94559886D01*
X107823671Y-94608850D01*
X107852356Y-94675621D01*
X107884378Y-94754205D01*
X107917435Y-94838607D01*
X107949227Y-94922830D01*
X107977451Y-95000879D01*
X107999807Y-95066759D01*
X108013993Y-95114473D01*
X108017707Y-95138027D01*
X108017398Y-95138852D01*
X108004811Y-95158104D01*
X107976256Y-95200463D01*
X107934733Y-95261521D01*
X107883244Y-95336868D01*
X107824789Y-95422096D01*
X107808142Y-95446315D01*
X107748785Y-95534123D01*
X107696553Y-95614238D01*
X107654292Y-95682062D01*
X107624847Y-95732993D01*
X107611063Y-95762431D01*
X107610395Y-95766048D01*
X107621976Y-95785057D01*
X107653976Y-95822714D01*
X107702282Y-95874973D01*
X107762780Y-95937786D01*
X107831356Y-96007106D01*
X107903896Y-96078885D01*
X107976288Y-96149077D01*
X108044416Y-96213635D01*
X108104168Y-96268510D01*
X108151429Y-96309656D01*
X108182087Y-96333026D01*
X108190568Y-96336842D01*
X108210309Y-96327855D01*
X108250726Y-96303616D01*
X108305237Y-96268209D01*
X108347177Y-96239711D01*
X108423171Y-96187418D01*
X108513166Y-96125845D01*
X108603436Y-96064370D01*
X108651968Y-96031469D01*
X108816238Y-95920359D01*
X108954131Y-95994916D01*
X109016951Y-96027578D01*
X109070371Y-96052966D01*
X109106516Y-96067446D01*
X109115716Y-96069460D01*
X109126779Y-96054584D01*
X109148606Y-96012547D01*
X109179566Y-95947227D01*
X109218030Y-95862500D01*
X109262368Y-95762245D01*
X109310953Y-95650339D01*
X109362154Y-95530659D01*
X109414341Y-95407084D01*
X109465887Y-95283491D01*
X109515160Y-95163757D01*
X109560533Y-95051759D01*
X109600375Y-94951377D01*
X109633058Y-94866486D01*
X109656951Y-94800965D01*
X109670426Y-94758690D01*
X109672594Y-94744172D01*
X109655417Y-94725653D01*
X109617810Y-94695590D01*
X109567634Y-94660232D01*
X109563422Y-94657434D01*
X109433736Y-94553625D01*
X109329166Y-94432515D01*
X109250619Y-94297976D01*
X109199001Y-94153882D01*
X109175218Y-94004105D01*
X109180177Y-93852517D01*
X109214783Y-93702992D01*
X109279943Y-93559400D01*
X109299114Y-93527984D01*
X109398826Y-93401125D01*
X109516623Y-93299255D01*
X109648429Y-93222904D01*
X109790167Y-93172602D01*
X109937758Y-93148879D01*
X110087127Y-93152265D01*
X110234197Y-93183288D01*
X110374889Y-93242480D01*
X110505127Y-93330369D01*
X110545414Y-93366042D01*
X110647945Y-93477706D01*
X110722659Y-93595257D01*
X110773910Y-93727020D01*
X110802454Y-93857507D01*
X110809500Y-94004216D01*
X110786004Y-94151653D01*
X110734351Y-94294834D01*
X110656929Y-94428777D01*
X110556125Y-94548498D01*
X110434324Y-94649014D01*
X110418316Y-94659609D01*
X110367602Y-94694306D01*
X110329050Y-94724370D01*
X110310619Y-94743565D01*
X110310351Y-94744172D01*
X110314308Y-94764936D01*
X110329993Y-94812062D01*
X110355778Y-94881673D01*
X110390031Y-94969893D01*
X110431123Y-95072844D01*
X110477424Y-95186650D01*
X110527304Y-95307435D01*
X110579133Y-95431321D01*
X110631281Y-95554432D01*
X110682118Y-95672891D01*
X110730013Y-95782823D01*
X110773338Y-95880349D01*
X110810462Y-95961593D01*
X110839756Y-96022679D01*
X110859588Y-96059730D01*
X110867574Y-96069460D01*
X110891979Y-96061883D01*
X110937642Y-96041560D01*
X110996690Y-96012125D01*
X111029160Y-95994916D01*
X111167053Y-95920359D01*
X111331323Y-96031469D01*
X111415179Y-96088390D01*
X111506987Y-96151030D01*
X111593020Y-96210011D01*
X111636113Y-96239711D01*
X111696723Y-96280410D01*
X111748045Y-96312663D01*
X111783385Y-96332384D01*
X111794863Y-96336554D01*
X111811570Y-96325307D01*
X111848546Y-96293911D01*
X111902205Y-96245624D01*
X111968962Y-96183708D01*
X112045234Y-96111421D01*
X112093473Y-96065008D01*
X112177867Y-95982087D01*
X112250803Y-95907920D01*
X112309331Y-95845680D01*
X112350503Y-95798541D01*
X112371372Y-95769673D01*
X112373374Y-95763815D01*
X112364083Y-95741532D01*
X112338409Y-95696477D01*
X112299200Y-95633211D01*
X112249303Y-95556295D01*
X112191567Y-95470292D01*
X112175149Y-95446315D01*
X112115323Y-95359170D01*
X112061650Y-95280710D01*
X112017130Y-95215345D01*
X111984765Y-95167484D01*
X111967555Y-95141535D01*
X111965893Y-95138852D01*
X111968379Y-95118172D01*
X111981577Y-95072704D01*
X112003186Y-95008444D01*
X112030904Y-94931387D01*
X112062430Y-94847529D01*
X112095463Y-94762866D01*
X112127701Y-94683392D01*
X112156843Y-94615104D01*
X112180588Y-94563997D01*
X112196635Y-94536067D01*
X112197775Y-94534727D01*
X112207588Y-94526745D01*
X112224161Y-94518851D01*
X112251132Y-94510229D01*
X112292139Y-94500062D01*
X112350820Y-94487531D01*
X112430813Y-94471821D01*
X112535755Y-94452113D01*
X112669285Y-94427592D01*
X112698196Y-94422319D01*
X112783882Y-94405764D01*
X112858582Y-94389569D01*
X112915694Y-94375296D01*
X112948617Y-94364508D01*
X112953031Y-94361993D01*
X112960306Y-94339696D01*
X112966219Y-94289869D01*
X112970766Y-94218304D01*
X112973945Y-94130793D01*
X112975749Y-94033128D01*
X112976177Y-93931101D01*
X112975223Y-93830503D01*
X112972884Y-93737127D01*
X112969156Y-93656765D01*
X112964034Y-93595209D01*
X112957516Y-93558250D01*
X112953586Y-93550686D01*
X112931708Y-93543056D01*
X112881891Y-93530642D01*
X112809097Y-93514522D01*
X112718289Y-93495773D01*
X112614431Y-93475471D01*
X112557846Y-93464830D01*
X112450486Y-93444760D01*
X112354746Y-93426580D01*
X112275306Y-93411199D01*
X112216846Y-93399531D01*
X112184045Y-93392488D01*
X112178646Y-93390926D01*
X112169522Y-93373322D01*
X112150235Y-93330918D01*
X112123355Y-93269772D01*
X112091454Y-93195943D01*
X112057102Y-93115489D01*
X112022871Y-93034468D01*
X111991331Y-92958937D01*
X111965054Y-92894955D01*
X111946611Y-92848580D01*
X111938571Y-92825869D01*
X111938422Y-92824876D01*
X111947535Y-92806961D01*
X111973086Y-92765733D01*
X112012388Y-92705291D01*
X112062757Y-92629731D01*
X112121506Y-92543152D01*
X112155658Y-92493421D01*
X112217890Y-92402236D01*
X112273164Y-92319449D01*
X112318782Y-92249249D01*
X112352048Y-92195824D01*
X112370264Y-92163361D01*
X112372895Y-92156083D01*
X112361586Y-92139145D01*
X112330319Y-92102978D01*
X112283090Y-92051635D01*
X112223892Y-91989167D01*
X112156719Y-91919626D01*
X112085566Y-91847065D01*
X112014426Y-91775535D01*
X111947293Y-91709087D01*
X111888161Y-91651774D01*
X111841025Y-91607647D01*
X111809877Y-91580759D01*
X111799457Y-91574342D01*
X111782491Y-91583365D01*
X111741911Y-91608715D01*
X111681663Y-91647810D01*
X111605693Y-91698071D01*
X111517946Y-91756917D01*
X111451756Y-91801748D01*
X111117332Y-92029154D01*
X110838567Y-91914238D01*
X110559803Y-91799322D01*
X110484254Y-91398576D01*
X110408706Y-90997829D01*
X109574585Y-90997829D01*
X109499036Y-91398576D01*
X109499036Y-91398576D01*
G37*
X109499036Y-91398576D02*
X109423487Y-91799322D01*
X108865959Y-92029154D01*
X108531535Y-91801748D01*
X108437878Y-91738431D01*
X108353218Y-91681896D01*
X108281505Y-91634727D01*
X108226689Y-91599502D01*
X108192720Y-91578805D01*
X108183470Y-91574342D01*
X108166805Y-91585820D01*
X108131194Y-91617551D01*
X108080629Y-91665483D01*
X108019100Y-91725562D01*
X107950601Y-91793733D01*
X107879121Y-91865945D01*
X107808653Y-91938142D01*
X107743189Y-92006273D01*
X107686720Y-92066283D01*
X107643237Y-92114119D01*
X107616732Y-92145727D01*
X107610395Y-92156305D01*
X107619514Y-92175806D01*
X107645080Y-92218531D01*
X107684403Y-92280298D01*
X107734797Y-92356931D01*
X107793573Y-92444248D01*
X107827632Y-92494052D01*
X107889711Y-92584993D01*
X107944874Y-92667059D01*
X107990446Y-92736163D01*
X108023750Y-92788222D01*
X108042110Y-92819150D01*
X108044869Y-92825650D01*
X108038615Y-92844121D01*
X108021566Y-92887172D01*
X107996297Y-92948749D01*
X107965378Y-93022799D01*
X107931382Y-93103270D01*
X107896882Y-93184107D01*
X107864449Y-93259258D01*
X107836657Y-93322671D01*
X107816077Y-93368293D01*
X107805281Y-93390069D01*
X107804644Y-93390926D01*
X107787693Y-93395084D01*
X107742549Y-93404361D01*
X107673890Y-93417844D01*
X107586398Y-93434621D01*
X107484750Y-93453781D01*
X107425444Y-93464830D01*
X107316828Y-93485510D01*
X107218723Y-93505189D01*
X107136091Y-93522789D01*
X107073896Y-93537233D01*
X107037101Y-93547446D01*
X107029704Y-93550686D01*
X107022460Y-93572617D01*
X107016615Y-93622147D01*
X107012165Y-93693485D01*
X107009107Y-93780839D01*
X107007435Y-93878417D01*
X107007147Y-93980426D01*
X107008239Y-94081075D01*
X107010706Y-94174572D01*
X107014544Y-94255125D01*
X107019750Y-94316942D01*
X107026319Y-94354230D01*
X107030259Y-94361993D01*
X107053812Y-94371298D01*
X107103718Y-94384600D01*
X107173377Y-94400337D01*
X107256187Y-94416946D01*
X107285095Y-94422319D01*
X107424469Y-94447848D01*
X107534564Y-94468408D01*
X107619018Y-94484815D01*
X107681470Y-94497887D01*
X107725556Y-94508441D01*
X107754915Y-94517294D01*
X107773185Y-94525263D01*
X107784002Y-94533165D01*
X107785515Y-94534727D01*
X107800623Y-94559886D01*
X107823671Y-94608850D01*
X107852356Y-94675621D01*
X107884378Y-94754205D01*
X107917435Y-94838607D01*
X107949227Y-94922830D01*
X107977451Y-95000879D01*
X107999807Y-95066759D01*
X108013993Y-95114473D01*
X108017707Y-95138027D01*
X108017398Y-95138852D01*
X108004811Y-95158104D01*
X107976256Y-95200463D01*
X107934733Y-95261521D01*
X107883244Y-95336868D01*
X107824789Y-95422096D01*
X107808142Y-95446315D01*
X107748785Y-95534123D01*
X107696553Y-95614238D01*
X107654292Y-95682062D01*
X107624847Y-95732993D01*
X107611063Y-95762431D01*
X107610395Y-95766048D01*
X107621976Y-95785057D01*
X107653976Y-95822714D01*
X107702282Y-95874973D01*
X107762780Y-95937786D01*
X107831356Y-96007106D01*
X107903896Y-96078885D01*
X107976288Y-96149077D01*
X108044416Y-96213635D01*
X108104168Y-96268510D01*
X108151429Y-96309656D01*
X108182087Y-96333026D01*
X108190568Y-96336842D01*
X108210309Y-96327855D01*
X108250726Y-96303616D01*
X108305237Y-96268209D01*
X108347177Y-96239711D01*
X108423171Y-96187418D01*
X108513166Y-96125845D01*
X108603436Y-96064370D01*
X108651968Y-96031469D01*
X108816238Y-95920359D01*
X108954131Y-95994916D01*
X109016951Y-96027578D01*
X109070371Y-96052966D01*
X109106516Y-96067446D01*
X109115716Y-96069460D01*
X109126779Y-96054584D01*
X109148606Y-96012547D01*
X109179566Y-95947227D01*
X109218030Y-95862500D01*
X109262368Y-95762245D01*
X109310953Y-95650339D01*
X109362154Y-95530659D01*
X109414341Y-95407084D01*
X109465887Y-95283491D01*
X109515160Y-95163757D01*
X109560533Y-95051759D01*
X109600375Y-94951377D01*
X109633058Y-94866486D01*
X109656951Y-94800965D01*
X109670426Y-94758690D01*
X109672594Y-94744172D01*
X109655417Y-94725653D01*
X109617810Y-94695590D01*
X109567634Y-94660232D01*
X109563422Y-94657434D01*
X109433736Y-94553625D01*
X109329166Y-94432515D01*
X109250619Y-94297976D01*
X109199001Y-94153882D01*
X109175218Y-94004105D01*
X109180177Y-93852517D01*
X109214783Y-93702992D01*
X109279943Y-93559400D01*
X109299114Y-93527984D01*
X109398826Y-93401125D01*
X109516623Y-93299255D01*
X109648429Y-93222904D01*
X109790167Y-93172602D01*
X109937758Y-93148879D01*
X110087127Y-93152265D01*
X110234197Y-93183288D01*
X110374889Y-93242480D01*
X110505127Y-93330369D01*
X110545414Y-93366042D01*
X110647945Y-93477706D01*
X110722659Y-93595257D01*
X110773910Y-93727020D01*
X110802454Y-93857507D01*
X110809500Y-94004216D01*
X110786004Y-94151653D01*
X110734351Y-94294834D01*
X110656929Y-94428777D01*
X110556125Y-94548498D01*
X110434324Y-94649014D01*
X110418316Y-94659609D01*
X110367602Y-94694306D01*
X110329050Y-94724370D01*
X110310619Y-94743565D01*
X110310351Y-94744172D01*
X110314308Y-94764936D01*
X110329993Y-94812062D01*
X110355778Y-94881673D01*
X110390031Y-94969893D01*
X110431123Y-95072844D01*
X110477424Y-95186650D01*
X110527304Y-95307435D01*
X110579133Y-95431321D01*
X110631281Y-95554432D01*
X110682118Y-95672891D01*
X110730013Y-95782823D01*
X110773338Y-95880349D01*
X110810462Y-95961593D01*
X110839756Y-96022679D01*
X110859588Y-96059730D01*
X110867574Y-96069460D01*
X110891979Y-96061883D01*
X110937642Y-96041560D01*
X110996690Y-96012125D01*
X111029160Y-95994916D01*
X111167053Y-95920359D01*
X111331323Y-96031469D01*
X111415179Y-96088390D01*
X111506987Y-96151030D01*
X111593020Y-96210011D01*
X111636113Y-96239711D01*
X111696723Y-96280410D01*
X111748045Y-96312663D01*
X111783385Y-96332384D01*
X111794863Y-96336554D01*
X111811570Y-96325307D01*
X111848546Y-96293911D01*
X111902205Y-96245624D01*
X111968962Y-96183708D01*
X112045234Y-96111421D01*
X112093473Y-96065008D01*
X112177867Y-95982087D01*
X112250803Y-95907920D01*
X112309331Y-95845680D01*
X112350503Y-95798541D01*
X112371372Y-95769673D01*
X112373374Y-95763815D01*
X112364083Y-95741532D01*
X112338409Y-95696477D01*
X112299200Y-95633211D01*
X112249303Y-95556295D01*
X112191567Y-95470292D01*
X112175149Y-95446315D01*
X112115323Y-95359170D01*
X112061650Y-95280710D01*
X112017130Y-95215345D01*
X111984765Y-95167484D01*
X111967555Y-95141535D01*
X111965893Y-95138852D01*
X111968379Y-95118172D01*
X111981577Y-95072704D01*
X112003186Y-95008444D01*
X112030904Y-94931387D01*
X112062430Y-94847529D01*
X112095463Y-94762866D01*
X112127701Y-94683392D01*
X112156843Y-94615104D01*
X112180588Y-94563997D01*
X112196635Y-94536067D01*
X112197775Y-94534727D01*
X112207588Y-94526745D01*
X112224161Y-94518851D01*
X112251132Y-94510229D01*
X112292139Y-94500062D01*
X112350820Y-94487531D01*
X112430813Y-94471821D01*
X112535755Y-94452113D01*
X112669285Y-94427592D01*
X112698196Y-94422319D01*
X112783882Y-94405764D01*
X112858582Y-94389569D01*
X112915694Y-94375296D01*
X112948617Y-94364508D01*
X112953031Y-94361993D01*
X112960306Y-94339696D01*
X112966219Y-94289869D01*
X112970766Y-94218304D01*
X112973945Y-94130793D01*
X112975749Y-94033128D01*
X112976177Y-93931101D01*
X112975223Y-93830503D01*
X112972884Y-93737127D01*
X112969156Y-93656765D01*
X112964034Y-93595209D01*
X112957516Y-93558250D01*
X112953586Y-93550686D01*
X112931708Y-93543056D01*
X112881891Y-93530642D01*
X112809097Y-93514522D01*
X112718289Y-93495773D01*
X112614431Y-93475471D01*
X112557846Y-93464830D01*
X112450486Y-93444760D01*
X112354746Y-93426580D01*
X112275306Y-93411199D01*
X112216846Y-93399531D01*
X112184045Y-93392488D01*
X112178646Y-93390926D01*
X112169522Y-93373322D01*
X112150235Y-93330918D01*
X112123355Y-93269772D01*
X112091454Y-93195943D01*
X112057102Y-93115489D01*
X112022871Y-93034468D01*
X111991331Y-92958937D01*
X111965054Y-92894955D01*
X111946611Y-92848580D01*
X111938571Y-92825869D01*
X111938422Y-92824876D01*
X111947535Y-92806961D01*
X111973086Y-92765733D01*
X112012388Y-92705291D01*
X112062757Y-92629731D01*
X112121506Y-92543152D01*
X112155658Y-92493421D01*
X112217890Y-92402236D01*
X112273164Y-92319449D01*
X112318782Y-92249249D01*
X112352048Y-92195824D01*
X112370264Y-92163361D01*
X112372895Y-92156083D01*
X112361586Y-92139145D01*
X112330319Y-92102978D01*
X112283090Y-92051635D01*
X112223892Y-91989167D01*
X112156719Y-91919626D01*
X112085566Y-91847065D01*
X112014426Y-91775535D01*
X111947293Y-91709087D01*
X111888161Y-91651774D01*
X111841025Y-91607647D01*
X111809877Y-91580759D01*
X111799457Y-91574342D01*
X111782491Y-91583365D01*
X111741911Y-91608715D01*
X111681663Y-91647810D01*
X111605693Y-91698071D01*
X111517946Y-91756917D01*
X111451756Y-91801748D01*
X111117332Y-92029154D01*
X110838567Y-91914238D01*
X110559803Y-91799322D01*
X110484254Y-91398576D01*
X110408706Y-90997829D01*
X109574585Y-90997829D01*
X109499036Y-91398576D01*
D12*
X102000000Y-92730000D03*
D13*
X102000000Y-95270000D03*
D14*
G36*
X119318469Y-88513988D02*
X119418904Y-88581097D01*
X119486012Y-88681530D01*
X119519000Y-88847375D01*
X119519000Y-99152625D01*
X119486012Y-99318470D01*
X119418904Y-99418903D01*
X119318469Y-99486012D01*
X119152625Y-99519000D01*
X100847375Y-99519000D01*
X100681530Y-99486012D01*
X100581097Y-99418904D01*
X100513988Y-99318469D01*
X100481000Y-99152625D01*
X100481000Y-97630447D01*
X105786492Y-97630447D01*
X105797181Y-97674921D01*
X105800836Y-97720514D01*
X105814614Y-97747459D01*
X105821687Y-97776887D01*
X105848581Y-97813884D01*
X105869406Y-97854609D01*
X105892449Y-97874232D01*
X105910244Y-97898711D01*
X105967703Y-97951799D01*
X105995295Y-97968698D01*
X106018401Y-97991349D01*
X106095111Y-98041509D01*
X106143197Y-98060869D01*
X106188523Y-98086019D01*
X106282862Y-98116262D01*
X106326448Y-98121247D01*
X106368617Y-98133353D01*
X106470092Y-98141816D01*
X106515515Y-98136654D01*
X106561179Y-98138614D01*
X106659295Y-98123437D01*
X106688663Y-98112723D01*
X106719706Y-98109037D01*
X106735537Y-98103887D01*
X106763756Y-98088070D01*
X106794798Y-98078978D01*
X106798880Y-98076847D01*
X106750549Y-98145746D01*
X106728924Y-98194781D01*
X106701835Y-98241020D01*
X106671407Y-98328823D01*
X106665143Y-98374173D01*
X106651925Y-98418004D01*
X106641471Y-98525938D01*
X106643230Y-98543507D01*
X106639680Y-98560805D01*
X106639627Y-98569530D01*
X106639814Y-98570498D01*
X106639620Y-98571466D01*
X106639527Y-98659196D01*
X106639568Y-98659401D01*
X106639527Y-98659605D01*
X106654112Y-98732927D01*
X106668754Y-98806943D01*
X106668869Y-98807116D01*
X106668910Y-98807321D01*
X106672891Y-98813279D01*
X106664413Y-98841145D01*
X106666126Y-98858689D01*
X106662537Y-98875948D01*
X106673394Y-98933121D01*
X106679050Y-98991041D01*
X106684737Y-99001702D01*
X106684894Y-99003676D01*
X106687917Y-99009595D01*
X106690636Y-99023914D01*
X106698419Y-99043175D01*
X106714779Y-99068126D01*
X106720330Y-99086321D01*
X106738155Y-99107972D01*
X106753392Y-99137808D01*
X106757552Y-99143075D01*
X106771999Y-99155391D01*
X106781004Y-99169124D01*
X106798067Y-99180740D01*
X106816059Y-99202594D01*
X106844237Y-99225645D01*
X106868831Y-99238741D01*
X106889436Y-99257503D01*
X106935931Y-99285516D01*
X106949749Y-99290496D01*
X106961324Y-99299544D01*
X106993752Y-99315897D01*
X107024367Y-99324395D01*
X107052258Y-99339621D01*
X107144307Y-99368434D01*
X107185081Y-99372814D01*
X107224401Y-99384449D01*
X107326310Y-99393785D01*
X107365852Y-99389618D01*
X107405482Y-99392884D01*
X107501995Y-99381821D01*
X107533560Y-99371693D01*
X107566578Y-99368757D01*
X107593607Y-99360837D01*
X107629092Y-99342301D01*
X107667388Y-99330639D01*
X107751046Y-99285808D01*
X107776313Y-99265027D01*
X107788636Y-99283469D01*
X107913863Y-99367143D01*
X108061579Y-99396526D01*
X108245395Y-99396526D01*
X108319183Y-99381848D01*
X108386690Y-99396471D01*
X108389969Y-99395876D01*
X108393235Y-99396526D01*
X108486420Y-99396526D01*
X108494475Y-99394924D01*
X108502588Y-99396187D01*
X108559121Y-99393817D01*
X108602190Y-99383357D01*
X108630259Y-99381250D01*
X108662078Y-99389674D01*
X108739976Y-99394546D01*
X108770644Y-99390415D01*
X108801438Y-99393486D01*
X108883372Y-99385517D01*
X108916240Y-99375590D01*
X108950466Y-99372926D01*
X109023181Y-99352485D01*
X109046822Y-99340465D01*
X109072734Y-99334831D01*
X109079257Y-99331993D01*
X109097887Y-99319061D01*
X109130390Y-99345011D01*
X109134117Y-99346087D01*
X109137193Y-99348445D01*
X109206339Y-99366938D01*
X109275090Y-99386786D01*
X109278941Y-99386354D01*
X109282690Y-99387357D01*
X109437654Y-99397439D01*
X109469127Y-99393280D01*
X109500716Y-99396377D01*
X109543072Y-99383508D01*
X109586966Y-99377708D01*
X109614450Y-99361822D01*
X109627209Y-99357946D01*
X109640973Y-99367143D01*
X109694999Y-99377890D01*
X109747575Y-99394330D01*
X109768290Y-99392468D01*
X109788689Y-99396526D01*
X109942505Y-99396526D01*
X109959008Y-99393243D01*
X109975730Y-99395093D01*
X110032371Y-99378650D01*
X110090221Y-99367143D01*
X110104211Y-99357795D01*
X110105223Y-99357501D01*
X110119653Y-99367143D01*
X110267369Y-99396526D01*
X110359277Y-99396526D01*
X110364918Y-99395404D01*
X110370589Y-99396360D01*
X110423935Y-99394796D01*
X110461618Y-99386145D01*
X110500257Y-99384882D01*
X110528042Y-99378405D01*
X110528162Y-99378351D01*
X110536520Y-99379237D01*
X110590266Y-99390858D01*
X110680993Y-99392363D01*
X110732897Y-99382931D01*
X110785554Y-99379727D01*
X110859316Y-99360332D01*
X110918305Y-99331584D01*
X110978680Y-99305894D01*
X111013075Y-99282431D01*
X111013768Y-99283469D01*
X111138995Y-99367143D01*
X111286711Y-99396526D01*
X111453816Y-99396526D01*
X111537369Y-99379906D01*
X111620922Y-99396526D01*
X111701132Y-99396526D01*
X111714538Y-99393859D01*
X111728098Y-99395583D01*
X111779260Y-99392000D01*
X111810255Y-99383546D01*
X111841462Y-99382324D01*
X111866025Y-99389199D01*
X111929318Y-99394054D01*
X111949941Y-99391572D01*
X111970429Y-99395011D01*
X112040579Y-99392904D01*
X112060831Y-99388239D01*
X112081578Y-99389479D01*
X112145729Y-99380657D01*
X112174503Y-99370704D01*
X112204808Y-99367751D01*
X112219461Y-99363323D01*
X112225179Y-99367143D01*
X112372895Y-99396526D01*
X112556711Y-99396526D01*
X112704427Y-99367143D01*
X112712143Y-99361987D01*
X112767471Y-99372098D01*
X112826958Y-99387533D01*
X112914688Y-99392584D01*
X113002419Y-99397635D01*
X113013567Y-99396077D01*
X113024606Y-99398273D01*
X113087783Y-99385706D01*
X113151580Y-99376791D01*
X113161283Y-99371086D01*
X113172322Y-99368890D01*
X113225883Y-99333102D01*
X113281409Y-99300453D01*
X113288189Y-99291470D01*
X113297549Y-99285216D01*
X113333336Y-99231656D01*
X113372143Y-99180243D01*
X113374970Y-99169347D01*
X113381223Y-99159989D01*
X113393789Y-99096815D01*
X113409968Y-99034460D01*
X113408410Y-99023312D01*
X113410606Y-99012273D01*
X113410606Y-98136064D01*
X113451824Y-98135082D01*
X113501510Y-98140555D01*
X113599213Y-98132069D01*
X113645861Y-98118504D01*
X113693950Y-98111628D01*
X113768221Y-98085491D01*
X113812241Y-98059418D01*
X113859217Y-98039148D01*
X113923087Y-97995103D01*
X113954325Y-97962935D01*
X113990302Y-97936179D01*
X114042503Y-97878431D01*
X114057035Y-97854113D01*
X114077069Y-97834085D01*
X114077972Y-97832734D01*
X114081918Y-97823212D01*
X114088814Y-97815551D01*
X114110013Y-97779908D01*
X114120989Y-97748899D01*
X114138554Y-97721089D01*
X114152331Y-97685248D01*
X114158404Y-97650001D01*
X114171630Y-97616767D01*
X114179973Y-97571534D01*
X114179685Y-97550913D01*
X114185245Y-97531051D01*
X114190142Y-97467233D01*
X114189313Y-97460345D01*
X114190945Y-97453605D01*
X114193103Y-97401272D01*
X114192427Y-97396948D01*
X114193362Y-97392671D01*
X114194260Y-97345213D01*
X114195332Y-97288607D01*
X114193186Y-97276641D01*
X114195041Y-97264626D01*
X114191676Y-97186795D01*
X114185797Y-97162724D01*
X114186436Y-97137958D01*
X114176355Y-97079420D01*
X114162165Y-97042495D01*
X114155136Y-97003561D01*
X114136955Y-96957368D01*
X114113859Y-96921440D01*
X114097246Y-96882095D01*
X114069582Y-96841301D01*
X114054787Y-96826708D01*
X114044709Y-96808527D01*
X114034453Y-96796414D01*
X114017195Y-96782688D01*
X114004392Y-96764730D01*
X113940260Y-96704377D01*
X113894283Y-96675635D01*
X113851774Y-96641960D01*
X113782986Y-96606706D01*
X113727480Y-96590910D01*
X113673686Y-96570036D01*
X113589562Y-96555265D01*
X113561509Y-96555898D01*
X113534164Y-96549617D01*
X113493144Y-96548410D01*
X113464920Y-96553166D01*
X113436386Y-96550923D01*
X113327811Y-96563784D01*
X113273189Y-96581538D01*
X113217134Y-96594068D01*
X113201212Y-96601107D01*
X113172322Y-96581804D01*
X113024606Y-96552421D01*
X112932698Y-96552421D01*
X112925100Y-96553932D01*
X112917446Y-96552722D01*
X112862265Y-96554904D01*
X112819760Y-96565120D01*
X112807043Y-96566004D01*
X112771921Y-96562071D01*
X112719685Y-96550057D01*
X112631636Y-96547441D01*
X112583008Y-96555621D01*
X112533718Y-96557077D01*
X112450186Y-96576274D01*
X112409131Y-96594719D01*
X112365668Y-96606398D01*
X112330436Y-96623804D01*
X112307241Y-96641628D01*
X112302375Y-96643762D01*
X112263123Y-96625974D01*
X112211627Y-96597080D01*
X112121376Y-96567676D01*
X112160408Y-96532552D01*
X112162177Y-96530184D01*
X112164694Y-96528636D01*
X112231451Y-96466720D01*
X112232695Y-96465002D01*
X112234488Y-96463872D01*
X112310760Y-96391585D01*
X112311615Y-96390377D01*
X112312862Y-96389578D01*
X112361101Y-96343165D01*
X112362280Y-96341473D01*
X112364003Y-96340343D01*
X112448397Y-96257423D01*
X112450296Y-96254635D01*
X112453085Y-96252737D01*
X112526021Y-96178570D01*
X112528430Y-96174899D01*
X112532003Y-96172349D01*
X112590531Y-96110109D01*
X112594347Y-96103999D01*
X112600054Y-96099602D01*
X112641226Y-96052463D01*
X112650170Y-96036898D01*
X112663323Y-96024682D01*
X112684192Y-95995814D01*
X112707340Y-95945285D01*
X112730335Y-95910696D01*
X112731922Y-95902617D01*
X112736630Y-95894502D01*
X112738633Y-95888644D01*
X112740836Y-95872168D01*
X112746920Y-95858889D01*
X112748401Y-95818748D01*
X112759372Y-95762913D01*
X112757014Y-95751204D01*
X112758598Y-95739363D01*
X112752217Y-95715350D01*
X112752474Y-95708382D01*
X112747029Y-95693731D01*
X112747059Y-95693314D01*
X112743610Y-95682962D01*
X112742226Y-95677753D01*
X112729645Y-95615266D01*
X112720354Y-95592983D01*
X112707017Y-95573124D01*
X112699455Y-95550425D01*
X112673781Y-95505370D01*
X112669045Y-95499908D01*
X112666509Y-95493138D01*
X112627299Y-95429872D01*
X112624530Y-95426906D01*
X112623028Y-95423137D01*
X112573131Y-95346221D01*
X112570974Y-95344005D01*
X112569784Y-95341149D01*
X112512048Y-95255145D01*
X112510767Y-95253870D01*
X112510057Y-95252209D01*
X112493639Y-95228232D01*
X112493470Y-95228067D01*
X112493376Y-95227848D01*
X112433880Y-95141185D01*
X112389163Y-95075817D01*
X112393164Y-95064695D01*
X112422910Y-94985574D01*
X112454127Y-94905565D01*
X112473938Y-94856725D01*
X112503672Y-94850886D01*
X112606138Y-94831643D01*
X112738776Y-94807286D01*
X112767455Y-94802055D01*
X112769366Y-94801299D01*
X112771419Y-94801310D01*
X112857106Y-94784755D01*
X112861223Y-94783076D01*
X112865667Y-94783000D01*
X112940367Y-94766805D01*
X112946016Y-94764351D01*
X112952170Y-94764052D01*
X113009281Y-94749779D01*
X113021963Y-94743789D01*
X113035888Y-94742106D01*
X113068811Y-94731318D01*
X113099276Y-94714157D01*
X113127849Y-94706136D01*
X113132918Y-94702150D01*
X113139709Y-94699888D01*
X113144123Y-94697373D01*
X113172049Y-94673163D01*
X113200033Y-94657399D01*
X113216456Y-94636460D01*
X113246239Y-94613040D01*
X113250832Y-94604861D01*
X113257921Y-94598716D01*
X113278811Y-94556958D01*
X113292980Y-94538892D01*
X113295364Y-94530359D01*
X113297031Y-94528408D01*
X113301515Y-94514622D01*
X113319992Y-94481724D01*
X113327267Y-94459427D01*
X113331803Y-94421503D01*
X113343616Y-94385184D01*
X113349529Y-94335356D01*
X113348693Y-94324688D01*
X113351442Y-94314345D01*
X113355989Y-94242780D01*
X113355283Y-94237502D01*
X113356512Y-94232317D01*
X113359691Y-94144806D01*
X113359132Y-94141345D01*
X113359879Y-94137922D01*
X113361683Y-94040256D01*
X113361187Y-94037497D01*
X113361746Y-94034747D01*
X113362174Y-93932720D01*
X113361661Y-93930082D01*
X113362160Y-93927441D01*
X113361206Y-93826843D01*
X113360581Y-93823849D01*
X113361102Y-93820837D01*
X113358763Y-93727461D01*
X113357844Y-93723377D01*
X113358469Y-93719239D01*
X113354741Y-93638878D01*
X113353014Y-93631902D01*
X113353827Y-93624757D01*
X113348705Y-93563201D01*
X113343779Y-93546029D01*
X113344168Y-93528169D01*
X113337650Y-93491211D01*
X113316401Y-93436575D01*
X113304464Y-93395501D01*
X113301186Y-93382847D01*
X113300536Y-93381985D01*
X113300042Y-93380285D01*
X113296112Y-93372721D01*
X113287280Y-93361699D01*
X113283058Y-93350843D01*
X113255595Y-93322156D01*
X113252497Y-93318290D01*
X113210497Y-93262602D01*
X113205535Y-93259682D01*
X113201934Y-93255188D01*
X113179878Y-93243065D01*
X113178907Y-93242051D01*
X113174526Y-93240124D01*
X113161450Y-93232937D01*
X113161270Y-93232738D01*
X113159999Y-93232139D01*
X113140811Y-93221592D01*
X113080696Y-93186215D01*
X113058818Y-93178585D01*
X113041164Y-93176111D01*
X113025041Y-93168510D01*
X112975225Y-93156096D01*
X112970072Y-93155849D01*
X112965348Y-93153772D01*
X112892554Y-93137652D01*
X112889740Y-93137591D01*
X112887147Y-93136495D01*
X112796340Y-93117746D01*
X112794262Y-93117731D01*
X112792342Y-93116943D01*
X112688484Y-93096641D01*
X112687077Y-93096646D01*
X112685769Y-93096120D01*
X112629184Y-93085479D01*
X112628972Y-93085481D01*
X112628777Y-93085403D01*
X112521786Y-93065402D01*
X112449620Y-93051698D01*
X112446118Y-93043595D01*
X112412334Y-92964470D01*
X112378716Y-92884899D01*
X112370184Y-92864465D01*
X112383099Y-92845090D01*
X112440332Y-92760747D01*
X112473852Y-92711935D01*
X112474077Y-92711411D01*
X112474483Y-92711013D01*
X112536715Y-92619828D01*
X112537499Y-92617987D01*
X112538913Y-92616572D01*
X112594187Y-92533786D01*
X112595121Y-92531528D01*
X112596829Y-92529776D01*
X112642447Y-92459576D01*
X112643856Y-92456048D01*
X112646452Y-92453279D01*
X112679718Y-92399854D01*
X112682868Y-92391501D01*
X112688673Y-92384715D01*
X112706889Y-92352251D01*
X112716776Y-92321910D01*
X112733273Y-92294589D01*
X112735904Y-92287311D01*
X112740279Y-92258465D01*
X112751451Y-92231521D01*
X112751457Y-92215476D01*
X112753550Y-92209052D01*
X112751591Y-92183889D01*
X112758490Y-92138404D01*
X112751494Y-92110081D01*
X112751504Y-92080911D01*
X112733602Y-92037649D01*
X112722373Y-91992189D01*
X112705071Y-91968700D01*
X112693917Y-91941745D01*
X112682609Y-91924808D01*
X112665527Y-91907714D01*
X112653593Y-91886701D01*
X112622325Y-91850533D01*
X112617554Y-91846818D01*
X112614407Y-91841654D01*
X112567177Y-91790311D01*
X112564823Y-91788592D01*
X112563268Y-91786124D01*
X112504070Y-91723656D01*
X112502537Y-91722571D01*
X112501521Y-91720992D01*
X112434348Y-91651451D01*
X112433133Y-91650608D01*
X112432323Y-91649370D01*
X112361170Y-91576809D01*
X112360022Y-91576026D01*
X112359254Y-91574869D01*
X112288114Y-91503339D01*
X112286831Y-91502477D01*
X112285966Y-91501196D01*
X112218833Y-91434748D01*
X112217113Y-91433611D01*
X112215940Y-91431914D01*
X112156808Y-91374601D01*
X112153946Y-91372753D01*
X112151962Y-91369985D01*
X112104826Y-91325858D01*
X112098115Y-91321687D01*
X112093255Y-91315455D01*
X112062107Y-91288567D01*
X112048564Y-91280889D01*
X112044955Y-91276472D01*
X112029759Y-91268309D01*
X112012286Y-91252085D01*
X112001866Y-91245668D01*
X111957148Y-91229059D01*
X111931090Y-91214285D01*
X111928626Y-91213980D01*
X111912278Y-91205198D01*
X111885709Y-91202525D01*
X111860680Y-91193229D01*
X111811448Y-91195055D01*
X111762425Y-91190123D01*
X111736857Y-91197821D01*
X111710174Y-91198810D01*
X111665389Y-91219337D01*
X111618209Y-91233541D01*
X111601243Y-91242564D01*
X111590708Y-91251173D01*
X111577984Y-91255992D01*
X111537404Y-91281342D01*
X111534939Y-91283660D01*
X111531796Y-91284913D01*
X111471548Y-91324008D01*
X111470298Y-91325225D01*
X111468681Y-91325886D01*
X111392711Y-91376147D01*
X111391835Y-91377015D01*
X111390699Y-91377488D01*
X111302952Y-91436334D01*
X111302315Y-91436973D01*
X111301483Y-91437324D01*
X111235293Y-91482155D01*
X111235040Y-91482412D01*
X111234706Y-91482553D01*
X111072217Y-91593045D01*
X110985679Y-91557371D01*
X110900359Y-91522199D01*
X110863573Y-91327072D01*
X110863573Y-91327068D01*
X110788025Y-90926321D01*
X110773113Y-90889275D01*
X110765323Y-90850113D01*
X110745266Y-90820096D01*
X110731785Y-90786605D01*
X110703835Y-90758089D01*
X110681649Y-90724886D01*
X110651629Y-90704827D01*
X110626360Y-90679047D01*
X110589626Y-90663398D01*
X110556422Y-90641212D01*
X110521012Y-90634168D01*
X110487800Y-90620020D01*
X110447872Y-90619620D01*
X110408706Y-90611829D01*
X109574585Y-90611829D01*
X109535418Y-90619620D01*
X109495492Y-90620020D01*
X109462279Y-90634168D01*
X109426869Y-90641212D01*
X109393668Y-90663396D01*
X109356931Y-90679046D01*
X109331659Y-90704829D01*
X109301642Y-90724886D01*
X109279459Y-90758086D01*
X109251506Y-90786604D01*
X109238025Y-90820096D01*
X109217968Y-90850113D01*
X109210178Y-90889277D01*
X109195267Y-90926320D01*
X109119718Y-91327067D01*
X109082932Y-91522199D01*
X108911074Y-91593044D01*
X108748585Y-91482553D01*
X108748096Y-91482346D01*
X108747723Y-91481969D01*
X108654066Y-91418651D01*
X108653031Y-91418216D01*
X108652241Y-91417426D01*
X108567582Y-91360891D01*
X108566314Y-91360366D01*
X108565337Y-91359403D01*
X108493624Y-91312234D01*
X108491684Y-91311447D01*
X108490179Y-91309995D01*
X108435363Y-91274770D01*
X108430991Y-91273050D01*
X108427532Y-91269869D01*
X108393563Y-91249172D01*
X108375671Y-91242623D01*
X108360456Y-91231155D01*
X108351206Y-91226692D01*
X108301315Y-91213783D01*
X108253434Y-91194736D01*
X108229028Y-91195080D01*
X108205398Y-91188966D01*
X108154365Y-91196132D01*
X108102840Y-91196858D01*
X108080425Y-91206515D01*
X108056252Y-91209909D01*
X108011850Y-91236057D01*
X107964520Y-91256447D01*
X107947855Y-91267925D01*
X107934623Y-91281535D01*
X107926474Y-91286334D01*
X107924284Y-91289239D01*
X107910014Y-91297629D01*
X107874403Y-91329360D01*
X107870761Y-91334185D01*
X107865642Y-91337411D01*
X107815077Y-91385344D01*
X107813398Y-91387717D01*
X107810959Y-91389305D01*
X107749430Y-91449384D01*
X107748371Y-91450928D01*
X107746813Y-91451964D01*
X107678314Y-91520136D01*
X107677493Y-91521359D01*
X107676271Y-91522184D01*
X107604791Y-91594396D01*
X107604031Y-91595547D01*
X107602890Y-91596329D01*
X107532422Y-91668526D01*
X107531580Y-91669820D01*
X107530317Y-91670701D01*
X107464852Y-91738832D01*
X107463746Y-91740560D01*
X107462078Y-91741750D01*
X107405609Y-91801760D01*
X107403814Y-91804632D01*
X107401091Y-91806645D01*
X107357607Y-91854481D01*
X107353570Y-91861194D01*
X107347464Y-91866098D01*
X107320959Y-91897706D01*
X107306207Y-91924616D01*
X107285605Y-91947357D01*
X107279267Y-91957935D01*
X107266763Y-91992906D01*
X107247532Y-92024675D01*
X107241656Y-92063129D01*
X107228561Y-92099753D01*
X107230391Y-92136843D01*
X107224781Y-92173556D01*
X107234067Y-92211329D01*
X107235984Y-92250179D01*
X107251870Y-92283748D01*
X107260736Y-92319812D01*
X107269855Y-92339313D01*
X107281611Y-92355310D01*
X107288286Y-92374008D01*
X107313852Y-92416733D01*
X107317499Y-92420763D01*
X107319467Y-92425828D01*
X107358790Y-92487595D01*
X107360798Y-92489694D01*
X107361889Y-92492384D01*
X107412283Y-92569017D01*
X107413768Y-92570524D01*
X107414585Y-92572477D01*
X107473360Y-92659794D01*
X107474385Y-92660812D01*
X107474952Y-92662140D01*
X107509005Y-92711935D01*
X107570163Y-92801527D01*
X107612915Y-92865129D01*
X107609489Y-92873335D01*
X107576030Y-92952533D01*
X107542208Y-93031782D01*
X107533607Y-93051712D01*
X107514299Y-93055414D01*
X107413605Y-93074394D01*
X107354747Y-93085359D01*
X107354024Y-93085648D01*
X107353248Y-93085642D01*
X107244632Y-93106322D01*
X107242843Y-93107046D01*
X107240912Y-93107049D01*
X107142807Y-93126728D01*
X107140650Y-93127625D01*
X107138312Y-93127657D01*
X107055680Y-93145258D01*
X107052373Y-93146680D01*
X107048771Y-93146795D01*
X106986576Y-93161239D01*
X106978974Y-93164675D01*
X106970659Y-93165295D01*
X106933864Y-93175508D01*
X106909206Y-93187943D01*
X106882232Y-93193876D01*
X106874835Y-93197116D01*
X106866239Y-93203114D01*
X106856140Y-93205909D01*
X106824285Y-93230771D01*
X106799388Y-93243327D01*
X106785512Y-93259438D01*
X106751318Y-93283296D01*
X106745671Y-93292127D01*
X106737411Y-93298574D01*
X106709754Y-93347400D01*
X106701102Y-93357446D01*
X106698122Y-93366491D01*
X106690532Y-93378361D01*
X106685612Y-93384125D01*
X106684340Y-93388044D01*
X106670184Y-93410183D01*
X106668347Y-93420501D01*
X106663181Y-93429621D01*
X106655937Y-93451551D01*
X106651163Y-93490272D01*
X106639120Y-93527379D01*
X106633275Y-93576909D01*
X106634126Y-93587675D01*
X106631364Y-93598115D01*
X106626914Y-93669453D01*
X106627630Y-93674763D01*
X106626401Y-93679980D01*
X106623343Y-93767335D01*
X106623907Y-93770799D01*
X106623164Y-93774226D01*
X106621492Y-93871804D01*
X106621993Y-93874572D01*
X106621437Y-93877328D01*
X106621149Y-93979336D01*
X106621666Y-93981973D01*
X106621170Y-93984614D01*
X106622262Y-94085263D01*
X106622889Y-94088247D01*
X106622373Y-94091256D01*
X106624840Y-94184754D01*
X106625761Y-94188819D01*
X106625143Y-94192942D01*
X106628981Y-94273495D01*
X106630706Y-94280425D01*
X106629906Y-94287518D01*
X106635112Y-94349335D01*
X106639991Y-94366280D01*
X106639604Y-94383912D01*
X106646173Y-94421200D01*
X106666770Y-94474188D01*
X106668566Y-94480597D01*
X106676120Y-94515556D01*
X106679895Y-94521009D01*
X106682114Y-94528926D01*
X106686054Y-94536690D01*
X106695970Y-94549309D01*
X106700739Y-94561578D01*
X106726908Y-94588923D01*
X106761843Y-94639389D01*
X106771794Y-94645804D01*
X106779109Y-94655113D01*
X106803224Y-94668668D01*
X106804870Y-94670388D01*
X106811388Y-94673257D01*
X106818932Y-94677498D01*
X106819233Y-94677840D01*
X106821684Y-94679045D01*
X106834767Y-94686399D01*
X106888430Y-94720992D01*
X106911983Y-94730297D01*
X106934165Y-94734331D01*
X106954398Y-94744276D01*
X107004304Y-94757578D01*
X107011797Y-94758059D01*
X107018658Y-94761111D01*
X107088317Y-94776848D01*
X107093074Y-94776971D01*
X107097470Y-94778800D01*
X107180279Y-94795409D01*
X107183064Y-94795413D01*
X107185651Y-94796447D01*
X107214559Y-94801820D01*
X107215074Y-94801814D01*
X107215549Y-94802002D01*
X107354256Y-94827409D01*
X107462265Y-94847579D01*
X107509336Y-94856724D01*
X107525937Y-94897465D01*
X107557160Y-94977184D01*
X107587136Y-95056596D01*
X107594097Y-95075845D01*
X107564921Y-95118541D01*
X107506466Y-95203769D01*
X107490040Y-95227667D01*
X107489438Y-95229069D01*
X107488353Y-95230142D01*
X107428996Y-95317950D01*
X107427727Y-95320968D01*
X107425436Y-95323311D01*
X107373204Y-95403427D01*
X107371704Y-95407168D01*
X107368946Y-95410107D01*
X107326685Y-95477931D01*
X107324397Y-95483994D01*
X107320120Y-95488865D01*
X107290675Y-95539796D01*
X107285252Y-95555741D01*
X107275271Y-95569308D01*
X107261487Y-95598746D01*
X107251095Y-95640927D01*
X107235296Y-95674965D01*
X107234931Y-95683667D01*
X107231482Y-95692329D01*
X107230814Y-95695946D01*
X107231169Y-95721803D01*
X107225458Y-95744983D01*
X107230873Y-95780541D01*
X107228992Y-95825442D01*
X107232732Y-95835660D01*
X107232881Y-95846542D01*
X107245329Y-95875465D01*
X107248133Y-95893876D01*
X107262332Y-95917359D01*
X107263205Y-95918928D01*
X107280754Y-95966878D01*
X107292335Y-95985887D01*
X107312991Y-96008349D01*
X107327835Y-96035011D01*
X107359835Y-96072668D01*
X107366248Y-96077750D01*
X107370523Y-96084726D01*
X107418829Y-96136985D01*
X107422089Y-96139353D01*
X107424264Y-96142745D01*
X107484761Y-96205558D01*
X107486919Y-96207060D01*
X107488368Y-96209253D01*
X107556944Y-96278573D01*
X107558682Y-96279748D01*
X107559856Y-96281485D01*
X107632396Y-96353263D01*
X107634060Y-96354362D01*
X107635196Y-96356007D01*
X107707588Y-96426199D01*
X107709483Y-96427423D01*
X107710785Y-96429263D01*
X107778912Y-96493820D01*
X107781509Y-96495456D01*
X107783322Y-96497934D01*
X107843074Y-96552809D01*
X107847524Y-96555516D01*
X107850710Y-96559637D01*
X107853334Y-96561921D01*
X107841756Y-96564704D01*
X107838713Y-96563754D01*
X107792539Y-96558830D01*
X107747642Y-96546960D01*
X107694930Y-96543682D01*
X107656406Y-96548885D01*
X107617595Y-96546646D01*
X107555235Y-96555353D01*
X107526303Y-96565428D01*
X107495824Y-96568491D01*
X107438347Y-96586052D01*
X107423338Y-96594113D01*
X107393736Y-96582580D01*
X107344518Y-96573870D01*
X107296897Y-96558682D01*
X107197745Y-96547492D01*
X107148988Y-96551596D01*
X107100133Y-96548899D01*
X106999100Y-96563261D01*
X106951692Y-96579901D01*
X106902500Y-96590147D01*
X106824470Y-96623295D01*
X106787684Y-96608605D01*
X106732881Y-96581769D01*
X106642036Y-96557698D01*
X106583382Y-96554018D01*
X106525274Y-96545237D01*
X106423320Y-96549969D01*
X106387238Y-96558904D01*
X106350095Y-96560463D01*
X106307305Y-96570858D01*
X106272861Y-96586850D01*
X106235960Y-96595805D01*
X106153925Y-96633869D01*
X106113794Y-96663178D01*
X106070082Y-96686813D01*
X105999935Y-96744949D01*
X105967066Y-96785395D01*
X105929499Y-96821537D01*
X105880951Y-96891241D01*
X105865026Y-96927679D01*
X105842601Y-96960512D01*
X105835931Y-96976161D01*
X105828649Y-97010917D01*
X105828442Y-97011390D01*
X105814293Y-97043423D01*
X105805144Y-97084417D01*
X105804627Y-97106686D01*
X105798011Y-97127953D01*
X105791606Y-97188594D01*
X105792845Y-97202157D01*
X105789715Y-97215411D01*
X105787534Y-97276703D01*
X105788651Y-97283589D01*
X105787290Y-97290430D01*
X105787290Y-97406316D01*
X105806590Y-97503344D01*
X105802871Y-97526864D01*
X105788800Y-97570387D01*
X105791219Y-97600555D01*
X105786492Y-97630447D01*
X100481000Y-97630447D01*
X100481000Y-95270000D01*
X100744883Y-95270000D01*
X100838587Y-95741083D01*
X101105435Y-96140448D01*
X101504800Y-96407296D01*
X101975883Y-96501000D01*
X102024117Y-96501000D01*
X102495200Y-96407296D01*
X102894565Y-96140448D01*
X103161413Y-95741083D01*
X103255117Y-95270000D01*
X103161413Y-94798917D01*
X102894565Y-94399552D01*
X102495200Y-94132704D01*
X102024117Y-94039000D01*
X101975883Y-94039000D01*
X101504800Y-94132704D01*
X101105435Y-94399552D01*
X100838587Y-94798917D01*
X100744883Y-95270000D01*
X100481000Y-95270000D01*
X100481000Y-91880000D01*
X100761536Y-91880000D01*
X100761536Y-93580000D01*
X100788103Y-93721190D01*
X100871546Y-93850865D01*
X100998866Y-93937859D01*
X101150000Y-93968464D01*
X102850000Y-93968464D01*
X102991190Y-93941897D01*
X103120865Y-93858454D01*
X103207859Y-93731134D01*
X103238464Y-93580000D01*
X103238464Y-91880000D01*
X103211897Y-91738810D01*
X103128454Y-91609135D01*
X103001134Y-91522141D01*
X102850000Y-91491536D01*
X101150000Y-91491536D01*
X101008810Y-91518103D01*
X100879135Y-91601546D01*
X100792141Y-91728866D01*
X100761536Y-91880000D01*
X100481000Y-91880000D01*
X100481000Y-88847375D01*
X100513988Y-88681531D01*
X100581097Y-88581096D01*
X100681530Y-88513988D01*
X100847375Y-88481000D01*
X119152625Y-88481000D01*
X119318469Y-88513988D01*
X119318469Y-88513988D01*
G37*
X119318469Y-88513988D02*
X119418904Y-88581097D01*
X119486012Y-88681530D01*
X119519000Y-88847375D01*
X119519000Y-99152625D01*
X119486012Y-99318470D01*
X119418904Y-99418903D01*
X119318469Y-99486012D01*
X119152625Y-99519000D01*
X100847375Y-99519000D01*
X100681530Y-99486012D01*
X100581097Y-99418904D01*
X100513988Y-99318469D01*
X100481000Y-99152625D01*
X100481000Y-97630447D01*
X105786492Y-97630447D01*
X105797181Y-97674921D01*
X105800836Y-97720514D01*
X105814614Y-97747459D01*
X105821687Y-97776887D01*
X105848581Y-97813884D01*
X105869406Y-97854609D01*
X105892449Y-97874232D01*
X105910244Y-97898711D01*
X105967703Y-97951799D01*
X105995295Y-97968698D01*
X106018401Y-97991349D01*
X106095111Y-98041509D01*
X106143197Y-98060869D01*
X106188523Y-98086019D01*
X106282862Y-98116262D01*
X106326448Y-98121247D01*
X106368617Y-98133353D01*
X106470092Y-98141816D01*
X106515515Y-98136654D01*
X106561179Y-98138614D01*
X106659295Y-98123437D01*
X106688663Y-98112723D01*
X106719706Y-98109037D01*
X106735537Y-98103887D01*
X106763756Y-98088070D01*
X106794798Y-98078978D01*
X106798880Y-98076847D01*
X106750549Y-98145746D01*
X106728924Y-98194781D01*
X106701835Y-98241020D01*
X106671407Y-98328823D01*
X106665143Y-98374173D01*
X106651925Y-98418004D01*
X106641471Y-98525938D01*
X106643230Y-98543507D01*
X106639680Y-98560805D01*
X106639627Y-98569530D01*
X106639814Y-98570498D01*
X106639620Y-98571466D01*
X106639527Y-98659196D01*
X106639568Y-98659401D01*
X106639527Y-98659605D01*
X106654112Y-98732927D01*
X106668754Y-98806943D01*
X106668869Y-98807116D01*
X106668910Y-98807321D01*
X106672891Y-98813279D01*
X106664413Y-98841145D01*
X106666126Y-98858689D01*
X106662537Y-98875948D01*
X106673394Y-98933121D01*
X106679050Y-98991041D01*
X106684737Y-99001702D01*
X106684894Y-99003676D01*
X106687917Y-99009595D01*
X106690636Y-99023914D01*
X106698419Y-99043175D01*
X106714779Y-99068126D01*
X106720330Y-99086321D01*
X106738155Y-99107972D01*
X106753392Y-99137808D01*
X106757552Y-99143075D01*
X106771999Y-99155391D01*
X106781004Y-99169124D01*
X106798067Y-99180740D01*
X106816059Y-99202594D01*
X106844237Y-99225645D01*
X106868831Y-99238741D01*
X106889436Y-99257503D01*
X106935931Y-99285516D01*
X106949749Y-99290496D01*
X106961324Y-99299544D01*
X106993752Y-99315897D01*
X107024367Y-99324395D01*
X107052258Y-99339621D01*
X107144307Y-99368434D01*
X107185081Y-99372814D01*
X107224401Y-99384449D01*
X107326310Y-99393785D01*
X107365852Y-99389618D01*
X107405482Y-99392884D01*
X107501995Y-99381821D01*
X107533560Y-99371693D01*
X107566578Y-99368757D01*
X107593607Y-99360837D01*
X107629092Y-99342301D01*
X107667388Y-99330639D01*
X107751046Y-99285808D01*
X107776313Y-99265027D01*
X107788636Y-99283469D01*
X107913863Y-99367143D01*
X108061579Y-99396526D01*
X108245395Y-99396526D01*
X108319183Y-99381848D01*
X108386690Y-99396471D01*
X108389969Y-99395876D01*
X108393235Y-99396526D01*
X108486420Y-99396526D01*
X108494475Y-99394924D01*
X108502588Y-99396187D01*
X108559121Y-99393817D01*
X108602190Y-99383357D01*
X108630259Y-99381250D01*
X108662078Y-99389674D01*
X108739976Y-99394546D01*
X108770644Y-99390415D01*
X108801438Y-99393486D01*
X108883372Y-99385517D01*
X108916240Y-99375590D01*
X108950466Y-99372926D01*
X109023181Y-99352485D01*
X109046822Y-99340465D01*
X109072734Y-99334831D01*
X109079257Y-99331993D01*
X109097887Y-99319061D01*
X109130390Y-99345011D01*
X109134117Y-99346087D01*
X109137193Y-99348445D01*
X109206339Y-99366938D01*
X109275090Y-99386786D01*
X109278941Y-99386354D01*
X109282690Y-99387357D01*
X109437654Y-99397439D01*
X109469127Y-99393280D01*
X109500716Y-99396377D01*
X109543072Y-99383508D01*
X109586966Y-99377708D01*
X109614450Y-99361822D01*
X109627209Y-99357946D01*
X109640973Y-99367143D01*
X109694999Y-99377890D01*
X109747575Y-99394330D01*
X109768290Y-99392468D01*
X109788689Y-99396526D01*
X109942505Y-99396526D01*
X109959008Y-99393243D01*
X109975730Y-99395093D01*
X110032371Y-99378650D01*
X110090221Y-99367143D01*
X110104211Y-99357795D01*
X110105223Y-99357501D01*
X110119653Y-99367143D01*
X110267369Y-99396526D01*
X110359277Y-99396526D01*
X110364918Y-99395404D01*
X110370589Y-99396360D01*
X110423935Y-99394796D01*
X110461618Y-99386145D01*
X110500257Y-99384882D01*
X110528042Y-99378405D01*
X110528162Y-99378351D01*
X110536520Y-99379237D01*
X110590266Y-99390858D01*
X110680993Y-99392363D01*
X110732897Y-99382931D01*
X110785554Y-99379727D01*
X110859316Y-99360332D01*
X110918305Y-99331584D01*
X110978680Y-99305894D01*
X111013075Y-99282431D01*
X111013768Y-99283469D01*
X111138995Y-99367143D01*
X111286711Y-99396526D01*
X111453816Y-99396526D01*
X111537369Y-99379906D01*
X111620922Y-99396526D01*
X111701132Y-99396526D01*
X111714538Y-99393859D01*
X111728098Y-99395583D01*
X111779260Y-99392000D01*
X111810255Y-99383546D01*
X111841462Y-99382324D01*
X111866025Y-99389199D01*
X111929318Y-99394054D01*
X111949941Y-99391572D01*
X111970429Y-99395011D01*
X112040579Y-99392904D01*
X112060831Y-99388239D01*
X112081578Y-99389479D01*
X112145729Y-99380657D01*
X112174503Y-99370704D01*
X112204808Y-99367751D01*
X112219461Y-99363323D01*
X112225179Y-99367143D01*
X112372895Y-99396526D01*
X112556711Y-99396526D01*
X112704427Y-99367143D01*
X112712143Y-99361987D01*
X112767471Y-99372098D01*
X112826958Y-99387533D01*
X112914688Y-99392584D01*
X113002419Y-99397635D01*
X113013567Y-99396077D01*
X113024606Y-99398273D01*
X113087783Y-99385706D01*
X113151580Y-99376791D01*
X113161283Y-99371086D01*
X113172322Y-99368890D01*
X113225883Y-99333102D01*
X113281409Y-99300453D01*
X113288189Y-99291470D01*
X113297549Y-99285216D01*
X113333336Y-99231656D01*
X113372143Y-99180243D01*
X113374970Y-99169347D01*
X113381223Y-99159989D01*
X113393789Y-99096815D01*
X113409968Y-99034460D01*
X113408410Y-99023312D01*
X113410606Y-99012273D01*
X113410606Y-98136064D01*
X113451824Y-98135082D01*
X113501510Y-98140555D01*
X113599213Y-98132069D01*
X113645861Y-98118504D01*
X113693950Y-98111628D01*
X113768221Y-98085491D01*
X113812241Y-98059418D01*
X113859217Y-98039148D01*
X113923087Y-97995103D01*
X113954325Y-97962935D01*
X113990302Y-97936179D01*
X114042503Y-97878431D01*
X114057035Y-97854113D01*
X114077069Y-97834085D01*
X114077972Y-97832734D01*
X114081918Y-97823212D01*
X114088814Y-97815551D01*
X114110013Y-97779908D01*
X114120989Y-97748899D01*
X114138554Y-97721089D01*
X114152331Y-97685248D01*
X114158404Y-97650001D01*
X114171630Y-97616767D01*
X114179973Y-97571534D01*
X114179685Y-97550913D01*
X114185245Y-97531051D01*
X114190142Y-97467233D01*
X114189313Y-97460345D01*
X114190945Y-97453605D01*
X114193103Y-97401272D01*
X114192427Y-97396948D01*
X114193362Y-97392671D01*
X114194260Y-97345213D01*
X114195332Y-97288607D01*
X114193186Y-97276641D01*
X114195041Y-97264626D01*
X114191676Y-97186795D01*
X114185797Y-97162724D01*
X114186436Y-97137958D01*
X114176355Y-97079420D01*
X114162165Y-97042495D01*
X114155136Y-97003561D01*
X114136955Y-96957368D01*
X114113859Y-96921440D01*
X114097246Y-96882095D01*
X114069582Y-96841301D01*
X114054787Y-96826708D01*
X114044709Y-96808527D01*
X114034453Y-96796414D01*
X114017195Y-96782688D01*
X114004392Y-96764730D01*
X113940260Y-96704377D01*
X113894283Y-96675635D01*
X113851774Y-96641960D01*
X113782986Y-96606706D01*
X113727480Y-96590910D01*
X113673686Y-96570036D01*
X113589562Y-96555265D01*
X113561509Y-96555898D01*
X113534164Y-96549617D01*
X113493144Y-96548410D01*
X113464920Y-96553166D01*
X113436386Y-96550923D01*
X113327811Y-96563784D01*
X113273189Y-96581538D01*
X113217134Y-96594068D01*
X113201212Y-96601107D01*
X113172322Y-96581804D01*
X113024606Y-96552421D01*
X112932698Y-96552421D01*
X112925100Y-96553932D01*
X112917446Y-96552722D01*
X112862265Y-96554904D01*
X112819760Y-96565120D01*
X112807043Y-96566004D01*
X112771921Y-96562071D01*
X112719685Y-96550057D01*
X112631636Y-96547441D01*
X112583008Y-96555621D01*
X112533718Y-96557077D01*
X112450186Y-96576274D01*
X112409131Y-96594719D01*
X112365668Y-96606398D01*
X112330436Y-96623804D01*
X112307241Y-96641628D01*
X112302375Y-96643762D01*
X112263123Y-96625974D01*
X112211627Y-96597080D01*
X112121376Y-96567676D01*
X112160408Y-96532552D01*
X112162177Y-96530184D01*
X112164694Y-96528636D01*
X112231451Y-96466720D01*
X112232695Y-96465002D01*
X112234488Y-96463872D01*
X112310760Y-96391585D01*
X112311615Y-96390377D01*
X112312862Y-96389578D01*
X112361101Y-96343165D01*
X112362280Y-96341473D01*
X112364003Y-96340343D01*
X112448397Y-96257423D01*
X112450296Y-96254635D01*
X112453085Y-96252737D01*
X112526021Y-96178570D01*
X112528430Y-96174899D01*
X112532003Y-96172349D01*
X112590531Y-96110109D01*
X112594347Y-96103999D01*
X112600054Y-96099602D01*
X112641226Y-96052463D01*
X112650170Y-96036898D01*
X112663323Y-96024682D01*
X112684192Y-95995814D01*
X112707340Y-95945285D01*
X112730335Y-95910696D01*
X112731922Y-95902617D01*
X112736630Y-95894502D01*
X112738633Y-95888644D01*
X112740836Y-95872168D01*
X112746920Y-95858889D01*
X112748401Y-95818748D01*
X112759372Y-95762913D01*
X112757014Y-95751204D01*
X112758598Y-95739363D01*
X112752217Y-95715350D01*
X112752474Y-95708382D01*
X112747029Y-95693731D01*
X112747059Y-95693314D01*
X112743610Y-95682962D01*
X112742226Y-95677753D01*
X112729645Y-95615266D01*
X112720354Y-95592983D01*
X112707017Y-95573124D01*
X112699455Y-95550425D01*
X112673781Y-95505370D01*
X112669045Y-95499908D01*
X112666509Y-95493138D01*
X112627299Y-95429872D01*
X112624530Y-95426906D01*
X112623028Y-95423137D01*
X112573131Y-95346221D01*
X112570974Y-95344005D01*
X112569784Y-95341149D01*
X112512048Y-95255145D01*
X112510767Y-95253870D01*
X112510057Y-95252209D01*
X112493639Y-95228232D01*
X112493470Y-95228067D01*
X112493376Y-95227848D01*
X112433880Y-95141185D01*
X112389163Y-95075817D01*
X112393164Y-95064695D01*
X112422910Y-94985574D01*
X112454127Y-94905565D01*
X112473938Y-94856725D01*
X112503672Y-94850886D01*
X112606138Y-94831643D01*
X112738776Y-94807286D01*
X112767455Y-94802055D01*
X112769366Y-94801299D01*
X112771419Y-94801310D01*
X112857106Y-94784755D01*
X112861223Y-94783076D01*
X112865667Y-94783000D01*
X112940367Y-94766805D01*
X112946016Y-94764351D01*
X112952170Y-94764052D01*
X113009281Y-94749779D01*
X113021963Y-94743789D01*
X113035888Y-94742106D01*
X113068811Y-94731318D01*
X113099276Y-94714157D01*
X113127849Y-94706136D01*
X113132918Y-94702150D01*
X113139709Y-94699888D01*
X113144123Y-94697373D01*
X113172049Y-94673163D01*
X113200033Y-94657399D01*
X113216456Y-94636460D01*
X113246239Y-94613040D01*
X113250832Y-94604861D01*
X113257921Y-94598716D01*
X113278811Y-94556958D01*
X113292980Y-94538892D01*
X113295364Y-94530359D01*
X113297031Y-94528408D01*
X113301515Y-94514622D01*
X113319992Y-94481724D01*
X113327267Y-94459427D01*
X113331803Y-94421503D01*
X113343616Y-94385184D01*
X113349529Y-94335356D01*
X113348693Y-94324688D01*
X113351442Y-94314345D01*
X113355989Y-94242780D01*
X113355283Y-94237502D01*
X113356512Y-94232317D01*
X113359691Y-94144806D01*
X113359132Y-94141345D01*
X113359879Y-94137922D01*
X113361683Y-94040256D01*
X113361187Y-94037497D01*
X113361746Y-94034747D01*
X113362174Y-93932720D01*
X113361661Y-93930082D01*
X113362160Y-93927441D01*
X113361206Y-93826843D01*
X113360581Y-93823849D01*
X113361102Y-93820837D01*
X113358763Y-93727461D01*
X113357844Y-93723377D01*
X113358469Y-93719239D01*
X113354741Y-93638878D01*
X113353014Y-93631902D01*
X113353827Y-93624757D01*
X113348705Y-93563201D01*
X113343779Y-93546029D01*
X113344168Y-93528169D01*
X113337650Y-93491211D01*
X113316401Y-93436575D01*
X113304464Y-93395501D01*
X113301186Y-93382847D01*
X113300536Y-93381985D01*
X113300042Y-93380285D01*
X113296112Y-93372721D01*
X113287280Y-93361699D01*
X113283058Y-93350843D01*
X113255595Y-93322156D01*
X113252497Y-93318290D01*
X113210497Y-93262602D01*
X113205535Y-93259682D01*
X113201934Y-93255188D01*
X113179878Y-93243065D01*
X113178907Y-93242051D01*
X113174526Y-93240124D01*
X113161450Y-93232937D01*
X113161270Y-93232738D01*
X113159999Y-93232139D01*
X113140811Y-93221592D01*
X113080696Y-93186215D01*
X113058818Y-93178585D01*
X113041164Y-93176111D01*
X113025041Y-93168510D01*
X112975225Y-93156096D01*
X112970072Y-93155849D01*
X112965348Y-93153772D01*
X112892554Y-93137652D01*
X112889740Y-93137591D01*
X112887147Y-93136495D01*
X112796340Y-93117746D01*
X112794262Y-93117731D01*
X112792342Y-93116943D01*
X112688484Y-93096641D01*
X112687077Y-93096646D01*
X112685769Y-93096120D01*
X112629184Y-93085479D01*
X112628972Y-93085481D01*
X112628777Y-93085403D01*
X112521786Y-93065402D01*
X112449620Y-93051698D01*
X112446118Y-93043595D01*
X112412334Y-92964470D01*
X112378716Y-92884899D01*
X112370184Y-92864465D01*
X112383099Y-92845090D01*
X112440332Y-92760747D01*
X112473852Y-92711935D01*
X112474077Y-92711411D01*
X112474483Y-92711013D01*
X112536715Y-92619828D01*
X112537499Y-92617987D01*
X112538913Y-92616572D01*
X112594187Y-92533786D01*
X112595121Y-92531528D01*
X112596829Y-92529776D01*
X112642447Y-92459576D01*
X112643856Y-92456048D01*
X112646452Y-92453279D01*
X112679718Y-92399854D01*
X112682868Y-92391501D01*
X112688673Y-92384715D01*
X112706889Y-92352251D01*
X112716776Y-92321910D01*
X112733273Y-92294589D01*
X112735904Y-92287311D01*
X112740279Y-92258465D01*
X112751451Y-92231521D01*
X112751457Y-92215476D01*
X112753550Y-92209052D01*
X112751591Y-92183889D01*
X112758490Y-92138404D01*
X112751494Y-92110081D01*
X112751504Y-92080911D01*
X112733602Y-92037649D01*
X112722373Y-91992189D01*
X112705071Y-91968700D01*
X112693917Y-91941745D01*
X112682609Y-91924808D01*
X112665527Y-91907714D01*
X112653593Y-91886701D01*
X112622325Y-91850533D01*
X112617554Y-91846818D01*
X112614407Y-91841654D01*
X112567177Y-91790311D01*
X112564823Y-91788592D01*
X112563268Y-91786124D01*
X112504070Y-91723656D01*
X112502537Y-91722571D01*
X112501521Y-91720992D01*
X112434348Y-91651451D01*
X112433133Y-91650608D01*
X112432323Y-91649370D01*
X112361170Y-91576809D01*
X112360022Y-91576026D01*
X112359254Y-91574869D01*
X112288114Y-91503339D01*
X112286831Y-91502477D01*
X112285966Y-91501196D01*
X112218833Y-91434748D01*
X112217113Y-91433611D01*
X112215940Y-91431914D01*
X112156808Y-91374601D01*
X112153946Y-91372753D01*
X112151962Y-91369985D01*
X112104826Y-91325858D01*
X112098115Y-91321687D01*
X112093255Y-91315455D01*
X112062107Y-91288567D01*
X112048564Y-91280889D01*
X112044955Y-91276472D01*
X112029759Y-91268309D01*
X112012286Y-91252085D01*
X112001866Y-91245668D01*
X111957148Y-91229059D01*
X111931090Y-91214285D01*
X111928626Y-91213980D01*
X111912278Y-91205198D01*
X111885709Y-91202525D01*
X111860680Y-91193229D01*
X111811448Y-91195055D01*
X111762425Y-91190123D01*
X111736857Y-91197821D01*
X111710174Y-91198810D01*
X111665389Y-91219337D01*
X111618209Y-91233541D01*
X111601243Y-91242564D01*
X111590708Y-91251173D01*
X111577984Y-91255992D01*
X111537404Y-91281342D01*
X111534939Y-91283660D01*
X111531796Y-91284913D01*
X111471548Y-91324008D01*
X111470298Y-91325225D01*
X111468681Y-91325886D01*
X111392711Y-91376147D01*
X111391835Y-91377015D01*
X111390699Y-91377488D01*
X111302952Y-91436334D01*
X111302315Y-91436973D01*
X111301483Y-91437324D01*
X111235293Y-91482155D01*
X111235040Y-91482412D01*
X111234706Y-91482553D01*
X111072217Y-91593045D01*
X110985679Y-91557371D01*
X110900359Y-91522199D01*
X110863573Y-91327072D01*
X110863573Y-91327068D01*
X110788025Y-90926321D01*
X110773113Y-90889275D01*
X110765323Y-90850113D01*
X110745266Y-90820096D01*
X110731785Y-90786605D01*
X110703835Y-90758089D01*
X110681649Y-90724886D01*
X110651629Y-90704827D01*
X110626360Y-90679047D01*
X110589626Y-90663398D01*
X110556422Y-90641212D01*
X110521012Y-90634168D01*
X110487800Y-90620020D01*
X110447872Y-90619620D01*
X110408706Y-90611829D01*
X109574585Y-90611829D01*
X109535418Y-90619620D01*
X109495492Y-90620020D01*
X109462279Y-90634168D01*
X109426869Y-90641212D01*
X109393668Y-90663396D01*
X109356931Y-90679046D01*
X109331659Y-90704829D01*
X109301642Y-90724886D01*
X109279459Y-90758086D01*
X109251506Y-90786604D01*
X109238025Y-90820096D01*
X109217968Y-90850113D01*
X109210178Y-90889277D01*
X109195267Y-90926320D01*
X109119718Y-91327067D01*
X109082932Y-91522199D01*
X108911074Y-91593044D01*
X108748585Y-91482553D01*
X108748096Y-91482346D01*
X108747723Y-91481969D01*
X108654066Y-91418651D01*
X108653031Y-91418216D01*
X108652241Y-91417426D01*
X108567582Y-91360891D01*
X108566314Y-91360366D01*
X108565337Y-91359403D01*
X108493624Y-91312234D01*
X108491684Y-91311447D01*
X108490179Y-91309995D01*
X108435363Y-91274770D01*
X108430991Y-91273050D01*
X108427532Y-91269869D01*
X108393563Y-91249172D01*
X108375671Y-91242623D01*
X108360456Y-91231155D01*
X108351206Y-91226692D01*
X108301315Y-91213783D01*
X108253434Y-91194736D01*
X108229028Y-91195080D01*
X108205398Y-91188966D01*
X108154365Y-91196132D01*
X108102840Y-91196858D01*
X108080425Y-91206515D01*
X108056252Y-91209909D01*
X108011850Y-91236057D01*
X107964520Y-91256447D01*
X107947855Y-91267925D01*
X107934623Y-91281535D01*
X107926474Y-91286334D01*
X107924284Y-91289239D01*
X107910014Y-91297629D01*
X107874403Y-91329360D01*
X107870761Y-91334185D01*
X107865642Y-91337411D01*
X107815077Y-91385344D01*
X107813398Y-91387717D01*
X107810959Y-91389305D01*
X107749430Y-91449384D01*
X107748371Y-91450928D01*
X107746813Y-91451964D01*
X107678314Y-91520136D01*
X107677493Y-91521359D01*
X107676271Y-91522184D01*
X107604791Y-91594396D01*
X107604031Y-91595547D01*
X107602890Y-91596329D01*
X107532422Y-91668526D01*
X107531580Y-91669820D01*
X107530317Y-91670701D01*
X107464852Y-91738832D01*
X107463746Y-91740560D01*
X107462078Y-91741750D01*
X107405609Y-91801760D01*
X107403814Y-91804632D01*
X107401091Y-91806645D01*
X107357607Y-91854481D01*
X107353570Y-91861194D01*
X107347464Y-91866098D01*
X107320959Y-91897706D01*
X107306207Y-91924616D01*
X107285605Y-91947357D01*
X107279267Y-91957935D01*
X107266763Y-91992906D01*
X107247532Y-92024675D01*
X107241656Y-92063129D01*
X107228561Y-92099753D01*
X107230391Y-92136843D01*
X107224781Y-92173556D01*
X107234067Y-92211329D01*
X107235984Y-92250179D01*
X107251870Y-92283748D01*
X107260736Y-92319812D01*
X107269855Y-92339313D01*
X107281611Y-92355310D01*
X107288286Y-92374008D01*
X107313852Y-92416733D01*
X107317499Y-92420763D01*
X107319467Y-92425828D01*
X107358790Y-92487595D01*
X107360798Y-92489694D01*
X107361889Y-92492384D01*
X107412283Y-92569017D01*
X107413768Y-92570524D01*
X107414585Y-92572477D01*
X107473360Y-92659794D01*
X107474385Y-92660812D01*
X107474952Y-92662140D01*
X107509005Y-92711935D01*
X107570163Y-92801527D01*
X107612915Y-92865129D01*
X107609489Y-92873335D01*
X107576030Y-92952533D01*
X107542208Y-93031782D01*
X107533607Y-93051712D01*
X107514299Y-93055414D01*
X107413605Y-93074394D01*
X107354747Y-93085359D01*
X107354024Y-93085648D01*
X107353248Y-93085642D01*
X107244632Y-93106322D01*
X107242843Y-93107046D01*
X107240912Y-93107049D01*
X107142807Y-93126728D01*
X107140650Y-93127625D01*
X107138312Y-93127657D01*
X107055680Y-93145258D01*
X107052373Y-93146680D01*
X107048771Y-93146795D01*
X106986576Y-93161239D01*
X106978974Y-93164675D01*
X106970659Y-93165295D01*
X106933864Y-93175508D01*
X106909206Y-93187943D01*
X106882232Y-93193876D01*
X106874835Y-93197116D01*
X106866239Y-93203114D01*
X106856140Y-93205909D01*
X106824285Y-93230771D01*
X106799388Y-93243327D01*
X106785512Y-93259438D01*
X106751318Y-93283296D01*
X106745671Y-93292127D01*
X106737411Y-93298574D01*
X106709754Y-93347400D01*
X106701102Y-93357446D01*
X106698122Y-93366491D01*
X106690532Y-93378361D01*
X106685612Y-93384125D01*
X106684340Y-93388044D01*
X106670184Y-93410183D01*
X106668347Y-93420501D01*
X106663181Y-93429621D01*
X106655937Y-93451551D01*
X106651163Y-93490272D01*
X106639120Y-93527379D01*
X106633275Y-93576909D01*
X106634126Y-93587675D01*
X106631364Y-93598115D01*
X106626914Y-93669453D01*
X106627630Y-93674763D01*
X106626401Y-93679980D01*
X106623343Y-93767335D01*
X106623907Y-93770799D01*
X106623164Y-93774226D01*
X106621492Y-93871804D01*
X106621993Y-93874572D01*
X106621437Y-93877328D01*
X106621149Y-93979336D01*
X106621666Y-93981973D01*
X106621170Y-93984614D01*
X106622262Y-94085263D01*
X106622889Y-94088247D01*
X106622373Y-94091256D01*
X106624840Y-94184754D01*
X106625761Y-94188819D01*
X106625143Y-94192942D01*
X106628981Y-94273495D01*
X106630706Y-94280425D01*
X106629906Y-94287518D01*
X106635112Y-94349335D01*
X106639991Y-94366280D01*
X106639604Y-94383912D01*
X106646173Y-94421200D01*
X106666770Y-94474188D01*
X106668566Y-94480597D01*
X106676120Y-94515556D01*
X106679895Y-94521009D01*
X106682114Y-94528926D01*
X106686054Y-94536690D01*
X106695970Y-94549309D01*
X106700739Y-94561578D01*
X106726908Y-94588923D01*
X106761843Y-94639389D01*
X106771794Y-94645804D01*
X106779109Y-94655113D01*
X106803224Y-94668668D01*
X106804870Y-94670388D01*
X106811388Y-94673257D01*
X106818932Y-94677498D01*
X106819233Y-94677840D01*
X106821684Y-94679045D01*
X106834767Y-94686399D01*
X106888430Y-94720992D01*
X106911983Y-94730297D01*
X106934165Y-94734331D01*
X106954398Y-94744276D01*
X107004304Y-94757578D01*
X107011797Y-94758059D01*
X107018658Y-94761111D01*
X107088317Y-94776848D01*
X107093074Y-94776971D01*
X107097470Y-94778800D01*
X107180279Y-94795409D01*
X107183064Y-94795413D01*
X107185651Y-94796447D01*
X107214559Y-94801820D01*
X107215074Y-94801814D01*
X107215549Y-94802002D01*
X107354256Y-94827409D01*
X107462265Y-94847579D01*
X107509336Y-94856724D01*
X107525937Y-94897465D01*
X107557160Y-94977184D01*
X107587136Y-95056596D01*
X107594097Y-95075845D01*
X107564921Y-95118541D01*
X107506466Y-95203769D01*
X107490040Y-95227667D01*
X107489438Y-95229069D01*
X107488353Y-95230142D01*
X107428996Y-95317950D01*
X107427727Y-95320968D01*
X107425436Y-95323311D01*
X107373204Y-95403427D01*
X107371704Y-95407168D01*
X107368946Y-95410107D01*
X107326685Y-95477931D01*
X107324397Y-95483994D01*
X107320120Y-95488865D01*
X107290675Y-95539796D01*
X107285252Y-95555741D01*
X107275271Y-95569308D01*
X107261487Y-95598746D01*
X107251095Y-95640927D01*
X107235296Y-95674965D01*
X107234931Y-95683667D01*
X107231482Y-95692329D01*
X107230814Y-95695946D01*
X107231169Y-95721803D01*
X107225458Y-95744983D01*
X107230873Y-95780541D01*
X107228992Y-95825442D01*
X107232732Y-95835660D01*
X107232881Y-95846542D01*
X107245329Y-95875465D01*
X107248133Y-95893876D01*
X107262332Y-95917359D01*
X107263205Y-95918928D01*
X107280754Y-95966878D01*
X107292335Y-95985887D01*
X107312991Y-96008349D01*
X107327835Y-96035011D01*
X107359835Y-96072668D01*
X107366248Y-96077750D01*
X107370523Y-96084726D01*
X107418829Y-96136985D01*
X107422089Y-96139353D01*
X107424264Y-96142745D01*
X107484761Y-96205558D01*
X107486919Y-96207060D01*
X107488368Y-96209253D01*
X107556944Y-96278573D01*
X107558682Y-96279748D01*
X107559856Y-96281485D01*
X107632396Y-96353263D01*
X107634060Y-96354362D01*
X107635196Y-96356007D01*
X107707588Y-96426199D01*
X107709483Y-96427423D01*
X107710785Y-96429263D01*
X107778912Y-96493820D01*
X107781509Y-96495456D01*
X107783322Y-96497934D01*
X107843074Y-96552809D01*
X107847524Y-96555516D01*
X107850710Y-96559637D01*
X107853334Y-96561921D01*
X107841756Y-96564704D01*
X107838713Y-96563754D01*
X107792539Y-96558830D01*
X107747642Y-96546960D01*
X107694930Y-96543682D01*
X107656406Y-96548885D01*
X107617595Y-96546646D01*
X107555235Y-96555353D01*
X107526303Y-96565428D01*
X107495824Y-96568491D01*
X107438347Y-96586052D01*
X107423338Y-96594113D01*
X107393736Y-96582580D01*
X107344518Y-96573870D01*
X107296897Y-96558682D01*
X107197745Y-96547492D01*
X107148988Y-96551596D01*
X107100133Y-96548899D01*
X106999100Y-96563261D01*
X106951692Y-96579901D01*
X106902500Y-96590147D01*
X106824470Y-96623295D01*
X106787684Y-96608605D01*
X106732881Y-96581769D01*
X106642036Y-96557698D01*
X106583382Y-96554018D01*
X106525274Y-96545237D01*
X106423320Y-96549969D01*
X106387238Y-96558904D01*
X106350095Y-96560463D01*
X106307305Y-96570858D01*
X106272861Y-96586850D01*
X106235960Y-96595805D01*
X106153925Y-96633869D01*
X106113794Y-96663178D01*
X106070082Y-96686813D01*
X105999935Y-96744949D01*
X105967066Y-96785395D01*
X105929499Y-96821537D01*
X105880951Y-96891241D01*
X105865026Y-96927679D01*
X105842601Y-96960512D01*
X105835931Y-96976161D01*
X105828649Y-97010917D01*
X105828442Y-97011390D01*
X105814293Y-97043423D01*
X105805144Y-97084417D01*
X105804627Y-97106686D01*
X105798011Y-97127953D01*
X105791606Y-97188594D01*
X105792845Y-97202157D01*
X105789715Y-97215411D01*
X105787534Y-97276703D01*
X105788651Y-97283589D01*
X105787290Y-97290430D01*
X105787290Y-97406316D01*
X105806590Y-97503344D01*
X105802871Y-97526864D01*
X105788800Y-97570387D01*
X105791219Y-97600555D01*
X105786492Y-97630447D01*
X100481000Y-97630447D01*
X100481000Y-95270000D01*
X100744883Y-95270000D01*
X100838587Y-95741083D01*
X101105435Y-96140448D01*
X101504800Y-96407296D01*
X101975883Y-96501000D01*
X102024117Y-96501000D01*
X102495200Y-96407296D01*
X102894565Y-96140448D01*
X103161413Y-95741083D01*
X103255117Y-95270000D01*
X103161413Y-94798917D01*
X102894565Y-94399552D01*
X102495200Y-94132704D01*
X102024117Y-94039000D01*
X101975883Y-94039000D01*
X101504800Y-94132704D01*
X101105435Y-94399552D01*
X100838587Y-94798917D01*
X100744883Y-95270000D01*
X100481000Y-95270000D01*
X100481000Y-91880000D01*
X100761536Y-91880000D01*
X100761536Y-93580000D01*
X100788103Y-93721190D01*
X100871546Y-93850865D01*
X100998866Y-93937859D01*
X101150000Y-93968464D01*
X102850000Y-93968464D01*
X102991190Y-93941897D01*
X103120865Y-93858454D01*
X103207859Y-93731134D01*
X103238464Y-93580000D01*
X103238464Y-91880000D01*
X103211897Y-91738810D01*
X103128454Y-91609135D01*
X103001134Y-91522141D01*
X102850000Y-91491536D01*
X101150000Y-91491536D01*
X101008810Y-91518103D01*
X100879135Y-91601546D01*
X100792141Y-91728866D01*
X100761536Y-91880000D01*
X100481000Y-91880000D01*
X100481000Y-88847375D01*
X100513988Y-88681531D01*
X100581097Y-88581096D01*
X100681530Y-88513988D01*
X100847375Y-88481000D01*
X119152625Y-88481000D01*
X119318469Y-88513988D01*
G36*
X109993812Y-95015751D02*
X109995418Y-95018365D01*
X109995949Y-95021383D01*
X110030202Y-95109603D01*
X110031195Y-95111164D01*
X110031533Y-95112984D01*
X110072625Y-95215936D01*
X110073335Y-95217029D01*
X110073581Y-95218307D01*
X110119882Y-95332113D01*
X110120449Y-95332973D01*
X110120649Y-95333986D01*
X110170529Y-95454770D01*
X110171031Y-95455524D01*
X110171211Y-95456410D01*
X110223040Y-95580297D01*
X110223528Y-95581022D01*
X110223705Y-95581875D01*
X110275852Y-95704986D01*
X110276374Y-95705754D01*
X110276566Y-95706659D01*
X110327403Y-95825118D01*
X110328015Y-95826009D01*
X110328245Y-95827066D01*
X110376140Y-95936998D01*
X110376945Y-95938157D01*
X110377255Y-95939532D01*
X110420580Y-96037058D01*
X110421777Y-96038755D01*
X110422255Y-96040775D01*
X110459379Y-96122019D01*
X110461509Y-96124971D01*
X110462413Y-96128501D01*
X110491708Y-96189587D01*
X110496916Y-96196531D01*
X110499441Y-96204837D01*
X110519273Y-96241888D01*
X110543344Y-96271183D01*
X110561218Y-96304620D01*
X110569204Y-96314351D01*
X110570188Y-96315158D01*
X110570793Y-96316273D01*
X110599483Y-96339507D01*
X110614887Y-96358255D01*
X110637258Y-96370196D01*
X110685632Y-96409891D01*
X110686848Y-96410260D01*
X110687835Y-96411059D01*
X110746221Y-96428356D01*
X110747754Y-96429174D01*
X110749589Y-96429354D01*
X110758836Y-96432093D01*
X110829758Y-96453603D01*
X110831023Y-96453478D01*
X110832240Y-96453839D01*
X110897535Y-96446979D01*
X110902030Y-96447752D01*
X110911991Y-96445500D01*
X110979642Y-96438833D01*
X110980761Y-96438235D01*
X110982026Y-96438102D01*
X111006431Y-96430525D01*
X111026575Y-96419588D01*
X111048931Y-96414533D01*
X111094594Y-96394210D01*
X111101587Y-96389269D01*
X111109850Y-96387017D01*
X111143279Y-96370353D01*
X111198157Y-96407604D01*
X111288901Y-96469518D01*
X111374374Y-96528115D01*
X111409641Y-96552421D01*
X111395329Y-96552421D01*
X111387731Y-96553932D01*
X111380077Y-96552722D01*
X111324897Y-96554904D01*
X111282392Y-96565120D01*
X111266712Y-96566210D01*
X111236160Y-96562895D01*
X111184724Y-96551020D01*
X111097587Y-96548358D01*
X111051357Y-96556095D01*
X111004490Y-96556839D01*
X110920734Y-96574887D01*
X110879368Y-96592796D01*
X110835681Y-96603916D01*
X110794092Y-96623780D01*
X110767160Y-96643914D01*
X110736492Y-96657706D01*
X110696214Y-96686400D01*
X110669262Y-96715017D01*
X110637397Y-96738043D01*
X110606713Y-96771068D01*
X110604073Y-96775352D01*
X110561707Y-96734862D01*
X110509687Y-96683857D01*
X110507359Y-96682919D01*
X110505543Y-96681184D01*
X110435041Y-96636350D01*
X110377523Y-96614036D01*
X110321752Y-96587649D01*
X110225242Y-96563460D01*
X110190517Y-96561749D01*
X110156943Y-96552725D01*
X110085444Y-96547983D01*
X110066700Y-96550436D01*
X110048059Y-96547319D01*
X109969531Y-96549729D01*
X109939880Y-96556579D01*
X109909449Y-96556307D01*
X109846169Y-96568308D01*
X109814215Y-96581211D01*
X109780242Y-96587002D01*
X109714593Y-96612102D01*
X109704198Y-96618642D01*
X109692243Y-96621461D01*
X109685229Y-96624661D01*
X109676316Y-96631083D01*
X109668437Y-96633414D01*
X109667607Y-96632824D01*
X109579447Y-96593269D01*
X109544692Y-96585300D01*
X109512338Y-96570301D01*
X109493407Y-96565714D01*
X109465568Y-96564561D01*
X109438875Y-96556575D01*
X109325105Y-96545807D01*
X109272589Y-96551182D01*
X109219813Y-96550293D01*
X109119410Y-96568513D01*
X109062315Y-96591044D01*
X109025639Y-96602483D01*
X108994690Y-96581804D01*
X108846974Y-96552421D01*
X108679869Y-96552421D01*
X108532153Y-96581804D01*
X108529474Y-96583594D01*
X108528677Y-96583062D01*
X108564118Y-96558980D01*
X108564929Y-96558156D01*
X108565991Y-96557699D01*
X108641458Y-96505769D01*
X108730881Y-96444587D01*
X108820255Y-96383722D01*
X108839958Y-96370365D01*
X108845631Y-96372016D01*
X108851263Y-96376209D01*
X108904683Y-96401597D01*
X108916561Y-96404596D01*
X108926826Y-96411283D01*
X108962972Y-96425763D01*
X108994540Y-96431660D01*
X109011916Y-96439251D01*
X109021436Y-96443769D01*
X109022365Y-96443816D01*
X109023970Y-96444517D01*
X109033170Y-96446531D01*
X109078826Y-96447406D01*
X109111021Y-96453420D01*
X109130647Y-96449278D01*
X109171854Y-96451356D01*
X109177628Y-96449299D01*
X109183753Y-96449416D01*
X109246497Y-96424825D01*
X109258383Y-96422316D01*
X109263834Y-96418581D01*
X109313726Y-96400803D01*
X109318271Y-96396694D01*
X109323977Y-96394458D01*
X109363422Y-96356497D01*
X109375205Y-96350016D01*
X109389097Y-96332670D01*
X109425453Y-96299805D01*
X109436516Y-96284929D01*
X109449875Y-96256779D01*
X109469352Y-96232459D01*
X109491179Y-96190422D01*
X109493163Y-96183587D01*
X109497410Y-96177871D01*
X109528370Y-96112551D01*
X109529158Y-96109415D01*
X109531043Y-96106789D01*
X109569507Y-96022062D01*
X109569944Y-96020193D01*
X109571048Y-96018623D01*
X109615386Y-95918368D01*
X109615677Y-95917066D01*
X109616438Y-95915968D01*
X109665023Y-95804061D01*
X109665246Y-95803033D01*
X109665840Y-95802165D01*
X109717041Y-95682486D01*
X109717231Y-95681588D01*
X109717745Y-95680829D01*
X109769932Y-95557254D01*
X109770109Y-95556396D01*
X109770599Y-95555666D01*
X109822145Y-95432073D01*
X109822329Y-95431159D01*
X109822843Y-95430386D01*
X109872116Y-95310652D01*
X109872324Y-95309593D01*
X109872916Y-95308692D01*
X109918290Y-95196694D01*
X109918551Y-95195327D01*
X109919307Y-95194158D01*
X109959149Y-95093775D01*
X109959515Y-95091778D01*
X109960600Y-95090063D01*
X109991556Y-95009660D01*
X109993812Y-95015751D01*
X109993812Y-95015751D01*
G37*
X109993812Y-95015751D02*
X109995418Y-95018365D01*
X109995949Y-95021383D01*
X110030202Y-95109603D01*
X110031195Y-95111164D01*
X110031533Y-95112984D01*
X110072625Y-95215936D01*
X110073335Y-95217029D01*
X110073581Y-95218307D01*
X110119882Y-95332113D01*
X110120449Y-95332973D01*
X110120649Y-95333986D01*
X110170529Y-95454770D01*
X110171031Y-95455524D01*
X110171211Y-95456410D01*
X110223040Y-95580297D01*
X110223528Y-95581022D01*
X110223705Y-95581875D01*
X110275852Y-95704986D01*
X110276374Y-95705754D01*
X110276566Y-95706659D01*
X110327403Y-95825118D01*
X110328015Y-95826009D01*
X110328245Y-95827066D01*
X110376140Y-95936998D01*
X110376945Y-95938157D01*
X110377255Y-95939532D01*
X110420580Y-96037058D01*
X110421777Y-96038755D01*
X110422255Y-96040775D01*
X110459379Y-96122019D01*
X110461509Y-96124971D01*
X110462413Y-96128501D01*
X110491708Y-96189587D01*
X110496916Y-96196531D01*
X110499441Y-96204837D01*
X110519273Y-96241888D01*
X110543344Y-96271183D01*
X110561218Y-96304620D01*
X110569204Y-96314351D01*
X110570188Y-96315158D01*
X110570793Y-96316273D01*
X110599483Y-96339507D01*
X110614887Y-96358255D01*
X110637258Y-96370196D01*
X110685632Y-96409891D01*
X110686848Y-96410260D01*
X110687835Y-96411059D01*
X110746221Y-96428356D01*
X110747754Y-96429174D01*
X110749589Y-96429354D01*
X110758836Y-96432093D01*
X110829758Y-96453603D01*
X110831023Y-96453478D01*
X110832240Y-96453839D01*
X110897535Y-96446979D01*
X110902030Y-96447752D01*
X110911991Y-96445500D01*
X110979642Y-96438833D01*
X110980761Y-96438235D01*
X110982026Y-96438102D01*
X111006431Y-96430525D01*
X111026575Y-96419588D01*
X111048931Y-96414533D01*
X111094594Y-96394210D01*
X111101587Y-96389269D01*
X111109850Y-96387017D01*
X111143279Y-96370353D01*
X111198157Y-96407604D01*
X111288901Y-96469518D01*
X111374374Y-96528115D01*
X111409641Y-96552421D01*
X111395329Y-96552421D01*
X111387731Y-96553932D01*
X111380077Y-96552722D01*
X111324897Y-96554904D01*
X111282392Y-96565120D01*
X111266712Y-96566210D01*
X111236160Y-96562895D01*
X111184724Y-96551020D01*
X111097587Y-96548358D01*
X111051357Y-96556095D01*
X111004490Y-96556839D01*
X110920734Y-96574887D01*
X110879368Y-96592796D01*
X110835681Y-96603916D01*
X110794092Y-96623780D01*
X110767160Y-96643914D01*
X110736492Y-96657706D01*
X110696214Y-96686400D01*
X110669262Y-96715017D01*
X110637397Y-96738043D01*
X110606713Y-96771068D01*
X110604073Y-96775352D01*
X110561707Y-96734862D01*
X110509687Y-96683857D01*
X110507359Y-96682919D01*
X110505543Y-96681184D01*
X110435041Y-96636350D01*
X110377523Y-96614036D01*
X110321752Y-96587649D01*
X110225242Y-96563460D01*
X110190517Y-96561749D01*
X110156943Y-96552725D01*
X110085444Y-96547983D01*
X110066700Y-96550436D01*
X110048059Y-96547319D01*
X109969531Y-96549729D01*
X109939880Y-96556579D01*
X109909449Y-96556307D01*
X109846169Y-96568308D01*
X109814215Y-96581211D01*
X109780242Y-96587002D01*
X109714593Y-96612102D01*
X109704198Y-96618642D01*
X109692243Y-96621461D01*
X109685229Y-96624661D01*
X109676316Y-96631083D01*
X109668437Y-96633414D01*
X109667607Y-96632824D01*
X109579447Y-96593269D01*
X109544692Y-96585300D01*
X109512338Y-96570301D01*
X109493407Y-96565714D01*
X109465568Y-96564561D01*
X109438875Y-96556575D01*
X109325105Y-96545807D01*
X109272589Y-96551182D01*
X109219813Y-96550293D01*
X109119410Y-96568513D01*
X109062315Y-96591044D01*
X109025639Y-96602483D01*
X108994690Y-96581804D01*
X108846974Y-96552421D01*
X108679869Y-96552421D01*
X108532153Y-96581804D01*
X108529474Y-96583594D01*
X108528677Y-96583062D01*
X108564118Y-96558980D01*
X108564929Y-96558156D01*
X108565991Y-96557699D01*
X108641458Y-96505769D01*
X108730881Y-96444587D01*
X108820255Y-96383722D01*
X108839958Y-96370365D01*
X108845631Y-96372016D01*
X108851263Y-96376209D01*
X108904683Y-96401597D01*
X108916561Y-96404596D01*
X108926826Y-96411283D01*
X108962972Y-96425763D01*
X108994540Y-96431660D01*
X109011916Y-96439251D01*
X109021436Y-96443769D01*
X109022365Y-96443816D01*
X109023970Y-96444517D01*
X109033170Y-96446531D01*
X109078826Y-96447406D01*
X109111021Y-96453420D01*
X109130647Y-96449278D01*
X109171854Y-96451356D01*
X109177628Y-96449299D01*
X109183753Y-96449416D01*
X109246497Y-96424825D01*
X109258383Y-96422316D01*
X109263834Y-96418581D01*
X109313726Y-96400803D01*
X109318271Y-96396694D01*
X109323977Y-96394458D01*
X109363422Y-96356497D01*
X109375205Y-96350016D01*
X109389097Y-96332670D01*
X109425453Y-96299805D01*
X109436516Y-96284929D01*
X109449875Y-96256779D01*
X109469352Y-96232459D01*
X109491179Y-96190422D01*
X109493163Y-96183587D01*
X109497410Y-96177871D01*
X109528370Y-96112551D01*
X109529158Y-96109415D01*
X109531043Y-96106789D01*
X109569507Y-96022062D01*
X109569944Y-96020193D01*
X109571048Y-96018623D01*
X109615386Y-95918368D01*
X109615677Y-95917066D01*
X109616438Y-95915968D01*
X109665023Y-95804061D01*
X109665246Y-95803033D01*
X109665840Y-95802165D01*
X109717041Y-95682486D01*
X109717231Y-95681588D01*
X109717745Y-95680829D01*
X109769932Y-95557254D01*
X109770109Y-95556396D01*
X109770599Y-95555666D01*
X109822145Y-95432073D01*
X109822329Y-95431159D01*
X109822843Y-95430386D01*
X109872116Y-95310652D01*
X109872324Y-95309593D01*
X109872916Y-95308692D01*
X109918290Y-95196694D01*
X109918551Y-95195327D01*
X109919307Y-95194158D01*
X109959149Y-95093775D01*
X109959515Y-95091778D01*
X109960600Y-95090063D01*
X109991556Y-95009660D01*
X109993812Y-95015751D01*
G36*
X110042536Y-93537353D02*
X110118471Y-93553371D01*
X110190330Y-93583604D01*
X110268204Y-93636155D01*
X110274584Y-93641805D01*
X110340508Y-93713601D01*
X110376616Y-93770411D01*
X110403258Y-93838906D01*
X110418451Y-93908360D01*
X110422030Y-93982877D01*
X110410547Y-94054933D01*
X110382938Y-94131465D01*
X110339756Y-94206171D01*
X110283416Y-94273083D01*
X110201846Y-94340399D01*
X110200356Y-94341035D01*
X110149643Y-94375731D01*
X110141120Y-94384444D01*
X110130232Y-94389919D01*
X110091680Y-94419983D01*
X110073472Y-94441076D01*
X110050622Y-94457024D01*
X110032191Y-94476219D01*
X110014046Y-94504607D01*
X109991138Y-94527149D01*
X109990035Y-94529752D01*
X109982856Y-94514534D01*
X109966895Y-94500039D01*
X109955599Y-94481676D01*
X109938422Y-94463157D01*
X109915039Y-94446229D01*
X109896439Y-94424149D01*
X109858832Y-94394086D01*
X109848319Y-94388639D01*
X109840157Y-94380062D01*
X109793652Y-94347292D01*
X109702687Y-94274477D01*
X109644578Y-94207177D01*
X109601967Y-94134192D01*
X109574564Y-94057694D01*
X109562216Y-93979931D01*
X109564738Y-93902820D01*
X109582174Y-93827485D01*
X109619742Y-93744697D01*
X109679376Y-93668826D01*
X109741591Y-93615023D01*
X109811090Y-93574764D01*
X109886138Y-93548130D01*
X109964229Y-93535578D01*
X110042536Y-93537353D01*
X110042536Y-93537353D01*
G37*
X110042536Y-93537353D02*
X110118471Y-93553371D01*
X110190330Y-93583604D01*
X110268204Y-93636155D01*
X110274584Y-93641805D01*
X110340508Y-93713601D01*
X110376616Y-93770411D01*
X110403258Y-93838906D01*
X110418451Y-93908360D01*
X110422030Y-93982877D01*
X110410547Y-94054933D01*
X110382938Y-94131465D01*
X110339756Y-94206171D01*
X110283416Y-94273083D01*
X110201846Y-94340399D01*
X110200356Y-94341035D01*
X110149643Y-94375731D01*
X110141120Y-94384444D01*
X110130232Y-94389919D01*
X110091680Y-94419983D01*
X110073472Y-94441076D01*
X110050622Y-94457024D01*
X110032191Y-94476219D01*
X110014046Y-94504607D01*
X109991138Y-94527149D01*
X109990035Y-94529752D01*
X109982856Y-94514534D01*
X109966895Y-94500039D01*
X109955599Y-94481676D01*
X109938422Y-94463157D01*
X109915039Y-94446229D01*
X109896439Y-94424149D01*
X109858832Y-94394086D01*
X109848319Y-94388639D01*
X109840157Y-94380062D01*
X109793652Y-94347292D01*
X109702687Y-94274477D01*
X109644578Y-94207177D01*
X109601967Y-94134192D01*
X109574564Y-94057694D01*
X109562216Y-93979931D01*
X109564738Y-93902820D01*
X109582174Y-93827485D01*
X109619742Y-93744697D01*
X109679376Y-93668826D01*
X109741591Y-93615023D01*
X109811090Y-93574764D01*
X109886138Y-93548130D01*
X109964229Y-93535578D01*
X110042536Y-93537353D01*
M02*
