G04 #@! TF.FileFunction,Legend,Bot*
%FSLAX46Y46*%
G04 Gerber Fmt 4.6, Leading zero omitted, Abs format (unit mm)*
G04 Created by KiCad (PCBNEW 4.0.6) date 07/26/17 22:49:38*
%MOMM*%
%LPD*%
G01*
G04 APERTURE LIST*
%ADD10C,0.100000*%
%ADD11C,0.150000*%
G04 APERTURE END LIST*
D10*
D11*
X102847143Y-98871429D02*
X102704286Y-99271429D01*
X102561428Y-98871429D01*
X102018571Y-99271429D02*
X102361428Y-99271429D01*
X102190000Y-99271429D02*
X102190000Y-98671429D01*
X102247143Y-98757143D01*
X102304285Y-98814286D01*
X102361428Y-98842857D01*
X101761428Y-99214286D02*
X101732856Y-99242857D01*
X101761428Y-99271429D01*
X101789999Y-99242857D01*
X101761428Y-99214286D01*
X101761428Y-99271429D01*
X101361428Y-98671429D02*
X101304285Y-98671429D01*
X101247142Y-98700000D01*
X101218571Y-98728571D01*
X101190000Y-98785714D01*
X101161428Y-98900000D01*
X101161428Y-99042857D01*
X101190000Y-99157143D01*
X101218571Y-99214286D01*
X101247142Y-99242857D01*
X101304285Y-99271429D01*
X101361428Y-99271429D01*
X101418571Y-99242857D01*
X101447142Y-99214286D01*
X101475714Y-99157143D01*
X101504285Y-99042857D01*
X101504285Y-98900000D01*
X101475714Y-98785714D01*
X101447142Y-98728571D01*
X101418571Y-98700000D01*
X101361428Y-98671429D01*
X111071429Y-93246429D02*
X111357143Y-93246429D01*
X111357143Y-92646429D01*
X110871429Y-92932143D02*
X110671429Y-92932143D01*
X110585715Y-93246429D02*
X110871429Y-93246429D01*
X110871429Y-92646429D01*
X110585715Y-92646429D01*
X110328572Y-93246429D02*
X110328572Y-92646429D01*
X110185715Y-92646429D01*
X110100000Y-92675000D01*
X110042858Y-92732143D01*
X110014286Y-92789286D01*
X109985715Y-92903571D01*
X109985715Y-92989286D01*
X110014286Y-93103571D01*
X110042858Y-93160714D01*
X110100000Y-93217857D01*
X110185715Y-93246429D01*
X110328572Y-93246429D01*
X109300000Y-93217857D02*
X109214286Y-93246429D01*
X109071429Y-93246429D01*
X109014286Y-93217857D01*
X108985715Y-93189286D01*
X108957143Y-93132143D01*
X108957143Y-93075000D01*
X108985715Y-93017857D01*
X109014286Y-92989286D01*
X109071429Y-92960714D01*
X109185715Y-92932143D01*
X109242857Y-92903571D01*
X109271429Y-92875000D01*
X109300000Y-92817857D01*
X109300000Y-92760714D01*
X109271429Y-92703571D01*
X109242857Y-92675000D01*
X109185715Y-92646429D01*
X109042857Y-92646429D01*
X108957143Y-92675000D01*
X108785714Y-92846429D02*
X108557143Y-92846429D01*
X108700000Y-92646429D02*
X108700000Y-93160714D01*
X108671428Y-93217857D01*
X108614286Y-93246429D01*
X108557143Y-93246429D01*
X108357143Y-93246429D02*
X108357143Y-92846429D01*
X108357143Y-92960714D02*
X108328571Y-92903571D01*
X108300000Y-92875000D01*
X108242857Y-92846429D01*
X108185714Y-92846429D01*
X107985714Y-93246429D02*
X107985714Y-92846429D01*
X107985714Y-92646429D02*
X108014285Y-92675000D01*
X107985714Y-92703571D01*
X107957142Y-92675000D01*
X107985714Y-92646429D01*
X107985714Y-92703571D01*
X107700000Y-92846429D02*
X107700000Y-93446429D01*
X107700000Y-92875000D02*
X107642857Y-92846429D01*
X107528571Y-92846429D01*
X107471428Y-92875000D01*
X107442857Y-92903571D01*
X107414286Y-92960714D01*
X107414286Y-93132143D01*
X107442857Y-93189286D01*
X107471428Y-93217857D01*
X107528571Y-93246429D01*
X107642857Y-93246429D01*
X107700000Y-93217857D01*
X110957143Y-94353571D02*
X111014286Y-94325000D01*
X111071429Y-94267857D01*
X111157143Y-94182143D01*
X111214286Y-94153571D01*
X111271429Y-94153571D01*
X111242857Y-94296429D02*
X111300000Y-94267857D01*
X111357143Y-94210714D01*
X111385714Y-94096429D01*
X111385714Y-93896429D01*
X111357143Y-93782143D01*
X111300000Y-93725000D01*
X111242857Y-93696429D01*
X111128571Y-93696429D01*
X111071429Y-93725000D01*
X111014286Y-93782143D01*
X110985714Y-93896429D01*
X110985714Y-94096429D01*
X111014286Y-94210714D01*
X111071429Y-94267857D01*
X111128571Y-94296429D01*
X111242857Y-94296429D01*
X110528572Y-93982143D02*
X110442858Y-94010714D01*
X110414286Y-94039286D01*
X110385715Y-94096429D01*
X110385715Y-94182143D01*
X110414286Y-94239286D01*
X110442858Y-94267857D01*
X110500000Y-94296429D01*
X110728572Y-94296429D01*
X110728572Y-93696429D01*
X110528572Y-93696429D01*
X110471429Y-93725000D01*
X110442858Y-93753571D01*
X110414286Y-93810714D01*
X110414286Y-93867857D01*
X110442858Y-93925000D01*
X110471429Y-93953571D01*
X110528572Y-93982143D01*
X110728572Y-93982143D01*
X109842858Y-94296429D02*
X110128572Y-94296429D01*
X110128572Y-93696429D01*
X109642858Y-94296429D02*
X109642858Y-93696429D01*
X109414286Y-93696429D01*
X109357144Y-93725000D01*
X109328572Y-93753571D01*
X109300001Y-93810714D01*
X109300001Y-93896429D01*
X109328572Y-93953571D01*
X109357144Y-93982143D01*
X109414286Y-94010714D01*
X109642858Y-94010714D01*
X108785715Y-93696429D02*
X108900001Y-93696429D01*
X108957144Y-93725000D01*
X108985715Y-93753571D01*
X109042858Y-93839286D01*
X109071429Y-93953571D01*
X109071429Y-94182143D01*
X109042858Y-94239286D01*
X109014286Y-94267857D01*
X108957144Y-94296429D01*
X108842858Y-94296429D01*
X108785715Y-94267857D01*
X108757144Y-94239286D01*
X108728572Y-94182143D01*
X108728572Y-94039286D01*
X108757144Y-93982143D01*
X108785715Y-93953571D01*
X108842858Y-93925000D01*
X108957144Y-93925000D01*
X109014286Y-93953571D01*
X109042858Y-93982143D01*
X109071429Y-94039286D01*
X108357143Y-93696429D02*
X108300000Y-93696429D01*
X108242857Y-93725000D01*
X108214286Y-93753571D01*
X108185715Y-93810714D01*
X108157143Y-93925000D01*
X108157143Y-94067857D01*
X108185715Y-94182143D01*
X108214286Y-94239286D01*
X108242857Y-94267857D01*
X108300000Y-94296429D01*
X108357143Y-94296429D01*
X108414286Y-94267857D01*
X108442857Y-94239286D01*
X108471429Y-94182143D01*
X108500000Y-94067857D01*
X108500000Y-93925000D01*
X108471429Y-93810714D01*
X108442857Y-93753571D01*
X108414286Y-93725000D01*
X108357143Y-93696429D01*
X107585714Y-94296429D02*
X107928571Y-94296429D01*
X107757143Y-94296429D02*
X107757143Y-93696429D01*
X107814286Y-93782143D01*
X107871428Y-93839286D01*
X107928571Y-93867857D01*
M02*
