G04 #@! TF.FileFunction,Legend,Top*
%FSLAX46Y46*%
G04 Gerber Fmt 4.6, Leading zero omitted, Abs format (unit mm)*
G04 Created by KiCad (PCBNEW 4.0.6) date 07/26/17 22:27:42*
%MOMM*%
%LPD*%
G01*
G04 APERTURE LIST*
%ADD10C,0.100000*%
%ADD11C,0.180000*%
%ADD12C,0.120000*%
%ADD13C,0.150000*%
G04 APERTURE END LIST*
D10*
D11*
X100780953Y-97861905D02*
X100400000Y-97861905D01*
X100400000Y-97061905D01*
X101047619Y-97442857D02*
X101314286Y-97442857D01*
X101428572Y-97861905D02*
X101047619Y-97861905D01*
X101047619Y-97061905D01*
X101428572Y-97061905D01*
X101771429Y-97861905D02*
X101771429Y-97061905D01*
X101961905Y-97061905D01*
X102076191Y-97100000D01*
X102152382Y-97176190D01*
X102190477Y-97252381D01*
X102228572Y-97404762D01*
X102228572Y-97519048D01*
X102190477Y-97671429D01*
X102152382Y-97747619D01*
X102076191Y-97823810D01*
X101961905Y-97861905D01*
X101771429Y-97861905D01*
X102380953Y-97938095D02*
X102990477Y-97938095D01*
X103180953Y-97861905D02*
X103180953Y-97061905D01*
X103638096Y-97861905D02*
X103295239Y-97404762D01*
X103638096Y-97061905D02*
X103180953Y-97519048D01*
X100838096Y-90861905D02*
X100457143Y-90861905D01*
X100457143Y-90061905D01*
X101104762Y-90442857D02*
X101371429Y-90442857D01*
X101485715Y-90861905D02*
X101104762Y-90861905D01*
X101104762Y-90061905D01*
X101485715Y-90061905D01*
X101828572Y-90861905D02*
X101828572Y-90061905D01*
X102019048Y-90061905D01*
X102133334Y-90100000D01*
X102209525Y-90176190D01*
X102247620Y-90252381D01*
X102285715Y-90404762D01*
X102285715Y-90519048D01*
X102247620Y-90671429D01*
X102209525Y-90747619D01*
X102133334Y-90823810D01*
X102019048Y-90861905D01*
X101828572Y-90861905D01*
X102438096Y-90938095D02*
X103047620Y-90938095D01*
X103200001Y-90633333D02*
X103580953Y-90633333D01*
X103123810Y-90861905D02*
X103390477Y-90061905D01*
X103657144Y-90861905D01*
D12*
X107500000Y-88750000D02*
X107500000Y-93400000D01*
X104300000Y-88750000D02*
X104300000Y-93400000D01*
X104300000Y-93400000D02*
X105100000Y-93400000D01*
X111500000Y-88750000D02*
X111500000Y-93400000D01*
X108300000Y-88750000D02*
X108300000Y-93400000D01*
X108300000Y-93400000D02*
X109100000Y-93400000D01*
X115500000Y-88750000D02*
X115500000Y-93400000D01*
X112300000Y-88750000D02*
X112300000Y-93400000D01*
X112300000Y-93400000D02*
X113100000Y-93400000D01*
X119500000Y-88750000D02*
X119500000Y-93400000D01*
X116300000Y-88750000D02*
X116300000Y-93400000D01*
X116300000Y-93400000D02*
X117100000Y-93400000D01*
X104300000Y-99250000D02*
X104300000Y-94600000D01*
X107500000Y-99250000D02*
X107500000Y-94600000D01*
X107500000Y-94600000D02*
X106700000Y-94600000D01*
X108300000Y-99250000D02*
X108300000Y-94600000D01*
X111500000Y-99250000D02*
X111500000Y-94600000D01*
X111500000Y-94600000D02*
X110700000Y-94600000D01*
X112300000Y-99250000D02*
X112300000Y-94600000D01*
X115500000Y-99250000D02*
X115500000Y-94600000D01*
X115500000Y-94600000D02*
X114700000Y-94600000D01*
X116300000Y-99250000D02*
X116300000Y-94600000D01*
X119500000Y-99250000D02*
X119500000Y-94600000D01*
X119500000Y-94600000D02*
X118700000Y-94600000D01*
X100670000Y-96600000D02*
X103330000Y-96600000D01*
X100670000Y-94000000D02*
X100670000Y-96600000D01*
X103330000Y-94000000D02*
X103330000Y-96600000D01*
X100670000Y-94000000D02*
X103330000Y-94000000D01*
X100670000Y-92730000D02*
X100670000Y-91400000D01*
X100670000Y-91400000D02*
X102000000Y-91400000D01*
D13*
X105457143Y-91271429D02*
X105457143Y-90671429D01*
X105600000Y-90671429D01*
X105685715Y-90700000D01*
X105742857Y-90757143D01*
X105771429Y-90814286D01*
X105800000Y-90928571D01*
X105800000Y-91014286D01*
X105771429Y-91128571D01*
X105742857Y-91185714D01*
X105685715Y-91242857D01*
X105600000Y-91271429D01*
X105457143Y-91271429D01*
X106371429Y-91271429D02*
X106028572Y-91271429D01*
X106200000Y-91271429D02*
X106200000Y-90671429D01*
X106142857Y-90757143D01*
X106085715Y-90814286D01*
X106028572Y-90842857D01*
X109457143Y-91271429D02*
X109457143Y-90671429D01*
X109600000Y-90671429D01*
X109685715Y-90700000D01*
X109742857Y-90757143D01*
X109771429Y-90814286D01*
X109800000Y-90928571D01*
X109800000Y-91014286D01*
X109771429Y-91128571D01*
X109742857Y-91185714D01*
X109685715Y-91242857D01*
X109600000Y-91271429D01*
X109457143Y-91271429D01*
X110028572Y-90728571D02*
X110057143Y-90700000D01*
X110114286Y-90671429D01*
X110257143Y-90671429D01*
X110314286Y-90700000D01*
X110342857Y-90728571D01*
X110371429Y-90785714D01*
X110371429Y-90842857D01*
X110342857Y-90928571D01*
X110000000Y-91271429D01*
X110371429Y-91271429D01*
X113457143Y-91271429D02*
X113457143Y-90671429D01*
X113600000Y-90671429D01*
X113685715Y-90700000D01*
X113742857Y-90757143D01*
X113771429Y-90814286D01*
X113800000Y-90928571D01*
X113800000Y-91014286D01*
X113771429Y-91128571D01*
X113742857Y-91185714D01*
X113685715Y-91242857D01*
X113600000Y-91271429D01*
X113457143Y-91271429D01*
X114000000Y-90671429D02*
X114371429Y-90671429D01*
X114171429Y-90900000D01*
X114257143Y-90900000D01*
X114314286Y-90928571D01*
X114342857Y-90957143D01*
X114371429Y-91014286D01*
X114371429Y-91157143D01*
X114342857Y-91214286D01*
X114314286Y-91242857D01*
X114257143Y-91271429D01*
X114085715Y-91271429D01*
X114028572Y-91242857D01*
X114000000Y-91214286D01*
X117457143Y-91271429D02*
X117457143Y-90671429D01*
X117600000Y-90671429D01*
X117685715Y-90700000D01*
X117742857Y-90757143D01*
X117771429Y-90814286D01*
X117800000Y-90928571D01*
X117800000Y-91014286D01*
X117771429Y-91128571D01*
X117742857Y-91185714D01*
X117685715Y-91242857D01*
X117600000Y-91271429D01*
X117457143Y-91271429D01*
X118314286Y-90871429D02*
X118314286Y-91271429D01*
X118171429Y-90642857D02*
X118028572Y-91071429D01*
X118400000Y-91071429D01*
X105457143Y-97271429D02*
X105457143Y-96671429D01*
X105600000Y-96671429D01*
X105685715Y-96700000D01*
X105742857Y-96757143D01*
X105771429Y-96814286D01*
X105800000Y-96928571D01*
X105800000Y-97014286D01*
X105771429Y-97128571D01*
X105742857Y-97185714D01*
X105685715Y-97242857D01*
X105600000Y-97271429D01*
X105457143Y-97271429D01*
X106342857Y-96671429D02*
X106057143Y-96671429D01*
X106028572Y-96957143D01*
X106057143Y-96928571D01*
X106114286Y-96900000D01*
X106257143Y-96900000D01*
X106314286Y-96928571D01*
X106342857Y-96957143D01*
X106371429Y-97014286D01*
X106371429Y-97157143D01*
X106342857Y-97214286D01*
X106314286Y-97242857D01*
X106257143Y-97271429D01*
X106114286Y-97271429D01*
X106057143Y-97242857D01*
X106028572Y-97214286D01*
X109457143Y-97271429D02*
X109457143Y-96671429D01*
X109600000Y-96671429D01*
X109685715Y-96700000D01*
X109742857Y-96757143D01*
X109771429Y-96814286D01*
X109800000Y-96928571D01*
X109800000Y-97014286D01*
X109771429Y-97128571D01*
X109742857Y-97185714D01*
X109685715Y-97242857D01*
X109600000Y-97271429D01*
X109457143Y-97271429D01*
X110314286Y-96671429D02*
X110200000Y-96671429D01*
X110142857Y-96700000D01*
X110114286Y-96728571D01*
X110057143Y-96814286D01*
X110028572Y-96928571D01*
X110028572Y-97157143D01*
X110057143Y-97214286D01*
X110085715Y-97242857D01*
X110142857Y-97271429D01*
X110257143Y-97271429D01*
X110314286Y-97242857D01*
X110342857Y-97214286D01*
X110371429Y-97157143D01*
X110371429Y-97014286D01*
X110342857Y-96957143D01*
X110314286Y-96928571D01*
X110257143Y-96900000D01*
X110142857Y-96900000D01*
X110085715Y-96928571D01*
X110057143Y-96957143D01*
X110028572Y-97014286D01*
X113457143Y-97271429D02*
X113457143Y-96671429D01*
X113600000Y-96671429D01*
X113685715Y-96700000D01*
X113742857Y-96757143D01*
X113771429Y-96814286D01*
X113800000Y-96928571D01*
X113800000Y-97014286D01*
X113771429Y-97128571D01*
X113742857Y-97185714D01*
X113685715Y-97242857D01*
X113600000Y-97271429D01*
X113457143Y-97271429D01*
X114000000Y-96671429D02*
X114400000Y-96671429D01*
X114142857Y-97271429D01*
X117457143Y-97271429D02*
X117457143Y-96671429D01*
X117600000Y-96671429D01*
X117685715Y-96700000D01*
X117742857Y-96757143D01*
X117771429Y-96814286D01*
X117800000Y-96928571D01*
X117800000Y-97014286D01*
X117771429Y-97128571D01*
X117742857Y-97185714D01*
X117685715Y-97242857D01*
X117600000Y-97271429D01*
X117457143Y-97271429D01*
X118142857Y-96928571D02*
X118085715Y-96900000D01*
X118057143Y-96871429D01*
X118028572Y-96814286D01*
X118028572Y-96785714D01*
X118057143Y-96728571D01*
X118085715Y-96700000D01*
X118142857Y-96671429D01*
X118257143Y-96671429D01*
X118314286Y-96700000D01*
X118342857Y-96728571D01*
X118371429Y-96785714D01*
X118371429Y-96814286D01*
X118342857Y-96871429D01*
X118314286Y-96900000D01*
X118257143Y-96928571D01*
X118142857Y-96928571D01*
X118085715Y-96957143D01*
X118057143Y-96985714D01*
X118028572Y-97042857D01*
X118028572Y-97157143D01*
X118057143Y-97214286D01*
X118085715Y-97242857D01*
X118142857Y-97271429D01*
X118257143Y-97271429D01*
X118314286Y-97242857D01*
X118342857Y-97214286D01*
X118371429Y-97157143D01*
X118371429Y-97042857D01*
X118342857Y-96985714D01*
X118314286Y-96957143D01*
X118257143Y-96928571D01*
M02*
