G04 #@! TF.FileFunction,Copper,L1,Top,Signal*
%FSLAX46Y46*%
G04 Gerber Fmt 4.6, Leading zero omitted, Abs format (unit mm)*
G04 Created by KiCad (PCBNEW 4.0.6) date 07/26/17 22:27:42*
%MOMM*%
%LPD*%
G01*
G04 APERTURE LIST*
%ADD10C,0.100000*%
%ADD11R,2.600000X1.500000*%
%ADD12R,1.700000X1.700000*%
%ADD13O,1.700000X1.700000*%
%ADD14C,0.254000*%
G04 APERTURE END LIST*
D10*
D11*
X105900000Y-92500000D03*
X105900000Y-89500000D03*
X109900000Y-92500000D03*
X109900000Y-89500000D03*
X113900000Y-92500000D03*
X113900000Y-89500000D03*
X117900000Y-92500000D03*
X117900000Y-89500000D03*
X105900000Y-95500000D03*
X105900000Y-98500000D03*
X109900000Y-95500000D03*
X109900000Y-98500000D03*
X113900000Y-95500000D03*
X113900000Y-98500000D03*
X117900000Y-95500000D03*
X117900000Y-98500000D03*
D12*
X102000000Y-92730000D03*
D13*
X102000000Y-95270000D03*
D14*
X105900000Y-92500000D02*
X108900000Y-89500000D01*
X108900000Y-89500000D02*
X109900000Y-89500000D01*
X105900000Y-98500000D02*
X101740000Y-98500000D01*
X100560000Y-94170000D02*
X100560000Y-97320000D01*
X100560000Y-97320000D02*
X101740000Y-98500000D01*
X100560000Y-94170000D02*
X102000000Y-92730000D01*
X101900000Y-92730000D02*
X105130000Y-89500000D01*
X105130000Y-89500000D02*
X105900000Y-89500000D01*
X109900000Y-92500000D02*
X112900000Y-89500000D01*
X112900000Y-89500000D02*
X113900000Y-89500000D01*
X113900000Y-92500000D02*
X116900000Y-89500000D01*
X116900000Y-89500000D02*
X117900000Y-89500000D01*
X105900000Y-95500000D02*
X108900000Y-98500000D01*
X108900000Y-98500000D02*
X109900000Y-98500000D01*
X109900000Y-95500000D02*
X112900000Y-98500000D01*
X112900000Y-98500000D02*
X113900000Y-98500000D01*
X115900000Y-94000000D02*
X103270000Y-94000000D01*
X103270000Y-94000000D02*
X102000000Y-95270000D01*
X117400000Y-95500000D02*
X115900000Y-94000000D01*
X115900000Y-94000000D02*
X117400000Y-92500000D01*
X117400000Y-95500000D02*
X117900000Y-95500000D01*
X117900000Y-92500000D02*
X117400000Y-92500000D01*
X113900000Y-95500000D02*
X116900000Y-98500000D01*
X116900000Y-98500000D02*
X117900000Y-98500000D01*
G36*
X108211536Y-98529956D02*
X108211536Y-99250000D01*
X108238103Y-99391190D01*
X108320346Y-99519000D01*
X107477325Y-99519000D01*
X107557859Y-99401134D01*
X107588464Y-99250000D01*
X107588464Y-97906884D01*
X108211536Y-98529956D01*
X108211536Y-98529956D01*
G37*
X108211536Y-98529956D02*
X108211536Y-99250000D01*
X108238103Y-99391190D01*
X108320346Y-99519000D01*
X107477325Y-99519000D01*
X107557859Y-99401134D01*
X107588464Y-99250000D01*
X107588464Y-97906884D01*
X108211536Y-98529956D01*
G36*
X112211536Y-98529956D02*
X112211536Y-99250000D01*
X112238103Y-99391190D01*
X112320346Y-99519000D01*
X111477325Y-99519000D01*
X111557859Y-99401134D01*
X111588464Y-99250000D01*
X111588464Y-97906884D01*
X112211536Y-98529956D01*
X112211536Y-98529956D01*
G37*
X112211536Y-98529956D02*
X112211536Y-99250000D01*
X112238103Y-99391190D01*
X112320346Y-99519000D01*
X111477325Y-99519000D01*
X111557859Y-99401134D01*
X111588464Y-99250000D01*
X111588464Y-97906884D01*
X112211536Y-98529956D01*
G36*
X116211536Y-98529956D02*
X116211536Y-99250000D01*
X116238103Y-99391190D01*
X116320346Y-99519000D01*
X115477325Y-99519000D01*
X115557859Y-99401134D01*
X115588464Y-99250000D01*
X115588464Y-97906884D01*
X116211536Y-98529956D01*
X116211536Y-98529956D01*
G37*
X116211536Y-98529956D02*
X116211536Y-99250000D01*
X116238103Y-99391190D01*
X116320346Y-99519000D01*
X115477325Y-99519000D01*
X115557859Y-99401134D01*
X115588464Y-99250000D01*
X115588464Y-97906884D01*
X116211536Y-98529956D01*
G36*
X101380790Y-98859210D02*
X101545597Y-98969331D01*
X101740000Y-99008000D01*
X104211536Y-99008000D01*
X104211536Y-99250000D01*
X104238103Y-99391190D01*
X104320346Y-99519000D01*
X100847375Y-99519000D01*
X100681530Y-99486012D01*
X100581097Y-99418904D01*
X100513988Y-99318469D01*
X100481000Y-99152625D01*
X100481000Y-97959420D01*
X101380790Y-98859210D01*
X101380790Y-98859210D01*
G37*
X101380790Y-98859210D02*
X101545597Y-98969331D01*
X101740000Y-99008000D01*
X104211536Y-99008000D01*
X104211536Y-99250000D01*
X104238103Y-99391190D01*
X104320346Y-99519000D01*
X100847375Y-99519000D01*
X100681530Y-99486012D01*
X100581097Y-99418904D01*
X100513988Y-99318469D01*
X100481000Y-99152625D01*
X100481000Y-97959420D01*
X101380790Y-98859210D01*
G36*
X104242141Y-94598866D02*
X104211536Y-94750000D01*
X104211536Y-96250000D01*
X104238103Y-96391190D01*
X104321546Y-96520865D01*
X104448866Y-96607859D01*
X104600000Y-96638464D01*
X106320044Y-96638464D01*
X107043116Y-97361536D01*
X104600000Y-97361536D01*
X104458810Y-97388103D01*
X104329135Y-97471546D01*
X104242141Y-97598866D01*
X104211536Y-97750000D01*
X104211536Y-97992000D01*
X101950420Y-97992000D01*
X101068000Y-97109580D01*
X101068000Y-96084423D01*
X101105435Y-96140448D01*
X101504800Y-96407296D01*
X101975883Y-96501000D01*
X102024117Y-96501000D01*
X102495200Y-96407296D01*
X102894565Y-96140448D01*
X103161413Y-95741083D01*
X103255117Y-95270000D01*
X103166073Y-94822347D01*
X103480420Y-94508000D01*
X104304227Y-94508000D01*
X104242141Y-94598866D01*
X104242141Y-94598866D01*
G37*
X104242141Y-94598866D02*
X104211536Y-94750000D01*
X104211536Y-96250000D01*
X104238103Y-96391190D01*
X104321546Y-96520865D01*
X104448866Y-96607859D01*
X104600000Y-96638464D01*
X106320044Y-96638464D01*
X107043116Y-97361536D01*
X104600000Y-97361536D01*
X104458810Y-97388103D01*
X104329135Y-97471546D01*
X104242141Y-97598866D01*
X104211536Y-97750000D01*
X104211536Y-97992000D01*
X101950420Y-97992000D01*
X101068000Y-97109580D01*
X101068000Y-96084423D01*
X101105435Y-96140448D01*
X101504800Y-96407296D01*
X101975883Y-96501000D01*
X102024117Y-96501000D01*
X102495200Y-96407296D01*
X102894565Y-96140448D01*
X103161413Y-95741083D01*
X103255117Y-95270000D01*
X103166073Y-94822347D01*
X103480420Y-94508000D01*
X104304227Y-94508000D01*
X104242141Y-94598866D01*
G36*
X116211536Y-95029956D02*
X116211536Y-96250000D01*
X116238103Y-96391190D01*
X116321546Y-96520865D01*
X116448866Y-96607859D01*
X116600000Y-96638464D01*
X119200000Y-96638464D01*
X119341190Y-96611897D01*
X119470865Y-96528454D01*
X119519000Y-96458006D01*
X119519000Y-97542146D01*
X119478454Y-97479135D01*
X119351134Y-97392141D01*
X119200000Y-97361536D01*
X116600000Y-97361536D01*
X116498967Y-97380547D01*
X115542310Y-96423890D01*
X115557859Y-96401134D01*
X115588464Y-96250000D01*
X115588464Y-94750000D01*
X115561897Y-94608810D01*
X115497028Y-94508000D01*
X115689580Y-94508000D01*
X116211536Y-95029956D01*
X116211536Y-95029956D01*
G37*
X116211536Y-95029956D02*
X116211536Y-96250000D01*
X116238103Y-96391190D01*
X116321546Y-96520865D01*
X116448866Y-96607859D01*
X116600000Y-96638464D01*
X119200000Y-96638464D01*
X119341190Y-96611897D01*
X119470865Y-96528454D01*
X119519000Y-96458006D01*
X119519000Y-97542146D01*
X119478454Y-97479135D01*
X119351134Y-97392141D01*
X119200000Y-97361536D01*
X116600000Y-97361536D01*
X116498967Y-97380547D01*
X115542310Y-96423890D01*
X115557859Y-96401134D01*
X115588464Y-96250000D01*
X115588464Y-94750000D01*
X115561897Y-94608810D01*
X115497028Y-94508000D01*
X115689580Y-94508000D01*
X116211536Y-95029956D01*
G36*
X108242141Y-94598866D02*
X108211536Y-94750000D01*
X108211536Y-96250000D01*
X108238103Y-96391190D01*
X108321546Y-96520865D01*
X108448866Y-96607859D01*
X108600000Y-96638464D01*
X110320044Y-96638464D01*
X111043116Y-97361536D01*
X108600000Y-97361536D01*
X108498967Y-97380547D01*
X107542310Y-96423890D01*
X107557859Y-96401134D01*
X107588464Y-96250000D01*
X107588464Y-94750000D01*
X107561897Y-94608810D01*
X107497028Y-94508000D01*
X108304227Y-94508000D01*
X108242141Y-94598866D01*
X108242141Y-94598866D01*
G37*
X108242141Y-94598866D02*
X108211536Y-94750000D01*
X108211536Y-96250000D01*
X108238103Y-96391190D01*
X108321546Y-96520865D01*
X108448866Y-96607859D01*
X108600000Y-96638464D01*
X110320044Y-96638464D01*
X111043116Y-97361536D01*
X108600000Y-97361536D01*
X108498967Y-97380547D01*
X107542310Y-96423890D01*
X107557859Y-96401134D01*
X107588464Y-96250000D01*
X107588464Y-94750000D01*
X107561897Y-94608810D01*
X107497028Y-94508000D01*
X108304227Y-94508000D01*
X108242141Y-94598866D01*
G36*
X112242141Y-94598866D02*
X112211536Y-94750000D01*
X112211536Y-96250000D01*
X112238103Y-96391190D01*
X112321546Y-96520865D01*
X112448866Y-96607859D01*
X112600000Y-96638464D01*
X114320044Y-96638464D01*
X115043116Y-97361536D01*
X112600000Y-97361536D01*
X112498967Y-97380547D01*
X111542310Y-96423890D01*
X111557859Y-96401134D01*
X111588464Y-96250000D01*
X111588464Y-94750000D01*
X111561897Y-94608810D01*
X111497028Y-94508000D01*
X112304227Y-94508000D01*
X112242141Y-94598866D01*
X112242141Y-94598866D01*
G37*
X112242141Y-94598866D02*
X112211536Y-94750000D01*
X112211536Y-96250000D01*
X112238103Y-96391190D01*
X112321546Y-96520865D01*
X112448866Y-96607859D01*
X112600000Y-96638464D01*
X114320044Y-96638464D01*
X115043116Y-97361536D01*
X112600000Y-97361536D01*
X112498967Y-97380547D01*
X111542310Y-96423890D01*
X111557859Y-96401134D01*
X111588464Y-96250000D01*
X111588464Y-94750000D01*
X111561897Y-94608810D01*
X111497028Y-94508000D01*
X112304227Y-94508000D01*
X112242141Y-94598866D01*
G36*
X119519000Y-94542146D02*
X119478454Y-94479135D01*
X119351134Y-94392141D01*
X119200000Y-94361536D01*
X116979956Y-94361536D01*
X116618420Y-94000000D01*
X116979956Y-93638464D01*
X119200000Y-93638464D01*
X119341190Y-93611897D01*
X119470865Y-93528454D01*
X119519000Y-93458006D01*
X119519000Y-94542146D01*
X119519000Y-94542146D01*
G37*
X119519000Y-94542146D02*
X119478454Y-94479135D01*
X119351134Y-94392141D01*
X119200000Y-94361536D01*
X116979956Y-94361536D01*
X116618420Y-94000000D01*
X116979956Y-93638464D01*
X119200000Y-93638464D01*
X119341190Y-93611897D01*
X119470865Y-93528454D01*
X119519000Y-93458006D01*
X119519000Y-94542146D01*
G36*
X102431539Y-94120041D02*
X102024117Y-94039000D01*
X101975883Y-94039000D01*
X101504800Y-94132704D01*
X101105435Y-94399552D01*
X101068000Y-94455577D01*
X101068000Y-94380420D01*
X101479956Y-93968464D01*
X102583116Y-93968464D01*
X102431539Y-94120041D01*
X102431539Y-94120041D01*
G37*
X102431539Y-94120041D02*
X102024117Y-94039000D01*
X101975883Y-94039000D01*
X101504800Y-94132704D01*
X101105435Y-94399552D01*
X101068000Y-94455577D01*
X101068000Y-94380420D01*
X101479956Y-93968464D01*
X102583116Y-93968464D01*
X102431539Y-94120041D01*
G36*
X104242141Y-88598866D02*
X104211536Y-88750000D01*
X104211536Y-89700044D01*
X102420044Y-91491536D01*
X101150000Y-91491536D01*
X101008810Y-91518103D01*
X100879135Y-91601546D01*
X100792141Y-91728866D01*
X100761536Y-91880000D01*
X100761536Y-93250044D01*
X100481000Y-93530580D01*
X100481000Y-88847375D01*
X100513988Y-88681531D01*
X100581097Y-88581096D01*
X100681530Y-88513988D01*
X100847375Y-88481000D01*
X104322675Y-88481000D01*
X104242141Y-88598866D01*
X104242141Y-88598866D01*
G37*
X104242141Y-88598866D02*
X104211536Y-88750000D01*
X104211536Y-89700044D01*
X102420044Y-91491536D01*
X101150000Y-91491536D01*
X101008810Y-91518103D01*
X100879135Y-91601546D01*
X100792141Y-91728866D01*
X100761536Y-91880000D01*
X100761536Y-93250044D01*
X100481000Y-93530580D01*
X100481000Y-88847375D01*
X100513988Y-88681531D01*
X100581097Y-88581096D01*
X100681530Y-88513988D01*
X100847375Y-88481000D01*
X104322675Y-88481000D01*
X104242141Y-88598866D01*
G36*
X106320044Y-91361536D02*
X104600000Y-91361536D01*
X104458810Y-91388103D01*
X104329135Y-91471546D01*
X104242141Y-91598866D01*
X104211536Y-91750000D01*
X104211536Y-93250000D01*
X104238103Y-93391190D01*
X104302972Y-93492000D01*
X103270000Y-93492000D01*
X103238464Y-93498273D01*
X103238464Y-92109956D01*
X104709956Y-90638464D01*
X107043116Y-90638464D01*
X106320044Y-91361536D01*
X106320044Y-91361536D01*
G37*
X106320044Y-91361536D02*
X104600000Y-91361536D01*
X104458810Y-91388103D01*
X104329135Y-91471546D01*
X104242141Y-91598866D01*
X104211536Y-91750000D01*
X104211536Y-93250000D01*
X104238103Y-93391190D01*
X104302972Y-93492000D01*
X103270000Y-93492000D01*
X103238464Y-93498273D01*
X103238464Y-92109956D01*
X104709956Y-90638464D01*
X107043116Y-90638464D01*
X106320044Y-91361536D01*
G36*
X108600000Y-90638464D02*
X111043116Y-90638464D01*
X110320044Y-91361536D01*
X108600000Y-91361536D01*
X108458810Y-91388103D01*
X108329135Y-91471546D01*
X108242141Y-91598866D01*
X108211536Y-91750000D01*
X108211536Y-93250000D01*
X108238103Y-93391190D01*
X108302972Y-93492000D01*
X107495773Y-93492000D01*
X107557859Y-93401134D01*
X107588464Y-93250000D01*
X107588464Y-91750000D01*
X107561897Y-91608810D01*
X107541425Y-91576995D01*
X108500172Y-90618248D01*
X108600000Y-90638464D01*
X108600000Y-90638464D01*
G37*
X108600000Y-90638464D02*
X111043116Y-90638464D01*
X110320044Y-91361536D01*
X108600000Y-91361536D01*
X108458810Y-91388103D01*
X108329135Y-91471546D01*
X108242141Y-91598866D01*
X108211536Y-91750000D01*
X108211536Y-93250000D01*
X108238103Y-93391190D01*
X108302972Y-93492000D01*
X107495773Y-93492000D01*
X107557859Y-93401134D01*
X107588464Y-93250000D01*
X107588464Y-91750000D01*
X107561897Y-91608810D01*
X107541425Y-91576995D01*
X108500172Y-90618248D01*
X108600000Y-90638464D01*
G36*
X112600000Y-90638464D02*
X115043116Y-90638464D01*
X114320044Y-91361536D01*
X112600000Y-91361536D01*
X112458810Y-91388103D01*
X112329135Y-91471546D01*
X112242141Y-91598866D01*
X112211536Y-91750000D01*
X112211536Y-93250000D01*
X112238103Y-93391190D01*
X112302972Y-93492000D01*
X111495773Y-93492000D01*
X111557859Y-93401134D01*
X111588464Y-93250000D01*
X111588464Y-91750000D01*
X111561897Y-91608810D01*
X111541425Y-91576995D01*
X112500172Y-90618248D01*
X112600000Y-90638464D01*
X112600000Y-90638464D01*
G37*
X112600000Y-90638464D02*
X115043116Y-90638464D01*
X114320044Y-91361536D01*
X112600000Y-91361536D01*
X112458810Y-91388103D01*
X112329135Y-91471546D01*
X112242141Y-91598866D01*
X112211536Y-91750000D01*
X112211536Y-93250000D01*
X112238103Y-93391190D01*
X112302972Y-93492000D01*
X111495773Y-93492000D01*
X111557859Y-93401134D01*
X111588464Y-93250000D01*
X111588464Y-91750000D01*
X111561897Y-91608810D01*
X111541425Y-91576995D01*
X112500172Y-90618248D01*
X112600000Y-90638464D01*
G36*
X119519000Y-91542146D02*
X119478454Y-91479135D01*
X119351134Y-91392141D01*
X119200000Y-91361536D01*
X116600000Y-91361536D01*
X116458810Y-91388103D01*
X116329135Y-91471546D01*
X116242141Y-91598866D01*
X116211536Y-91750000D01*
X116211536Y-92970044D01*
X115689580Y-93492000D01*
X115495773Y-93492000D01*
X115557859Y-93401134D01*
X115588464Y-93250000D01*
X115588464Y-91750000D01*
X115561897Y-91608810D01*
X115541425Y-91576995D01*
X116500172Y-90618248D01*
X116600000Y-90638464D01*
X119200000Y-90638464D01*
X119341190Y-90611897D01*
X119470865Y-90528454D01*
X119519000Y-90458006D01*
X119519000Y-91542146D01*
X119519000Y-91542146D01*
G37*
X119519000Y-91542146D02*
X119478454Y-91479135D01*
X119351134Y-91392141D01*
X119200000Y-91361536D01*
X116600000Y-91361536D01*
X116458810Y-91388103D01*
X116329135Y-91471546D01*
X116242141Y-91598866D01*
X116211536Y-91750000D01*
X116211536Y-92970044D01*
X115689580Y-93492000D01*
X115495773Y-93492000D01*
X115557859Y-93401134D01*
X115588464Y-93250000D01*
X115588464Y-91750000D01*
X115561897Y-91608810D01*
X115541425Y-91576995D01*
X116500172Y-90618248D01*
X116600000Y-90638464D01*
X119200000Y-90638464D01*
X119341190Y-90611897D01*
X119470865Y-90528454D01*
X119519000Y-90458006D01*
X119519000Y-91542146D01*
G36*
X108242141Y-88598866D02*
X108211536Y-88750000D01*
X108211536Y-89470044D01*
X107588464Y-90093116D01*
X107588464Y-88750000D01*
X107561897Y-88608810D01*
X107479654Y-88481000D01*
X108322675Y-88481000D01*
X108242141Y-88598866D01*
X108242141Y-88598866D01*
G37*
X108242141Y-88598866D02*
X108211536Y-88750000D01*
X108211536Y-89470044D01*
X107588464Y-90093116D01*
X107588464Y-88750000D01*
X107561897Y-88608810D01*
X107479654Y-88481000D01*
X108322675Y-88481000D01*
X108242141Y-88598866D01*
G36*
X112242141Y-88598866D02*
X112211536Y-88750000D01*
X112211536Y-89470044D01*
X111588464Y-90093116D01*
X111588464Y-88750000D01*
X111561897Y-88608810D01*
X111479654Y-88481000D01*
X112322675Y-88481000D01*
X112242141Y-88598866D01*
X112242141Y-88598866D01*
G37*
X112242141Y-88598866D02*
X112211536Y-88750000D01*
X112211536Y-89470044D01*
X111588464Y-90093116D01*
X111588464Y-88750000D01*
X111561897Y-88608810D01*
X111479654Y-88481000D01*
X112322675Y-88481000D01*
X112242141Y-88598866D01*
G36*
X116242141Y-88598866D02*
X116211536Y-88750000D01*
X116211536Y-89470044D01*
X115588464Y-90093116D01*
X115588464Y-88750000D01*
X115561897Y-88608810D01*
X115479654Y-88481000D01*
X116322675Y-88481000D01*
X116242141Y-88598866D01*
X116242141Y-88598866D01*
G37*
X116242141Y-88598866D02*
X116211536Y-88750000D01*
X116211536Y-89470044D01*
X115588464Y-90093116D01*
X115588464Y-88750000D01*
X115561897Y-88608810D01*
X115479654Y-88481000D01*
X116322675Y-88481000D01*
X116242141Y-88598866D01*
M02*
